<svg xmlns="http://www.w3.org/2000/svg" xmlns:xlink="http://www.w3.org/1999/xlink" viewBox="0 0 4094.01 1536"><defs><style>.cls-1{fill:url(#linear-gradient);}.cls-2{fill:none;}.cls-3{fill:#d8f9ff;}.cls-11,.cls-4{fill:#fff;}.cls-5{fill:#c100ff;opacity:0.06;}.cls-11,.cls-5,.cls-6,.cls-8{isolation:isolate;}.cls-6{opacity:0.05;}.cls-7{fill:url(#linear-gradient-2);}.cls-8{fill:#bef1ff;opacity:0.66;}.cls-9{fill:#bdf4ff;}.cls-10{fill:#d5f8ff;}.cls-11{opacity:0.75;}.cls-12{fill:url(#linear-gradient-3);}</style><linearGradient id="linear-gradient" x1="-5370.28" y1="20289.13" x2="-5370.28" y2="18754.24" gradientTransform="matrix(1.19, 0, 0, -0.66, 8425.84, 13553.43)" gradientUnits="userSpaceOnUse"><stop offset="0" stop-color="#1bd1ff"/><stop offset="1" stop-color="#d5f6ff"/></linearGradient><linearGradient id="linear-gradient-2" x1="-12376.86" y1="1102.68" x2="-12376.86" y2="497.23" gradientTransform="matrix(0.7, 0, 0, -0.7, 9672.89, 1298.48)" gradientUnits="userSpaceOnUse"><stop offset="0" stop-color="#8ce8ff"/><stop offset="1" stop-color="#d5f6ff"/></linearGradient><linearGradient id="linear-gradient-3" x1="-12376.86" y1="1102.68" x2="-12376.86" y2="497.23" gradientTransform="matrix(0.7, 0, 0, -0.7, 11718.9, 1298.48)" xlink:href="#linear-gradient-2"/></defs><g id="Layer_2" data-name="Layer 2"><g id="svg23489"><polygon id="rect14024" class="cls-1" points="0 0 4094 0 4094 0 4094 1536 4094 1536 0 1536 0 1536 0 0 0 0"/><polygon class="cls-2" points="0 0 2825.91 0 2825.91 0 2825.91 1536 2825.91 1536 0 1536 0 1536 0 0 0 0"/><g id="g13978"><path id="path13980" class="cls-3" d="M0,109.22v56.09c688.28,107.64,1020.74-92.88,2048,0V109.22c-650.6-90.84-885.51,144.48-2048,0Z"/><path id="path13982" class="cls-4" d="M1742.56,87.7C1289.25,88.05,962.68,228.88,0,109.23v10.09c1162.48,144.48,1397.4-90.84,2048,0V109.23C1936.18,93.62,1836.65,87.62,1742.56,87.7Z"/><path id="path13984" class="cls-5" d="M1621.45,129.39c-48.22-2.69-205.54,5.08-254.54,12.46,192.15-5,412.94-.77,681.09,23.47V151.17c-208.66-18.87-266.42-22.08-426.55-21.78ZM0,151.17v14.15C258.8,205.79,467.28,202.69,681.31,188,453.62,190.59,196.83,181.15,0,151.17Z"/></g><g id="g13970"><path id="path13972" class="cls-3" d="M0,416.07v48.49c192.94-98,361.73-161.26,541.54-179.45,270.72-22.22,463.62,50.2,958.6,224,298.65,104,517.86-28.79,547.86-44.5V416.07c-54.28,32.85-274,168.05-532.95,79.85C971.58,283.78,672.37,240.32,524.39,256.73,403.17,268.85,159.41,331.32,0,416.07Z"/><path id="path13974" class="cls-4" d="M587.16,253.6a562.86,562.86,0,0,0-62.75,3.12C403.19,268.85,159.41,331.32,0,416.07v10.09c159.41-84.75,403.19-147.22,524.41-159.34,227-14.71,364.19,44.54,542.4,76.5,4.21.3,8.76.87,13.54,1.62-228.19-67.36-386.93-91.19-493.19-91.34Zm623,132c39.77,15.69,82.53,34.2,124.4,52.87Q1420,469,1515,506c258.9,88.2,478.68-47,533-79.84V416.07c-54.29,32.85-274.07,168-533,79.84-111.67-43.59-213-80-304.87-110.31Z"/><path id="path13976" class="cls-6" d="M528.81,276.38C353.75,296.21,188.38,358.77,0,454.44v10.13c192.94-98,361.73-161.29,541.53-179.47,16.1-1.32,31.91-2.32,47.53-3q-28.72-3.31-60.25-5.75ZM2048,454.44c-30,15.72-249.22,148.52-547.87,44.5-32.24-11.31-62.82-22.07-92.6-32.53-17.19-2.55-35.58-5.62-54.84-9.09,46.25,16.19,94.81,33.27,147.44,51.75,298.65,104,517.87-28.79,547.87-44.5V454.44Z"/></g><g id="g13924"><path id="path13926" class="cls-7" d="M1744.53,272.84c-15.56,0-28.34,10.68-29.81,24.33a13.18,13.18,0,0,0-3.15-.37c-8.27,0-15,7.59-15,17s6.71,17,15,17a13.54,13.54,0,0,0,3.26-.41,39.86,39.86,0,0,0-.27,4.41v.41a14.56,14.56,0,0,0-8-2.4c-8.82,0-16,8.05-16,18,0,9.23,6.19,16.82,14.15,17.85a19.15,19.15,0,0,0-4.17,12.09c0,9.93,7.16,18,16,18h.07c.93,12.29,10.37,22,21.88,22,9.09,0,16.91-6,20.24-14.63a21.81,21.81,0,0,0,20.79,6,41,41,0,0,0-.24,30.59,37.73,37.73,0,0,0-21.48,7.45,12,12,0,0,0-8.32-3.49c-7.17,0-13,6.71-13,15a15.48,15.48,0,0,0,6.47,12.92,37.55,37.55,0,0,0-.48,6c0,.82,0,1.64.08,2.45a30.67,30.67,0,0,0-20,13.78,26.81,26.81,0,0,0-3.69,4.3,30.9,30.9,0,0,0-11.07-7.71,38.75,38.75,0,0,0-49.75-47,29.54,29.54,0,1,0-42.78,38.24,46.62,46.62,0,0,0-7.75,16.33,20.38,20.38,0,0,0-20.28,34.66,19.68,19.68,0,0,0-9.2,17.08,19.9,19.9,0,0,0,1.09,6.11,18,18,0,0,0-4.73,2.45,11.78,11.78,0,0,0-9.4-4.35,11.66,11.66,0,0,0-5.8,1.66,17,17,0,0,0-26.86,3,22.16,22.16,0,0,0-7.34,1.86,16.9,16.9,0,0,0-9.74-2.86,27.06,27.06,0,0,0,.22-3.39,26,26,0,0,0-26-26,26.25,26.25,0,0,0-3.08.18A22.27,22.27,0,1,0,1445.05,519a34.4,34.4,0,0,0-42.72,33.37c0,1,.06,1.9.14,2.84a31,31,0,0,0-8.13-1.07,30.33,30.33,0,0,0-13.47,3.1c-2.56-10-9.75-17.71-18.69-19.7,0-.38,0-.74,0-1.13,0-8.78-4.65-16.26-11.16-19.13a5.26,5.26,0,0,0-3.28-1.27,4.42,4.42,0,0,0-1,.11,15.09,15.09,0,0,0-1.66-.11c-7.47,0-13.83,5.75-16.14,13.74a25.26,25.26,0,0,0-5.5-.59,25.73,25.73,0,0,0-6.16.74c-1.54-11.6-9.95-20.44-20.09-20.44-7.41,0-13.89,4.73-17.44,11.81a30.17,30.17,0,0,0-26.47-15.76,60.74,60.74,0,0,0,1.29-12.49c0-27.95-18.81-50.62-42-50.62a36.27,36.27,0,0,0-19.67,5.91c-.26-12-7.51-21.68-16.4-21.68v0c-5.67,0-10.68,3.91-13.63,9.87a27.58,27.58,0,0,0-15.24-4.63c-16.3,0-29.52,14.43-29.52,32.21a34.17,34.17,0,0,0,4.41,16.93,28.85,28.85,0,0,0-3,11.35l-.7,0a21.48,21.48,0,0,0-18.08,10.05,38.09,38.09,0,0,0-45.33,61c-29.42,37.79,19.45,59.07,19.45,59.07s-1.3,1.31-19.67,13.15c-8.42,5.42-11.89,10.29-13.17,14-.45-14.4-5.8-26.71-13.41-32.6a43.26,43.26,0,0,0,10.83-28.7c0-16.57-9.52-26.62-23.3-33.65a41.49,41.49,0,0,0-30.33-46.31,33.4,33.4,0,1,0-51.58,35.22,42.28,42.28,0,0,0-.26,5.65,41.27,41.27,0,0,0,2.23,12.65,40.11,40.11,0,0,0-31.6,56.64,42.67,42.67,0,0,0-53.44-.41c-.48-.77-1-1.52-1.48-2.25A42,42,0,0,0,770.27,589a28.75,28.75,0,0,0-6.46,2c-2.75-9-8.07-15.55-14.32-17.19a27.73,27.73,0,0,0-6.4-26.77A32.22,32.22,0,0,0,739,503.2a55.12,55.12,0,0,0-102.3-39.9A32.84,32.84,0,0,0,593,495c0,.93.06,1.82.16,2.73l-.88.28a44,44,0,1,0-80.93,33.92,26.85,26.85,0,0,0-6.09,12.9,54.95,54.95,0,0,0-30.92,4.48,56.39,56.39,0,0,0-10.53-19.7,29.86,29.86,0,0,0,2.34-12.33c-.26-12.84-8.39-23.45-19.17-26.32a28.12,28.12,0,0,0-20.4-4,18.44,18.44,0,0,0,.17-2.48,18,18,0,0,0-30.07-13.28c.08-.89.11-1.78.11-2.69,0-14.33-9.81-26-21.94-26-7,0-13.28,3.93-17.3,10a25.42,25.42,0,0,0-13.65-4c-14.88,0-27,12.95-27,28.94a30.27,30.27,0,0,0,5.25,17.14c-9.72,1.14-17.21,8.24-17.21,16.81,0,9.38,8.93,17,20,17a23,23,0,0,0,4-.35c3.11,8.49,9.53,14.33,16.94,14.33,5.46,0,10.38-3.18,13.85-8.23a35.06,35.06,0,0,0,4.12.24c1,0,2.05,0,3.06-.14.58.84,1.21,1.64,1.86,2.41a56,56,0,0,0,.32,57.89c-10.72,1.49-19.83,9.28-24.61,20.18-4.34-5.12-11.48-8.48-19.56-8.48a26.93,26.93,0,0,0-15.09,4.46,26,26,0,1,0-44.16,24.87,28.07,28.07,0,0,0-6.57,16.6h-.07A31.76,31.76,0,0,0,240,658.49c-10-15-24.15-24.29-39.83-24.29-30.33,0-54.92,34.87-54.92,77.88,0,.49,0,1,0,1.46a25.88,25.88,0,0,0-5.46,6.46c-2.31-1.13-4.68-2.19-7.14-3.21,0,0,0-.1-.07-.15a79.87,79.87,0,0,0,1.16-13.54c0-26.52-12.8-49.07-30.64-57.43a40.78,40.78,0,0,0,.68-7.47A39.16,39.16,0,0,0,91.18,609c11.33-9.86,18.62-25.31,18.62-42.68,0-29.77-21.44-53.91-47.91-53.91A43.4,43.4,0,0,0,40.71,518a24,24,0,0,0,1.22-7.56,24.25,24.25,0,0,0-.24-3.21A25.12,25.12,0,0,0,53.9,485.47c0-13.78-10.72-25-24-25A23.12,23.12,0,0,0,19,463.26c-2.3-7.41-8.61-12.73-16-12.73a14.89,14.89,0,0,0-3,.31V1201.9c64.84-3.66,114.16-8.61,139.87-14.3,60.51,10.42,145.66,16.92,240,16.92,120.92-1.11,178.66-.81,243.39-10.74,35.49,3.89,86.91,3.53,137.73,1.18,74.06,25.8,233.77,16.15,308.65,12.33,19.69-1,46.93-4.55,76.61-9.3,61.58,13.34,162.44,23.23,281.61,26.92,33.39,1,68.21,1.58,104,1.58,129,0,245.31-7.11,327.39-18.48,70.53-.92,135-3.07,188.74-6.11V450.84c-7.26,1.44-12.92,8-13.85,16.27a30.66,30.66,0,0,0-6.11-.62c-15.44,0-28,11.18-28,25a23.92,23.92,0,0,0,10.11,19.22c-11.72,6.72-19.6,18.25-20.07,31.45a31,31,0,0,0-30.27-3.21c.19-2.15.29-4.31.29-6.51A72.74,72.74,0,0,0,1940,481.91a21.62,21.62,0,0,0,2.16-9.41c0-12.22-10.28-22.31-23.58-23.78a32.88,32.88,0,0,0,1.62-10.18c0-17.64-13.86-31.92-31-31.92a30,30,0,0,0-13.14,3c.11-1.33.17-2.68.17-4a46.62,46.62,0,0,0-3.91-18.73,46.91,46.91,0,0,0-60.66-71.56,21.94,21.94,0,0,0-38.3-8.41,24.77,24.77,0,0,0,1-7.12c0-14.89-13.39-27-29.93-27ZM2004,571.77a42.28,42.28,0,0,0,5.59,4,35.31,35.31,0,0,0-3.24,6.44c-1.94.62-3.86,1.33-5.74,2.09A33.42,33.42,0,0,0,2004,571.77Zm-505,9.52a17.08,17.08,0,0,0,1.8,4.63c-.37.15-.72.32-1.07.48a39.21,39.21,0,0,0-4.26-4A25,25,0,0,0,1499,581.29Zm-457,75a3.09,3.09,0,0,0,.17.37l-.24.48c0-.29.05-.57.07-.85Z"/><path id="path13928" class="cls-8" d="M1744.53,272.84c-15.55,0-28.35,10.68-29.82,24.33a13.48,13.48,0,0,0-3.13-.38c-8.27,0-15,7.61-15,17s6.72,17,15,17a13,13,0,0,0,3.25-.42,42.79,42.79,0,0,0-.27,4.41v.42a14.49,14.49,0,0,0-8-2.41c-8.82,0-16,8.06-16,18,0,8.36,5.07,15.37,11.94,17.38-10-24.83,10.14-27.49,12.88-26.8s11.31,9.17,11.31,9.17-4.25-10.58-3.54-17.64,5.67-15.53,5.67-15.53-9.21,9.18-17.68,2.82-3.51-14.82.73-17.64,15.52,2.82,15.52,2.82-5.65-21.89,17.65-24.71,24.7,19.07,21.17,27.54-6.35,14.1-6.35,14.1,15.53-9.87,32.47-10.58,15.53,17,15.53,17,28.95-19.06,60-2.12c20.26,11,18,34.1,14,48.8a46.91,46.91,0,0,0-70.17-60,21.92,21.92,0,0,0-38.29-8.4,24.44,24.44,0,0,0,1-7.12c0-14.88-13.4-27-29.94-27ZM1851,376.59s13.41,8.49,15.53,22.61-4.23,33.86-4.23,33.86,10.58-19.77,34.58-14.83,9.88,28.25,9.88,28.25l-17.65,5.65s27.52,4.23,39.52,10.58,2.84,17,2.84,17L1909.58,474s21.15,9.17,33.86,35.29,1.43,50.83,1.43,50.83,11.3-18.37,29.65-14.13,24.69,15.54,24.69,15.54-1.41-24,8.48-35.29,20.46-11.3,20.46-11.3-17.64-14.82-12-30.35,24.69-8.47,24.69-8.47-2.12-4.94,2.82-14.83c.52-1,2.06-1.89,4.33-2.58v-7.88c-7.25,1.44-12.92,8-13.85,16.27a30.66,30.66,0,0,0-6.11-.62c-15.44,0-28,11.18-28,25a23.92,23.92,0,0,0,10.12,19.22c-11.73,6.73-19.61,18.25-20.09,31.45a31,31,0,0,0-30.26-3.2q.29-3.23.28-6.52A72.71,72.71,0,0,0,1940,481.92a21.67,21.67,0,0,0,2.17-9.42c0-12.22-10.29-22.31-23.58-23.78a32.81,32.81,0,0,0,1.61-10.17c0-17.64-13.86-31.94-31-31.94a29.89,29.89,0,0,0-13.13,3.05c.11-1.33.16-2.68.16-4.05a46.88,46.88,0,0,0-3.91-18.74l.23-.19-.46-.2L1851,376.59ZM1799.44,390s-11.64,11.65-20.68,22.16l.8-.17a41,41,0,0,0-.25,30.6,37.68,37.68,0,0,0-21.48,7.45,11.93,11.93,0,0,0-8.32-3.49c-7.17,0-13,6.71-13,15a15.47,15.47,0,0,0,6.45,12.92,38.64,38.64,0,0,0-.48,6c0,.82,0,1.64.1,2.44a30.65,30.65,0,0,0-20,13.78,27,27,0,0,0-3.7,4.32,30.75,30.75,0,0,0-11.08-7.72,38.76,38.76,0,0,0-49.73-47.05,29.8,29.8,0,0,0-2.06-3.33s0,0-.07-.06v0c-.31-.45-.65-.89-1-1.31-.08-.1-.17-.19-.25-.28s0-.06,0-.07c-.4-.49-.84-1-1.27-1.43s-.89-.89-1.35-1.32l-.08-.09-.13-.11c-.39-.36-.79-.7-1.2-1l-.2-.17-.18-.13c-.33-.26-.65-.51-1-.76l-.42-.32-.35-.23c-.44-.3-.9-.57-1.36-.84l-.15-.1c-.52-.31-1-.62-1.59-.9-.3-.15-.62-.29-.93-.43l-.91-.41a.35.35,0,0,0-.13,0c-.41-.18-.83-.35-1.25-.5s-1-.34-1.5-.5l-.19-.07-.64-.16c-.11,0-.2-.08-.3-.1l-.85-.22-.4-.08-1.16-.22-.2-.05-.28,0c-.34-.05-.68-.12-1-.16l-.23,0a2.4,2.4,0,0,0-.28,0l-.53,0c-.44,0-.89-.07-1.33-.09h-.38c-.5,0-1,0-1.51,0s-.88,0-1.31.05l-1.24.11-.63.07-1.29.2c-.43.07-.85.14-1.27.23l-.19,0-.44.1c-.35.09-.72.17-1.07.27s-.53.18-.8.26l-.51.15-1.21.43a29.62,29.62,0,0,0-6.11,52,46.43,46.43,0,0,0-7.74,16.33,20.12,20.12,0,0,0-7.58-1.29,20.39,20.39,0,0,0-12.7,35.95,19.72,19.72,0,0,0-8.11,23.19,18.22,18.22,0,0,0-4.75,2.43,11.81,11.81,0,0,0-15.19-2.68,17,17,0,0,0-26.86,3,22.33,22.33,0,0,0-7.33,1.84,17,17,0,0,0-9.76-2.85,25.25,25.25,0,0,0,.24-3.38,26.08,26.08,0,0,0-29.06-25.84A22.27,22.27,0,1,0,1445.05,519a34.36,34.36,0,0,0-42.71,33.37c0,1,.06,1.9.13,2.84a30.9,30.9,0,0,0-8.12-1.08,30.37,30.37,0,0,0-13.48,3.1c-2.56-10-9.75-17.7-18.69-19.69,0-.38,0-.75,0-1.14,0-8.77-4.63-16.25-11.14-19.12a5.29,5.29,0,0,0-3.29-1.28,4.43,4.43,0,0,0-1,.12,13,13,0,0,0-1.66-.12c-7.47,0-13.83,5.76-16.13,13.75a26.06,26.06,0,0,0-5.51-.6,25.58,25.58,0,0,0-6.15.75c-1.55-11.6-10-20.45-20.1-20.45-7.41,0-13.89,4.74-17.45,11.82a30.15,30.15,0,0,0-26.47-15.77,59.89,59.89,0,0,0,1.3-12.48c0-27.95-18.81-50.63-42-50.63a36.24,36.24,0,0,0-19.69,5.92c-.26-12-7.49-21.68-16.38-21.68v0c-5.67,0-10.69,3.9-13.63,9.86a27.58,27.58,0,0,0-15.24-4.62c-16.31,0-29.52,14.42-29.52,32.2a34.3,34.3,0,0,0,4.39,16.94,28.7,28.7,0,0,0-3,11.34l-.7,0a21.52,21.52,0,0,0-18.08,10.05,38.1,38.1,0,0,0-45.34,61c-29.41,37.8,19.47,59.08,19.47,59.08s-1.32,1.32-19.68,13.15c-6.88,4.43-10.45,8.48-12.22,11.82l0,0-.25.52-.12.25c-.07.15-.15.3-.21.45s-.25.6-.35.89c0-1-.07-1.94-.15-2.88,0-.38-.06-.74-.1-1.12-1.22-12.66-6.25-23.26-13.15-28.6a43.3,43.3,0,0,0,10.83-28.71c0-16.57-9.53-26.62-23.3-33.65a41.5,41.5,0,0,0-30.33-46.32,33.41,33.41,0,1,0-51.58,35.23,42.2,42.2,0,0,0-.26,5.65,41.39,41.39,0,0,0,2.22,12.66,40.08,40.08,0,0,0-31.59,56.63,42.67,42.67,0,0,0-53.44-.41c-.48-.78-1-1.52-1.49-2.24a42,42,0,0,0-79.42-26.82,28.15,28.15,0,0,0-6.47,1.94c-2.75-9-8.07-15.54-14.33-17.18.11-.38.24-.77.33-1.16-3.87,2.74-10.41,6.84-14,9.09a13.15,13.15,0,0,1,15.44,2.07c9,8,8,11,8,11l-1.51,10,6-9.48,8-1.5.72,4.65c0-11.77,6.09-27.7,41.71-21.63,43.92,7.49,23.45,62.9,23.45,62.9s8.49-21.46,39.43-20.46,46.44,21.94,46.44,21.94-27.47-40.42-7-59.39,50.41-7.48,50.41-7.48l-24-11.47a36.36,36.36,0,0,1-1-14c1-7.49,2-5.51,2-5.51l14,6.52s-43.43-27-23.72-44.69c28.36-25.49,44.68,4.24,44.68,4.24l-16,10s28.47-10.47,40.94,9l7,25-17,1s28.46,3.88,36.45,24c8.77,22.05-5.47,32.46-5.47,32.46l-14.42,3c5.27.34,12.52,3.94,18.38,18.46,10.48,25.95,6,41.42,6,41.42s.84-2.5,1.89-5.75c-.11.78-.25,1.66-.25,1.66,10.59-20.47,54.37-40.25,54.37-40.25L1107,623a48.09,48.09,0,0,1-40.22-21.88c-15.53-23.29-2.85-31.06-2.85-31.06l19.78,3.55s-38.13-22.61-22.6-50.85,36-12,36-12l-3.53,19.77s9.17-22.59,21.17-26.12,15.53-1.41,15.53-1.41-5.64-7.76-.7-14.11,7-7.05,7-7.05l10.94,5.24c-8.74-4.91-22-15.35-13.06-30.66,12.7-21.88,28.24-11.3,28.24-11.3s3.53-7.07,14.82-9.18,9.18,17.66,9.18,17.66l-12.51,12.5c2-1.76,18.78-15.64,49.22-9.68,32.47,6.35,18.34,51.52,18.34,51.52l-28.24,16.94s26.13-12.7,46.6-7.05,16.95,19.75,16.95,19.75,5.63-17.63,21.16-19.75S1311,531.92,1311,531.92l-15.73,10.86c5-3.21,16.26-9.28,26.32-6.63,13.41,3.53,13.4,4.23,13.4,4.23s-2.12-10.6,11.3-13.42,4.24,16.93,4.24,16.93,5.65-2.11,14.83,4.94,7.78,12.71,7.78,12.71l-9.18,17.64s8.46-15.52,28.93-15.52,39.53,9.9,39.53,9.9l-18.34-13.42s-6.36-16.94,13.4-24.71,23.3-4.94,23.3-4.94-2.82-15.54,17.65-16.25,11.29,18.37,11.29,18.37l-17.64,9.87s21.17-11.28,36.7.72,9.17,20.46,9.17,20.46l-14.83,7.78s16.24-7.06,24.71-3.53,9.88,5.65,9.88,5.65a60.32,60.32,0,0,1,9.18-4.24,23.63,23.63,0,0,1,10.59-1.41s4.94-4.25,7.76-4.25,4.24,2.83,9.89,2.12,10.58,8.48,10.58,8.48,5-3.54,7.78-5.66,9.17-4.21,9.17-4.21-4.94-14.14-1.41-19.78a7.71,7.71,0,0,1,9.17-3.52s-19.78-14.83-4.25-28.24c11.89-10.27,20.46-4,23.83-.5-1.86-2.7-4.2-8,.17-14.33,6.35-9.18,12-9.9,12-9.9s-32.47-14.8-12.71-36.68c8.88-15,22.6-12.9,34.6,3.51,0,0,18.36-2.11,34.59,7.07s11.28,27.53,11.28,27.53l-20.45,12a31.64,31.64,0,0,1,26.11,1.41c14.11,7.06,19.76,23.3,19.76,23.3l-5.65-21.19s7.06-12,21.18-13.4,21.19-.7,21.19-.7l-14.13-7.1s-2.82-6.33,1.41-9.86-9.88-12-4.23-15.53,14.11-2.12,14.11-2.12,8.48-8.46,21.18-7.05a62.35,62.35,0,0,1,17.78,5c-5.63-3.21-13.55-9-13.55-16.29,0-11.29-2.11-19,4.25-27.51s10.58-20.5,10.58-20.5Zm-1.28,64.3a54.64,54.64,0,0,0,5.53,2.77A53.12,53.12,0,0,0,1798.16,454.29Zm-502.92,88.49c-1.67,1.07-2.62,1.81-2.62,1.81Zm-284.88,71a13.09,13.09,0,0,0-7.06,1.49Zm-238-15.32a39.12,39.12,0,0,0,1.78,11.31Zm-86-165.81-1.43,0a55.08,55.08,0,0,0-48.26,30.66A32.81,32.81,0,0,0,593,495c0,.93.06,1.84.15,2.74l-.86.28a44,44,0,1,0-80.93,33.92,26.86,26.86,0,0,0-6.1,12.9,54.95,54.95,0,0,0-30.92,4.48c-.32-1.09-.68-2.18-1.07-3.24-24.91,18.13-29.87,39.47-29.87,39.47s17.63-26.13,42.34-30.36S538,573.54,538,573.54l-24.71-24.72,7.06-10.57,16.24,9.17s-41.64-39.54.71-64.24,61.39,43.07,61.39,43.07-2.1-42.36,21.2-50.12,15.52-4.94,15.52-4.94l4.23,31.06s-8.45-60.71,53.66-50.83c58.16,17.28,29.79,63.24,28.3,64.92L736,513.08s10.24,11,9.54,21.64l-.63,9.67A32.18,32.18,0,0,0,739,503.21a55.3,55.3,0,0,0-52.62-70.58Zm35.24,83.72h-.07C721.52,516.42,721.56,516.41,721.62,516.35Zm-346.74-73.8c-7,0-13.28,3.92-17.3,10a25.33,25.33,0,0,0-13.64-4c-14.89,0-27,12.93-27,28.92a30.38,30.38,0,0,0,5.24,17.15c-9.72,1.14-17.2,8.24-17.2,16.82a14.45,14.45,0,0,0,.87,5c8.51-16.4,30.26-17,30.26-17s-16.23-19.07-4.23-35.31S360.16,462,360.16,462s1.39-9.88,19-7.76,12,27.54,12,27.54,8.47-9.18,19.77-5.65,7,12,7,12a48.63,48.63,0,0,0-14.83,8.47c-6.35,5.65-4.94,5-4.94,5,33.18-12,45.19-7.07,56.48,7.05s-10.59,45.18-10.59,45.18l18.36-19.06s6.58,5.81,10.28,10a56.72,56.72,0,0,0-8.93-15.08,29.72,29.72,0,0,0,2.34-12.34c-.26-12.83-8.39-23.45-19.17-26.31a28.12,28.12,0,0,0-20.4-4,17.07,17.07,0,0,0,.17-2.49,18,18,0,0,0-30.07-13.28c.08-.89.12-1.78.12-2.69,0-14.33-9.83-25.95-22-25.95ZM3,450.54a15.65,15.65,0,0,0-3,.3v13c9.7-.33,12.49,6.63,12.49,6.63l3,8s1-9,16-6,7,28,7,28l-17-13s10,12,11,32.95a127.66,127.66,0,0,1-4,37.93l18-29s26-11,44.93,19-10,53.91-10,53.91l-32-10s27,10,37.94,31-8,54.89-8,54.89l21-21s16,12,21,29.93,1,22,1,22l-41.6,15.14c14.53-4.56,37.72-9.56,52.58-1.16,23,13,27.95,24,27.95,24s-17-54.91,15-80.86,53.91,1,53.91,1l-5,37.93s4-28.94,24-33.93a98.06,98.06,0,0,1,36.92-2l-18-10s-3-8,5-18,15-14,15-14l-16,3s-10-12,6-24,23,8,23,8l-8,9s16-14,40.92-7c20.27,5.68,30,27.82,32.95,35.92l-12-35.92s7-13,16-13,11,5,11,5l25.94,7s-25.95-19-31.94-35.94-1-37.94,4-42.93,8-14,2-12c-3.07,1-8.49,6.21-13.58,11.59.17.21.33.45.51.66a56.06,56.06,0,0,0,.33,57.9c-10.72,1.48-19.83,9.26-24.61,20.16-4.34-5.11-11.48-8.47-19.57-8.47a27,27,0,0,0-15.09,4.46,26,26,0,1,0-44.14,24.87,28.08,28.08,0,0,0-6.59,16.6h-.06A31.74,31.74,0,0,0,240,658.49c-10-15-24.15-24.28-39.83-24.28-30.33,0-54.93,34.87-54.93,77.88,0,.49,0,1,0,1.45a26.28,26.28,0,0,0-5.45,6.47q-3.47-1.69-7.15-3.21s0-.1-.07-.15a80,80,0,0,0,1.16-13.55c0-26.52-12.8-49.08-30.64-57.43a41.68,41.68,0,0,0,.68-7.47A39.22,39.22,0,0,0,91.18,609c11.33-9.86,18.62-25.3,18.62-42.67,0-29.77-21.45-53.92-47.91-53.92A43.41,43.41,0,0,0,40.71,518a24,24,0,0,0,1.21-7.57,24.22,24.22,0,0,0-.23-3.2A25.13,25.13,0,0,0,53.9,485.47c0-13.79-10.72-25-23.95-25A23.13,23.13,0,0,0,19,463.26c-2.31-7.41-8.6-12.72-16-12.72ZM80.71,724.22c-7.91,2.49-13.29,4.83-13.29,4.83ZM1147.56,487a53.72,53.72,0,0,0,6.7,3.21ZM1620,512.38a12.31,12.31,0,0,0,1.56,1.86A16.9,16.9,0,0,0,1620,512.38ZM735.73,581.77a14.89,14.89,0,0,0-2.47,1.54Zm306.17,74.54a1.46,1.46,0,0,0,.19.37l-.25.48Z"/></g><g id="g13930"><g id="g13932"><g id="g13934"><path id="path13936" class="cls-9" d="M1724.38,900.08a34.86,34.86,0,0,0-18.82,29.18,48.66,48.66,0,1,0,50.14,56.84,36,36,0,1,0,18-65.38,35.5,35.5,0,0,0-2.31-5.65A34.85,34.85,0,0,0,1724.38,900.08Z"/><path id="path13938" class="cls-4" d="M1724.38,900.08a34.86,34.86,0,0,0-18.82,29.18,48.63,48.63,0,1,0,28.93,89.28c-11.22,1-59.54,2.55-61.55-38.34-1.72-35.24,40.73-42.41,40.73-42.41s-9.78-31.66,25.56-32.3c23.32-.42,24.44,15.36,25.47,22.06,7.92-5.1,22.89-7.28,39.56,14.29a112.85,112.85,0,0,0,7.73,9.06,36.06,36.06,0,0,0-38.34-30.18,35.5,35.5,0,0,0-2.31-5.65A34.85,34.85,0,0,0,1724.38,900.08Z"/></g><g id="g13940"><path id="path13942" class="cls-9" d="M908.88,756.77a38.41,38.41,0,0,0-33.18,19.06,53.63,53.63,0,1,0,20.37,81,39.7,39.7,0,1,0,50.62-55,37.86,37.86,0,0,0,.6-6.7A38.4,38.4,0,0,0,908.88,756.77Z"/><path id="path13944" class="cls-4" d="M908.88,756.77a38.41,38.41,0,0,0-33.18,19.06,53.63,53.63,0,1,0-22.44,102.34,55.51,55.51,0,0,0,5.65-.29c-11.49-4.7-59.6-27.6-40.9-68.65,16.12-35.38,61.32-21,61.32-21s6.43-35.95,41.36-18.71c23,11.37,16.17,27.4,13.79,34.48,10.34-1,26.1,4.44,31.52,34a125.94,125.94,0,0,0,3,12.78,39.72,39.72,0,0,0-22.29-48.94,37.86,37.86,0,0,0,.6-6.7A38.4,38.4,0,0,0,908.88,756.77Z"/></g><g id="g13946"><path id="path13948" class="cls-9" d="M656.19,827.7A38.42,38.42,0,0,0,623,846.76a53.63,53.63,0,1,0,20.37,81,39.7,39.7,0,1,0,50.63-55,38.83,38.83,0,0,0,.59-6.7A38.4,38.4,0,0,0,656.19,827.7Z"/><path id="path13950" class="cls-4" d="M656.19,827.7A38.42,38.42,0,0,0,623,846.76,53.63,53.63,0,1,0,600.57,949.1a55.51,55.51,0,0,0,5.65-.29c-11.49-4.7-59.6-27.6-40.89-68.65,16.12-35.38,61.31-20.95,61.31-20.95s6.44-36,41.37-18.71c23,11.37,16.16,27.4,13.78,34.48,10.34-1,26.1,4.44,31.52,34a125.74,125.74,0,0,0,3,12.78A39.76,39.76,0,0,0,694,872.81a38.83,38.83,0,0,0,.59-6.7A38.4,38.4,0,0,0,656.19,827.7Z"/></g><g id="g13952"><path id="path13954" class="cls-9" d="M1498.29,892.7a34.84,34.84,0,0,0-18.82,29.18,48.66,48.66,0,1,0,50.14,56.84,36,36,0,1,0,18-65.39,35.5,35.5,0,0,0-2.31-5.65A34.85,34.85,0,0,0,1498.29,892.7Z"/><path id="path13956" class="cls-4" d="M1498.29,892.7a34.84,34.84,0,0,0-18.82,29.18,48.66,48.66,0,1,0,24.5,91.85,47,47,0,0,0,4.43-2.58c-11.22,1-59.54,2.56-61.54-38.34-1.73-35.23,40.72-42.4,40.72-42.4s-9.77-31.67,25.56-32.31c23.32-.42,24.44,15.36,25.47,22.06,7.93-5.09,22.9-7.28,39.56,14.29a113.15,113.15,0,0,0,7.73,9.07,36.08,36.08,0,0,0-38.34-30.19,35.5,35.5,0,0,0-2.31-5.65A34.85,34.85,0,0,0,1498.29,892.7Z"/></g><g id="g13958"><path id="path13960" class="cls-10" d="M647.53,638.52a49,49,0,0,0-46.9,35.33,27.12,27.12,0,0,0-4.89-.43,28.14,28.14,0,0,0-4.91,55.78,54.89,54.89,0,0,0,10.46,48.52,33,33,0,0,0,14.59,62.44,32.2,32.2,0,0,0,10-1.6,24.78,24.78,0,0,0-.41,4.5A24.18,24.18,0,0,0,643,866.37a28.18,28.18,0,0,0-6,17.4,28.92,28.92,0,0,0,.42,4.87,31.82,31.82,0,0,0-31.12,32,32.24,32.24,0,0,0,1,8A54.14,54.14,0,0,0,579,917.89,31.05,31.05,0,0,0,550.67,875a30.73,30.73,0,0,0-28.33,19,53.3,53.3,0,0,0-44.8-1c.13-1.79.21-3.59.21-5.41a71.91,71.91,0,0,0-2.25-17.85,56.41,56.41,0,0,0-20.95-102.52,47.74,47.74,0,0,0,4-19.23c0-26.23-21.05-47.5-47-47.5s-47,21.27-47,47.5a48,48,0,0,0,2.32,14.9,76.85,76.85,0,0,0-18.63-2.3c-39.39,0-71.94,29.61-77,68-1.18-.08-2.38-.13-3.58-.13-27,0-48.9,22.12-48.9,49.43a49.25,49.25,0,0,0,43.56,49.16c-.88,1.39-1.72,2.82-2.48,4.3a56.62,56.62,0,0,0-48.14,34.78,48.35,48.35,0,0,0-16,3.14A68.05,68.05,0,0,0,158.1,924a31.07,31.07,0,0,0-21.87-52.78,30.31,30.31,0,0,0-11.73,2.34,44.73,44.73,0,0,0-2.35-10.72,40.81,40.81,0,0,0,.13-80.18,31.8,31.8,0,0,0,4.35-16.12c0-17.13-13.3-31-29.72-31s-29.76,13.9-29.76,31a32.2,32.2,0,0,0,.88,7.34A25,25,0,0,0,62,777a72.61,72.61,0,0,0-10.27-2.11,14.89,14.89,0,0,0,.1-1.64c0-10.18-9.88-18.42-22.07-18.42-11.42,0-20.79,7.23-21.93,16.51A46,46,0,0,0,0,765.66v337.48c132.87,5.81,316,9.43,519,9.43,245.38,0,462.61-5.25,595.85-13.31,37.48,7,94.41,11.37,158.18,11.37,51,0,97.55-2.85,133.35-7.54,37.68,1.11,78,1.73,119.93,1.73,81.28,0,156.47-2.27,218-6.09,32,1,68.47,1.66,107.59,2a635.44,635.44,0,0,0,89.57,6,650.84,650.84,0,0,0,80.21-4.76c8.3.4,17.5.78,26.26,1.16V765.66a51.12,51.12,0,0,0-25.9-6.94c-26,0-47,18.67-47,41.69a37.5,37.5,0,0,0,2.2,12.67,15.83,15.83,0,0,0,1.3,3.9,48.78,48.78,0,0,0-5.59.71,27.36,27.36,0,0,0-18.07-6.62c-11.69,0-21.57,7-24.79,16.52a23.1,23.1,0,0,0-14.35-4.9,23.67,23.67,0,0,0-8.31,1.51c-.23-.39-.45-.78-.69-1.16,8.46-6.75,13.78-16.55,13.78-27.48,0-.44,0-.87,0-1.31,12.27-3.43,21.13-13.26,21.13-24.87,0-14.45-13.75-26.17-30.71-26.17-12.56,0-23.34,6.45-28.09,15.66-1.17-.09-2.35-.15-3.55-.15a46,46,0,0,0-8.78.85,23.94,23.94,0,0,0-45.9,9.81,24.23,24.23,0,0,0,13.68,21.9c-.14,1.11-.21,2.25-.24,3.39a37.18,37.18,0,0,0-20.21,13c-6-7.46-14.48-12.12-23.94-12.12-18,0-32.62,16.93-32.62,37.81,0,.41,0,.82,0,1.23a29.29,29.29,0,0,0-3.88-.27c-18,0-32.61,16.07-32.61,35.88,0,16.14,9.71,29.78,23,34.28a28,28,0,0,0-.1,28.2,49,49,0,0,0-1,10.22,48.31,48.31,0,0,0,4,19.34,33.68,33.68,0,0,0-1.44,3.94c-.47,0-.93,0-1.4,0-15.43,0-28.62,10-33.94,24A43.62,43.62,0,0,0,1682.29,974a42.13,42.13,0,0,0-2.55-9.89c1,.08,2,.13,2.94.13,19.08,0,34.52-15.2,34.52-33.94s-15.44-33.91-34.52-33.91a34.8,34.8,0,0,0-21.08,7c-5.09-7.68-14.79-12.87-25.93-12.87-16.42,0-29.73,11.29-29.73,25.21a22.23,22.23,0,0,0,4.09,12.76c-16.22,3.65-28.84,15.74-32.08,30.92a51.89,51.89,0,0,0-10.4-1,48.07,48.07,0,0,0-28.34,8.82,25.77,25.77,0,0,0-43.39-7.86,63.09,63.09,0,0,0,1.06-11.62c0-1.67-.07-3.33-.19-5,7-4.92,11.38-11.73,11.38-19.28,0-9.15-6.42-17.25-16.23-22.16.21-.71.43-1.4.61-2.11a48.48,48.48,0,0,0,9.86,1c19.07,0,34.55-10.84,34.55-24.22a17.35,17.35,0,0,0-.72-4.93c15.41-1.16,27.57-14.56,27.57-30.93,0-17.13-13.32-31-29.74-31-15.6,0-28.38,12.52-29.63,28.45-3.8-4.3-10.17-7.13-17.38-7.13a25.31,25.31,0,0,0-12,2.95,68.22,68.22,0,0,0-13.85-10.87,23.89,23.89,0,0,0,.94-6.61c0-15.53-15-28.11-33.58-28.11a38.19,38.19,0,0,0-18.69,4.76,44.82,44.82,0,0,0-8.38-.88c-3.91-13.51-15.07-23.27-28.22-23.27a26.31,26.31,0,0,0-8.65,1.46,19.38,19.38,0,0,0-4.4-5.85c-1.59-11.54-11.19-20.7-23.38-22.44a23.08,23.08,0,0,0,.59-5.17c0-11.24-8.17-20.35-18.24-20.35-7.23,0-13.47,4.72-16.41,11.54a24.22,24.22,0,0,0-6.11-1.63c-2.12-7.88-11-13.8-21.59-13.8-12.19,0-22.07,7.83-22.07,17.47,0,4.7,2.36,9,6.18,12.09-3.79,4.62-6.18,11.39-6.18,18.92,0,9.56,3.84,17.88,9.51,22.15-5.79,5.68-9.51,14.5-9.51,24.39,0,12.91,6.34,24,15.36,28.64a29.85,29.85,0,0,0,3.26,13.1,27.17,27.17,0,0,0-9,20.29,27.5,27.5,0,0,0,1.59,9.26,38.85,38.85,0,0,0-16-3.45,39.4,39.4,0,0,0-37.49,27.76c-1-.31-2-.59-3.06-.85a59.21,59.21,0,0,0,3.14-19.16c0-21.85-11.7-40.78-28.8-50.09-.8-23.87-19-43-41.24-43a38.52,38.52,0,0,0-17.91,4.41,69.43,69.43,0,0,0-2.41-8.53,35.27,35.27,0,0,0-1.58-56.85,27.34,27.34,0,0,0,3.68-13.66c0-16.6-15-30.05-33.59-30.05-13.53,0-25.16,7.16-30.47,17.48l-1.17,0A32.42,32.42,0,0,0,1030.92,716a14,14,0,0,0-11.16-5.69c-7.37,0-13.44,6-14.28,13.68a39.82,39.82,0,0,0-29.7,62,59.67,59.67,0,0,0-4.74,19.7,69.79,69.79,0,0,0-38.28,46,33.34,33.34,0,0,0-49.54-7.58,70.44,70.44,0,0,0-7.67-6.33c13.08-5.38,22.39-19.19,22.39-35.4A39.21,39.21,0,0,0,885,772.85a40.25,40.25,0,0,0,11-27.69c0-22.49-18.46-40.71-41.24-40.71A41.51,41.51,0,0,0,848,705a25.84,25.84,0,0,0-47.59-11.81,25.76,25.76,0,0,0-20.42-10.08,26.21,26.21,0,0,0-7.43,51.24,49.33,49.33,0,0,0-1.21,10.81,48.8,48.8,0,0,0,.66,8,40.41,40.41,0,0,0-10.29,2.39,46.27,46.27,0,0,0-30.22-26.23A43.29,43.29,0,0,0,732.93,718a42.49,42.49,0,0,0-38-42.45,49.06,49.06,0,0,0-47.39-37h0Zm1288.79,212,.08.08-.33,1.24-.37,0c.22-.44.43-.89.62-1.35Z"/><path id="path13962" class="cls-11" d="M647.53,638.52a49,49,0,0,0-46.87,35.35,27.53,27.53,0,0,0-4.92-.44,28.14,28.14,0,0,0-4.91,55.79,55.11,55.11,0,0,0,10.49,48.51,33,33,0,0,0,14.58,62.44,32.25,32.25,0,0,0,10-1.61,24.81,24.81,0,0,0-.41,4.51A24.18,24.18,0,0,0,643,866.38a28.3,28.3,0,0,0-6,17.42,28.59,28.59,0,0,0,.44,4.85,31.82,31.82,0,0,0-31.12,32,32.65,32.65,0,0,0,1,8A54.09,54.09,0,0,0,579,917.92a31.3,31.3,0,0,0,2.34-11.85,30.65,30.65,0,0,0-59-12,53.21,53.21,0,0,0-44.83-1c.14-1.79.22-3.6.22-5.42a72,72,0,0,0-2.23-17.87,56.4,56.4,0,0,0-20.95-102.5,47.7,47.7,0,0,0,4-19.22c0-26.23-21-47.51-47-47.51s-47,21.28-47,47.51A47.72,47.72,0,0,0,366.91,763a77,77,0,0,0-18.65-2.27c-39.38,0-71.93,29.6-77,68-1.17-.08-2.39-.12-3.59-.12-27,0-48.89,22.12-48.89,49.42a49.25,49.25,0,0,0,43.57,49.15c-.88,1.39-1.72,2.84-2.49,4.31a56.66,56.66,0,0,0-48.13,34.78,48.51,48.51,0,0,0-16,3.12c-.08-.33-.16-.64-.25-1,0-.14-.09-.29-.13-.44-.13-.46-.24-.95-.38-1.41,0,0,0,0,0,0A68,68,0,0,0,158.11,924a31.06,31.06,0,0,0-21.86-52.77,30.41,30.41,0,0,0-11.75,2.33,44.88,44.88,0,0,0-2.33-10.74,40.81,40.81,0,0,0,.12-80.17,31.66,31.66,0,0,0,4.35-16.1c0-17.13-13.28-31-29.71-31s-29.77,13.9-29.77,31a32.27,32.27,0,0,0,.88,7.34A25.23,25.23,0,0,0,62,777a74.34,74.34,0,0,0-10.27-2.11c.05-.54.09-1.08.09-1.64,0-10.17-9.86-18.43-22-18.43-11.42,0-20.82,7.23-22,16.51A46.19,46.19,0,0,0,0,765.67v16.41c7.42,5.2,14,10.77,14,10.77s-3.18-16.11,8.5-24.69,20.2,3.23,20.2,8.6-2.15,5.38-2.15,5.38L24.63,795s13.81-6.46,29.74-6.46H76.68L96.87,795s-19.14-25.78-17-34.37,19.11-15,29.74-8.57-5.33,55.79-5.33,55.79l14.87-9.64s13.83,2.14,21.27,20.38-13.81,36.49-18,35.41-21.27-21.45-21.27-21.45,12.77,26.85,13.83,51.54,1.06,40.75,3.18,31.09,8.51-33.27,8.51-33.27,21.22-1.06,27.59,10.75-6.36,25.73-6.36,25.73l-28.7,11.85s32.94-6.45,46.75,17.17,18.05,62.25,18.05,62.25l7.5-27c19.35-4.38,37.14,12,37.14,12s-11.7-11.81-2.14-27.91,39.29-24.68,59.48-18.24,20.19,5.35,20.19,5.35l-32.92-18.24,4.25-10.74,23.38-11.81s-64.81,11.8-65.88-27.91,38.25-41.84,38.25-41.84l12.73,34.34s-11.66-63.33,29.77-88,83.89,1.07,83.89,1.07l-22.31-23.59s-8.48-52.61,36.14-52.61,28.66,35.4,24.41,53.65-8.51,34.37-8.51,34.37L453.76,781s22.33,4.29,28.7,33.27S469.7,855.1,469.7,855.1l-31.88-22.52S459.08,853,462.27,879.8c2.53,21.32-13,41.24-19.5,48.55,6.43-6.58,23.22-21.94,40.73-22.78,22.3-1.07,28.69-3.24,39.31,9.64,6.13,7.43,9.79,16.29,11.79,22.46-2.75-11.91-6-34.61,6.26-43.91,17-12.88,24.44-1.07,26.56,11.81s-3.18,15-3.18,15L541.9,931.87c6.29-2.61,21.83-6.44,45.71,4.82,31.87,15,42.47,38.66,42.47,38.66s-12.71-29-10.59-45.08,19.09-30.09,19.09-30.09l14.87,29s-9.53-35.42-4.22-48.3,21.24-9.64,21.24-9.64-20.2-6.46-27.63-19.34-2.11-19.31-2.11-19.31l13.79-14s-40.36,21.48-56.29-3.21,10.62-27.91,10.62-27.91l30.81,18.24s-34-35.43-37.18-55.82-1.07-19.31-1.07-19.31l17-4.29s-41.42-2.15-34-25.77,18.05-17.17,18.05-17.17l1.07,15s6.36-34.35,43.54-41.87,36.11,19.33,37.17,39.73,0,29,0,29L699.13,692s9.57-1.06,15.94,11.82,1.06,34.34-1.07,45.08,12.76-8.57,12.76-8.57,20.19,1.07,23.37,14c1.1,4.44,1.68,6.62,2,7.69l-26.43,29.86s26.55-29,48.86-23.62,39.31,7.53,39.31,7.53-27.6-11.8-28.66-20.39a91,91,0,0,1,0-18.24h17s-31.87-2.15-34-24.69,23.37-15,23.37-15l1,16.1s18.06-18.24,34-19.31,11.69,33.26,11.69,33.26,2.13-11.82,27.63-6.45,22.3,20.42,19.12,31.15-4.26,12.85-4.26,12.85l-28.66-7.49s21.22,25.73,31.85,41.83-14.87,33.3-14.87,33.3l-25,.66c9.11.71,20.68,4.29,28.2,17.58,12.75,22.54,20.19,34.34,20.19,34.34L886.1,854s8.49-9.65,25.48-3.21,21.24,15,21.24,15l4.25,35.44s3.18-37.59,29.74-63.36c20.84-20.21,38.36-24.54,45-25.48l-31.12,3,7.43-23.63,12.76,5.39s-26.57-27.91-12.76-45.08,18-15,18-15v19.32s7.43-31.13,13.8-30.06a63.38,63.38,0,0,0,9.58,1.07l-4.26,24.7s8.5-25.79,22.31-30.08a34.82,34.82,0,0,1,24.41,1.07l-11.65-9.64s21.22-17.17,39.28-17.17,9.58,29,9.58,29h-15.94s15.93,5.4,26.55,26.87-5.32,25.74-5.32,25.74L1099,765.7c4.11,4.07,10.57,13.16,13.36,31.47,4.25,27.91,3.18,46.15,3.18,46.15l9.58-39.72s14.85-3.24,35,6.42,4.25,52.61,4.25,52.61l19.12-17.17s8.49,9.67,13.8,29-13.8,63.32-13.8,63.32l24.42-20.39,6.39,1,12.73,16.13s-11.66-21.47,3.21-39.72c4.47-5.48,10.54-7.28,16.76-7.18,49.66,9,49.2,52.41,36.1,68.51-3.4,4.19-6,7.32-8,9.74a22.81,22.81,0,0,0-2.42-2.14c-12.6-9.79-23.63,1.79-23.63,1.79,10-1.44,16.9,1.28,21.77,5.55-1.86,2.19-2.14,2.45-2.14,2.45a28,28,0,0,0,3.3-1.38c9,8.91,10,23.18,10,23.18s3.4-15.27-4.44-26.46c7.45-5.14,17.35-15.28,20.32-34.18,35.61-2.62,48.46,25.51,44,43.82,0,0,10.87-27.93-10-45.8,6-10.62,14.69-16.71,35.78-18.81,0,0-26.28-11.07-47.16,11.69a81.67,81.67,0,0,0-22.11-6.05c-1.89-18.66-15.91-32.85-28.89-38.81.51-12.48,5.37-23.63,7-25.65,2.13-2.68,19.13,6.46,19.13,6.46s-13.25-11.82-18.56-20.95,10.59-17.7,10.59-17.7-14.31,7-18.56,5.39-12.78-17.18-7.46-30.06S1269,787,1269,787l17.52,7.5s-21.24-11.25-25.49-25.2,11.15-29,11.15-29l-10.08-2.68s-3.21-10.76,8.48-16.66,19.65,5.92,19.65,5.92l-8,9.64s6.39-6.41,16.48-1a85.4,85.4,0,0,1,16.44,11.24l-7.43-15s3.19-11.26,15.4-7,8,15.56,8,15.56l-10.08,5.35s14.86-.52,25,8.07,7.44,30,7.44,30l4.79-12.88,4.75,8s9.56-5.87,22.84,1.1,10.65,12.85,10.65,12.85l-19.66,11.28s13.82-6.44,27.63-.53a93.16,93.16,0,0,1,23.34,14.49l-9-16.63s17.51-5.37,24.42,0,9,15,9,15l-15.94,7.5s15.94-2.14,27.63,9.13a43.64,43.64,0,0,1,11.12,17.65c-.51-5,.35-11,6.93-12.83,11.68-3.22,22.84,6.46,22.84,6.46l10.08,7.5s-6.34-30,15.43-32.2,26,12.89,20.7,27.38-13.8,16.1-13.8,16.1h-13.83s6.91,8,.54,18.24-30.81,11.28-30.81,11.28l-8.47-16.1a39,39,0,0,1,2.64,24.7c-3.19,13.41-11.16,23.59-8.5,22s15.4-13.42,15.4-13.42,8,2.15,9,13.42c.61,6.42-1.37,12.67-3.18,16.86,5-4.59,8-10.35,8-16.6,0-9.16-6.44-17.23-16.25-22.15.2-.7.44-1.4.63-2.11a48.49,48.49,0,0,0,9.86,1c19.07,0,34.55-10.84,34.55-24.23a17.21,17.21,0,0,0-.72-4.91c15.41-1.16,27.56-14.57,27.56-30.94,0-17.13-13.31-31-29.73-31-15.6,0-28.4,12.51-29.65,28.45-3.81-4.31-10.15-7.12-17.35-7.12a25.24,25.24,0,0,0-12,3,68.7,68.7,0,0,0-13.86-10.9,23.68,23.68,0,0,0,1-6.58c0-15.53-15-28.14-33.59-28.14a38.17,38.17,0,0,0-18.68,4.79,44.08,44.08,0,0,0-8.38-.88c-3.92-13.51-15.06-23.28-28.22-23.28a26.69,26.69,0,0,0-8.67,1.45,19.23,19.23,0,0,0-4.38-5.83c-1.59-11.54-11.21-20.72-23.4-22.46a23,23,0,0,0,.6-5.17c0-11.24-8.18-20.35-18.24-20.35-7.24,0-13.47,4.71-16.42,11.53a24.07,24.07,0,0,0-6.11-1.6c-2.12-7.89-11-13.8-21.58-13.8-12.18,0-22.08,7.81-22.08,17.45a15.7,15.7,0,0,0,6.18,12.1c-3.79,4.62-6.18,11.4-6.18,18.93,0,9.56,3.84,17.88,9.51,22.15-5.79,5.68-9.51,14.49-9.51,24.38,0,12.91,6.35,24,15.37,28.64a29.87,29.87,0,0,0,3.25,13.1,27.37,27.37,0,0,0-7.4,29.55,38.67,38.67,0,0,0-6.18-2.17l-.16-.07-1.1-.25-.35-.06c-.31-.07-.62-.16-.94-.22a2.13,2.13,0,0,0-.25,0,3,3,0,0,0-.32-.06c-.38-.07-.78-.14-1.16-.19l-.13,0-.38,0a38.09,38.09,0,0,0-5-.34,39.42,39.42,0,0,0-37.49,27.78c-1-.3-2-.59-3-.85a59.69,59.69,0,0,0,3.12-19.18c0-21.86-11.7-40.79-28.8-50.09-.79-23.87-19-43-41.23-43a38.5,38.5,0,0,0-17.9,4.44,69.61,69.61,0,0,0-2.42-8.54,35.3,35.3,0,0,0-1.58-56.86,27.35,27.35,0,0,0,3.69-13.67c0-16.6-15-30-33.58-30-13.53,0-25.18,7.13-30.5,17.45-.38,0-.77,0-1.16,0A32.43,32.43,0,0,0,1030.92,716a14,14,0,0,0-11.16-5.67c-7.37,0-13.43,6-14.27,13.67a39.81,39.81,0,0,0-29.7,62A59.36,59.36,0,0,0,971,805.68a69.74,69.74,0,0,0-38.28,46,33.37,33.37,0,0,0-49.52-7.59,71.45,71.45,0,0,0-7.68-6.3c13.08-5.38,22.39-19.2,22.39-35.41A39.23,39.23,0,0,0,885,772.85a40.22,40.22,0,0,0,11-27.69c0-22.48-18.45-40.7-41.23-40.7A41.64,41.64,0,0,0,848,705a25.84,25.84,0,0,0-47.6-11.78A25.84,25.84,0,0,0,754,709.28a26.14,26.14,0,0,0,18.46,25.08,49.24,49.24,0,0,0-1.2,10.8,48.61,48.61,0,0,0,.67,8,41.1,41.1,0,0,0-10.31,2.4,46.2,46.2,0,0,0-30.21-26.21A43.23,43.23,0,0,0,732.93,718a42.49,42.49,0,0,0-38-42.46,49.08,49.08,0,0,0-47.41-37.05ZM844.07,833.24a66.69,66.69,0,0,0-11.87.32C834.34,833.48,839,833.38,844.07,833.24Zm-11.87.32c-1.26,0-2,.09-1.36.09C831.17,833.65,831.66,833.6,832.2,833.56ZM541.9,931.87a21.18,21.18,0,0,0-3.15,1.58Zm-7.31,5.8c1.06,4.58,2,7.62,2,7.62A62.85,62.85,0,0,0,534.59,937.67Zm-91.82-9.32c-1.77,1.8-2.81,3-2.81,3S441.08,930.23,442.77,928.35ZM1911,743.24c-12.57,0-23.35,6.44-28.1,15.65-1.17-.08-2.37-.15-3.56-.15a45.74,45.74,0,0,0-8.76.85,24,24,0,1,0-32.23,31.69c-.14,1.11-.22,2.27-.25,3.4a37.26,37.26,0,0,0-20.22,13c-6-7.46-14.48-12.13-24-12.13-18,0-32.6,16.93-32.6,37.81,0,.41,0,.82,0,1.23a29.14,29.14,0,0,0-3.87-.26c-18,0-32.61,16.08-32.61,35.88,0,16.15,9.72,29.78,23.06,34.28a28,28,0,0,0-.13,28.19,49.88,49.88,0,0,0-1,10.24,48.31,48.31,0,0,0,4,19.34,34.36,34.36,0,0,0-1.44,3.94c-.47,0-.92,0-1.39,0-15.43,0-28.64,10-34,24a43.49,43.49,0,0,0-30.68-16.1l-.51.16c-3.72,1.07-25,9.67-25,9.67s19.63-7,38.21,4.82,27.63,26.84,27.63,26.84,2.12-33.26,18-36,18.09-3.78,18.09-3.78l6.89-10.71a18.17,18.17,0,0,1-10.11-15c-1.06-11.27,3.72-16.66,3.72-16.66s-8.47-16.08-4.76-23.06S1767.76,898,1767.76,898s-47.29-10.72-32.42-35.41,37.17-14,37.17-14-6.37-31.14,15.41-38.12,27.62.53,27.62.53l-4.78,24.7s12.19-25.22,28.13-30.59a250,250,0,0,1,30.3-8L1849,793.39l4.25-5.89s-28.68-13.43-14.87-24.7,22.84-1.6,22.84-1.6l-9.57,14.49s10.1-11.79,28.16-8.57,25,8,25,8l-9-11.28s.52-19.3,28.67-6.42-6.9,30-6.9,30l-10.62-9.14s6.91,7.53,1.07,25.24S1880.88,839,1880.88,839s16.45-12.88,35.57-3.22,29.23,19.31,29.23,19.31l2.11-32.73,22.31-1.6-9,12.88,35.07-11.28-10.62-14s-1.06-33.8,27.09-38.09c19.32-3,30.37,1.68,35.41,4.88v-9.54a51,51,0,0,0-25.89-6.93c-26,0-47,18.65-47,41.68a37.25,37.25,0,0,0,2.21,12.66,15.88,15.88,0,0,0,1.29,3.91,48.44,48.44,0,0,0-5.57.72,27.42,27.42,0,0,0-18.09-6.62c-11.69,0-21.57,6.95-24.79,16.51a23,23,0,0,0-14.33-4.88,23.72,23.72,0,0,0-8.32,1.51c-.22-.39-.45-.78-.69-1.16,8.46-6.75,13.8-16.58,13.8-27.51,0-.44,0-.85,0-1.29,12.27-3.43,21.11-13.28,21.11-24.88C1941.68,754.93,1928,743.24,1911,743.24ZM1095.37,762.8l3.5,2.77A17.27,17.27,0,0,0,1095.37,762.8Zm379.73,88a31,31,0,0,0,1.61,7A34.35,34.35,0,0,0,1475.1,850.82Zm-410.38,38.81c-.94,0-1.92.06-2.9.13-28.38,2-36,28.44-36,28.44,34.63-30.43,62.27-13.66,73-4.6-13.41,13.54-6.3,30.69-6.3,30.69,7.4-41.58,43.19-34.47,43.19-34.47s-18.76-12.05-35.06,2.08C1095.92,903.45,1085.09,889.49,1064.72,889.63Zm571,.94c-16.43,0-29.74,11.29-29.74,25.21a22.25,22.25,0,0,0,4.09,12.76c-16.21,3.64-28.83,15.75-32.07,30.93a51.78,51.78,0,0,0-10.39-1,48.17,48.17,0,0,0-28.35,8.82,25.75,25.75,0,0,0-43.38-7.84,63.28,63.28,0,0,0,1.07-11.63c0-1.06-.05-2.11-.1-3.15l-8.22-8.75c1,1.25,4.71,7.17,1.92,21.73-3.18,16.64-5.32,22.56-5.32,22.56s15.42-25.25,32.42-20.95,19.65,22.55,19.65,22.55,13.28-12.34,29.74-12.88,25,3.75,25,3.75-5.29-19.3,10.11-27.35,23.35-7,23.35-7-17-18.24-.54-33.27,30.81,7.5,30.81,7.5,43-18.24,52.61,11.28c4.53,14,1.87,24.33-2.14,31.38a33.59,33.59,0,0,0,11-24.89c0-18.74-15.45-33.9-34.52-33.9a34.79,34.79,0,0,0-21.08,7.06c-5.09-7.68-14.78-12.89-25.92-12.89Z"/></g></g><path id="path13964" class="cls-4" d="M747.34,949s-9.28,27,14.84,46.28a81.74,81.74,0,0,0-4.54,22.46c-24,4.08-34.74,23.64-34.74,38.18,0,17.31,9.16,36.64,9.16,36.64l-3-18.31c-4.08-54,48.87-56,66.18-43.78s18.34,13.23,18.34,13.23-9-23.69-40.73-26.5c-5-35.35,22.15-50.07,40.73-46.84,0,0-28.6-8.94-45,13.07-11-5.23-17.64-13.52-21.17-34.43Z"/><path id="path13966" class="cls-4" d="M586.6,1008.2c31.68-78.48,100.08-26.64,100.08-26.64s-33.84-17.28-62.64-1.44-37.44,44.65-37.44,44.65Z"/><path id="path13968" class="cls-4" d="M1948.39,849.28a39.41,39.41,0,0,0-17.33,4.47c-15.47,7.83-20.25,21-21.67,30.18a36.76,36.76,0,0,0-17.14-3.81c-10.32.39-21.22,4.08-28.35,7,5.78-5,13.32-14.05,6.33-23.09-9.44-12.23-33.07-8-33.07-8,35.91,7.12,27.63,25.79,23.24,32.57,0,0,0,0,0,0-2.69,1.2-4.41,2-4.41,2l3.5-.73c-.54.74-.88,1.17-.88,1.17s.79-.5,2-1.39l13.51-2.8c53.78-6.13,57.86,46.72,46.31,64.49s-12.54,18.8-12.54,18.8,23.33-9.85,24.92-41.71c28.21-5.12,43.9,11,47.69,27.28-12.14,11.39-10.55,33.9-10.55,33.9,3.32-11.42,7.28-18.79,11.34-23.41,0,.39-.07.79-.12,1.17,0,0,.16-.53.34-1.42,12.3-13.66,25.55-2.42,25.55-2.42s-10.55-19.86-24.57-9.45c-.31-9.66-3.47-22.5-16.1-31.19,4.81-11.18,12.86-18.17,33.61-22.49,0,0-27.33-8.24-45.67,16.6a82.16,82.16,0,0,0-22.62-3.69c-2.76-13.12-10.06-22-18.5-27.31,26.36-43.2,67.39-22.3,67.39-22.3s-13.11-14.81-32.23-14.5Z"/></g><g id="g14763"><path id="path14765" class="cls-3" d="M2046,109.22v56.09c688.28,107.64,1020.74-92.88,2048,0V109.22c-650.61-90.84-885.52,144.48-2048,0Z"/><path id="path14767" class="cls-4" d="M3788.57,87.7c-453.31.35-779.88,141.18-1742.57,21.53v10.09c1162.49,144.48,1397.4-90.84,2048,0V109.23C3982.18,93.62,3882.65,87.62,3788.57,87.7Z"/><path id="path14769" class="cls-5" d="M3667.45,129.39c-48.22-2.69-205.53,5.08-254.54,12.46,192.16-5,412.94-.77,681.1,23.47V151.17c-208.67-18.87-266.42-22.08-426.56-21.78ZM2046,151.17v14.15c258.8,40.47,467.28,37.37,681.32,22.69C2499.63,190.59,2242.84,181.15,2046,151.17Z"/></g><g id="g14771"><path id="path14773" class="cls-3" d="M2046,416.07v48.49c192.94-98,361.72-161.26,541.53-179.45,270.72-22.22,463.63,50.2,958.6,224,298.66,104,517.87-28.79,547.87-44.5V416.07c-54.29,32.85-274.06,168.05-533,79.85-543.46-212.14-842.68-255.6-990.65-239.19-121.22,12.12-365,74.59-524.39,159.34Z"/><path id="path14775" class="cls-4" d="M2633.16,253.6a563.12,563.12,0,0,0-62.75,3.12c-121.22,12.13-365,74.6-524.41,159.35v10.09c159.41-84.75,403.19-147.22,524.41-159.34,227-14.71,364.19,44.54,542.41,76.5,4.21.3,8.75.87,13.53,1.62-228.18-67.36-386.92-91.19-493.19-91.34Zm623,132c39.78,15.69,82.53,34.2,124.41,52.87Q3466,469,3561,506c258.9,88.2,478.68-47,533-79.84V416.07c-54.28,32.85-274.06,168-533,79.84-111.67-43.59-213-80-304.88-110.31Z"/><path id="path14777" class="cls-6" d="M2574.82,276.38c-175.07,19.83-340.44,82.39-528.82,178.06v10.13c192.94-98,361.73-161.29,541.54-179.47,16.09-1.32,31.9-2.32,47.53-3q-28.72-3.31-60.26-5.75ZM4094,454.44c-30,15.72-249.21,148.52-547.87,44.5-32.24-11.31-62.82-22.07-92.6-32.53-17.19-2.55-35.58-5.62-54.84-9.09,46.26,16.19,94.81,33.27,147.44,51.75,298.66,104,517.87-28.79,547.87-44.5V454.44Z"/></g><g id="g14779"><path id="path14781" class="cls-12" d="M3790.53,272.84c-15.56,0-28.34,10.68-29.81,24.33a13,13,0,0,0-3.14-.37c-8.27,0-15,7.59-15,17s6.71,17,15,17a13.46,13.46,0,0,0,3.25-.41,42.47,42.47,0,0,0-.26,4.41v.41a14.58,14.58,0,0,0-8-2.4c-8.82,0-16,8.05-16,18,0,9.23,6.19,16.82,14.15,17.85a19.15,19.15,0,0,0-4.17,12.09c0,9.93,7.17,18,16,18h.06c.93,12.29,10.37,22,21.88,22,9.1,0,16.91-6,20.25-14.63a21.81,21.81,0,0,0,20.79,6,41,41,0,0,0-.24,30.59,37.74,37.74,0,0,0-21.49,7.45,12,12,0,0,0-8.32-3.49c-7.17,0-13,6.71-13,15a15.47,15.47,0,0,0,6.46,12.92,38.73,38.73,0,0,0-.48,6c0,.82,0,1.64.09,2.45a30.62,30.62,0,0,0-20,13.78,26.37,26.37,0,0,0-3.7,4.3,30.72,30.72,0,0,0-11.07-7.71,38.85,38.85,0,0,0-38.1-49.07,38.53,38.53,0,0,0-11.64,2,29.54,29.54,0,1,0-42.78,38.24,46.45,46.45,0,0,0-7.75,16.33,20.39,20.39,0,0,0-20.29,34.66,19.77,19.77,0,0,0-8.1,23.19,18.22,18.22,0,0,0-4.74,2.45,11.81,11.81,0,0,0-15.2-2.69,17,17,0,0,0-26.86,3,22.28,22.28,0,0,0-7.34,1.86,16.88,16.88,0,0,0-9.74-2.86,25.29,25.29,0,0,0,.22-3.39,26,26,0,0,0-29-25.83A22.28,22.28,0,1,0,3491.05,519a34.4,34.4,0,0,0-42.71,33.37c0,1,0,1.9.13,2.84a30.9,30.9,0,0,0-8.12-1.07,30.37,30.37,0,0,0-13.48,3.1c-2.56-10-9.75-17.71-18.69-19.7,0-.38,0-.74,0-1.13,0-8.78-4.65-16.26-11.16-19.13a5.23,5.23,0,0,0-3.27-1.27,4.42,4.42,0,0,0-1,.11,15.42,15.42,0,0,0-1.66-.11c-7.48,0-13.84,5.75-16.14,13.74a25.33,25.33,0,0,0-5.5-.59,25.66,25.66,0,0,0-6.16.74c-1.55-11.6-10-20.44-20.09-20.44-7.41,0-13.9,4.73-17.45,11.81a30.16,30.16,0,0,0-26.47-15.76,60.74,60.74,0,0,0,1.29-12.49c0-27.95-18.81-50.62-42-50.62a36.28,36.28,0,0,0-19.68,5.91c-.26-12-7.51-21.68-16.4-21.68v0c-5.67,0-10.68,3.91-13.62,9.87a27.64,27.64,0,0,0-15.25-4.63c-16.3,0-29.52,14.43-29.52,32.21a34.28,34.28,0,0,0,4.41,16.93,29,29,0,0,0-3,11.35l-.69,0a21.51,21.51,0,0,0-18.09,10.05,38.09,38.09,0,0,0-45.33,61c-29.42,37.79,19.46,59.07,19.46,59.07s-1.31,1.31-19.68,13.15c-8.42,5.42-11.89,10.29-13.17,14-.44-14.4-5.79-26.71-13.4-32.6a43.31,43.31,0,0,0,10.83-28.7c0-16.57-9.53-26.62-23.3-33.65a42.53,42.53,0,0,0,.46-7.09,41.4,41.4,0,0,0-30.8-39.22,33.4,33.4,0,1,0-51.58,35.22,42.28,42.28,0,0,0-.26,5.65,41.58,41.58,0,0,0,2.23,12.65,40.11,40.11,0,0,0-31.6,56.64,42.66,42.66,0,0,0-53.43-.41c-.49-.77-1-1.52-1.49-2.25A42,42,0,0,0,2816.28,589a28.67,28.67,0,0,0-6.47,2c-2.75-9-8.07-15.55-14.32-17.19a27.73,27.73,0,0,0-6.4-26.77A32.2,32.2,0,0,0,2785,503.2a55.12,55.12,0,0,0-102.31-39.9A32.83,32.83,0,0,0,2639.05,495c0,.93,0,1.82.15,2.73l-.87.28a44,44,0,1,0-80.93,33.92,26.86,26.86,0,0,0-6.1,12.9,54.08,54.08,0,0,0-9-.56,54.69,54.69,0,0,0-21.88,5,56.37,56.37,0,0,0-10.52-19.7,29.86,29.86,0,0,0,2.33-12.33c-.26-12.84-8.39-23.45-19.17-26.32a28.12,28.12,0,0,0-20.4-4,18.44,18.44,0,0,0,.18-2.48,18,18,0,0,0-30.07-13.28c.08-.89.11-1.78.11-2.69,0-14.33-9.82-26-22-26-7,0-13.27,3.93-17.29,10a25.47,25.47,0,0,0-13.65-4c-14.89,0-27,12.95-27,28.94a30.34,30.34,0,0,0,5.24,17.14c-9.72,1.14-17.21,8.24-17.21,16.81,0,9.38,8.93,17,20,17a23,23,0,0,0,4-.35c3.12,8.49,9.53,14.33,16.94,14.33,5.47,0,10.39-3.18,13.85-8.23a35.11,35.11,0,0,0,4.13.24c1,0,2,0,3.05-.14.59.84,1.21,1.64,1.86,2.41a55.92,55.92,0,0,0,.33,57.89c-10.73,1.49-19.84,9.28-24.61,20.18-4.34-5.12-11.48-8.48-19.57-8.48a26.93,26.93,0,0,0-15.09,4.46,26,26,0,1,0-44.15,24.87,28.07,28.07,0,0,0-6.58,16.6h-.06a31.77,31.77,0,0,0-19.07,6.31c-10-15-24.15-24.29-39.83-24.29-30.32,0-54.92,34.87-54.92,77.88,0,.49,0,1,0,1.46a26.3,26.3,0,0,0-5.46,6.46c-2.3-1.13-4.68-2.19-7.14-3.21l-.06-.15a80.92,80.92,0,0,0,1.15-13.54c0-26.52-12.79-49.07-30.63-57.43a41.68,41.68,0,0,0,.67-7.47A39.16,39.16,0,0,0,2137.18,609c11.34-9.86,18.63-25.31,18.63-42.68,0-29.77-21.45-53.91-47.91-53.91a43.44,43.44,0,0,0-21.19,5.57,24,24,0,0,0,1.23-7.56,24.25,24.25,0,0,0-.24-3.21,25.13,25.13,0,0,0,12.2-21.75c0-13.78-10.72-25-24-25a23.09,23.09,0,0,0-10.92,2.75c-2.31-7.41-8.61-12.73-16-12.73a14.8,14.8,0,0,0-3,.31V1201.9c64.84-3.66,114.16-8.61,139.87-14.3,60.5,10.42,145.65,16.92,240,16.92,120.92-1.11,178.66-.81,243.4-10.74,35.48,3.89,86.91,3.53,137.73,1.18,74.05,25.8,233.76,16.15,308.65,12.33,19.68-1,46.93-4.55,76.6-9.3,61.59,13.34,162.44,23.23,281.61,26.92,33.39,1,68.22,1.58,104,1.58,129,0,245.3-7.11,327.38-18.48,70.54-.92,135-3.07,188.74-6.11V450.84c-7.25,1.44-12.91,8-13.84,16.27a30.68,30.68,0,0,0-6.12-.62c-15.43,0-27.95,11.18-27.95,25a24,24,0,0,0,10.11,19.22c-11.72,6.72-19.59,18.25-20.07,31.45a31,31,0,0,0-30.26-3.21c.18-2.15.28-4.31.28-6.51A72.73,72.73,0,0,0,3986,481.91a21.62,21.62,0,0,0,2.16-9.41c0-12.22-10.29-22.31-23.59-23.78a32.59,32.59,0,0,0,1.62-10.18c0-17.64-13.85-31.92-30.94-31.92a30,30,0,0,0-13.15,3c.11-1.33.18-2.68.18-4a46.79,46.79,0,0,0-3.91-18.73,46.92,46.92,0,0,0-60.67-71.56,21.94,21.94,0,0,0-38.3-8.41,24.44,24.44,0,0,0,1-7.12c0-14.89-13.4-27-29.94-27ZM4050,571.77a42.94,42.94,0,0,0,5.59,4,35.26,35.26,0,0,0-3.23,6.44c-2,.62-3.86,1.33-5.75,2.09A33.42,33.42,0,0,0,4050,571.77Zm-505,9.52a16.74,16.74,0,0,0,1.79,4.63c-.36.15-.72.32-1.07.48a39.21,39.21,0,0,0-4.26-4A25.12,25.12,0,0,0,3545,581.29Zm-457.06,75a2.21,2.21,0,0,0,.18.37l-.24.48.06-.85Z"/><path id="path14783" class="cls-8" d="M3790.54,272.84c-15.56,0-28.35,10.68-29.82,24.33a13.63,13.63,0,0,0-3.14-.38c-8.27,0-15,7.61-15,17s6.72,17,15,17a12.93,12.93,0,0,0,3.25-.42,42.8,42.8,0,0,0-.26,4.41v.42a14.54,14.54,0,0,0-8-2.41c-8.82,0-16,8.06-16,18,0,8.36,5.07,15.37,11.94,17.38-9.94-24.83,10.14-27.49,12.89-26.8s11.31,9.17,11.31,9.17-4.26-10.58-3.55-17.64,5.67-15.53,5.67-15.53-9.21,9.18-17.68,2.82-3.5-14.82.73-17.64,15.52,2.82,15.52,2.82-5.64-21.89,17.65-24.71,24.71,19.07,21.18,27.54-6.35,14.1-6.35,14.1,15.53-9.87,32.47-10.58,15.52,17,15.52,17,29-19.06,60-2.12c20.25,11,18,34.1,13.94,48.8a46.91,46.91,0,0,0-70.16-60,21.92,21.92,0,0,0-38.29-8.4,24.77,24.77,0,0,0,1-7.12c0-14.88-13.39-27-29.93-27ZM3897,376.59s13.4,8.49,15.52,22.61-4.23,33.86-4.23,33.86,10.58-19.77,34.58-14.83,9.88,28.25,9.88,28.25l-17.64,5.65s27.52,4.23,39.52,10.58,2.83,17,2.83,17L3955.58,474s21.16,9.17,33.86,35.29,1.43,50.83,1.43,50.83,11.3-18.37,29.65-14.13,24.7,15.54,24.7,15.54-1.41-24,8.47-35.29,20.46-11.3,20.46-11.3-17.63-14.82-12-30.35,24.7-8.47,24.7-8.47-2.12-4.94,2.82-14.83c.52-1,2.05-1.89,4.33-2.58v-7.88c-7.26,1.44-12.92,8-13.85,16.27a30.76,30.76,0,0,0-6.12-.62c-15.44,0-27.94,11.18-27.94,25a23.94,23.94,0,0,0,10.11,19.22c-11.72,6.73-19.61,18.25-20.08,31.45a31,31,0,0,0-30.27-3.2q.29-3.23.28-6.52A72.71,72.71,0,0,0,3986,481.92a21.67,21.67,0,0,0,2.17-9.42c0-12.22-10.28-22.31-23.58-23.78a32.81,32.81,0,0,0,1.61-10.17c0-17.64-13.85-31.94-30.95-31.94a29.92,29.92,0,0,0-13.13,3.05c.11-1.33.17-2.68.17-4.05a46.71,46.71,0,0,0-3.92-18.74l.23-.19-.46-.2L3897,376.59ZM3845.45,390s-11.65,11.65-20.69,22.16l.8-.17a41.11,41.11,0,0,0-.25,30.6,37.63,37.63,0,0,0-21.47,7.45,12,12,0,0,0-8.33-3.49c-7.17,0-13,6.71-13,15a15.47,15.47,0,0,0,6.45,12.92,38.64,38.64,0,0,0-.48,6c0,.82,0,1.64.1,2.44a30.68,30.68,0,0,0-20,13.78,27.46,27.46,0,0,0-3.7,4.32,30.8,30.8,0,0,0-11.07-7.72,39.4,39.4,0,0,0,1.36-11.09,38.74,38.74,0,0,0-51.1-36,28.4,28.4,0,0,0-2.06-3.33s0,0-.06-.06v0c-.32-.45-.65-.89-1-1.31a3.33,3.33,0,0,0-.25-.28l0-.07c-.41-.49-.84-1-1.28-1.43s-.88-.89-1.34-1.32l-.09-.09-.13-.11c-.39-.36-.78-.7-1.19-1l-.2-.17-.19-.13c-.33-.26-.65-.51-1-.76l-.41-.32-.35-.23c-.44-.3-.91-.57-1.36-.84-.06,0-.1-.07-.15-.1-.53-.31-1.05-.62-1.59-.9l-.93-.43c-.31-.14-.6-.28-.92-.41a.35.35,0,0,0-.13,0c-.41-.18-.82-.35-1.24-.5s-1-.34-1.51-.5l-.18-.07-.65-.16c-.1,0-.2-.08-.3-.1l-.84-.22-.4-.08-1.16-.22-.2-.05a2.66,2.66,0,0,1-.28,0c-.35-.05-.68-.12-1-.16l-.23,0a2.85,2.85,0,0,0-.29,0l-.53,0c-.43,0-.88-.07-1.32-.09h-.38c-.51,0-1,0-1.51,0s-.88,0-1.31.05l-1.25.11-.63.07-1.29.2c-.43.07-.84.14-1.26.23l-.2,0-.43.1c-.36.09-.73.17-1.08.27s-.53.18-.8.26l-.51.15-1.21.43a29.61,29.61,0,0,0-6.1,52,46.62,46.62,0,0,0-7.75,16.33,20.08,20.08,0,0,0-7.58-1.29,20.39,20.39,0,0,0-12.7,35.95,19.77,19.77,0,0,0-8.11,23.19,18.16,18.16,0,0,0-4.74,2.43,11.8,11.8,0,0,0-9.39-4.34,11.66,11.66,0,0,0-5.8,1.66,17,17,0,0,0-26.87,3,22.39,22.39,0,0,0-7.33,1.84,17,17,0,0,0-9.75-2.85,27,27,0,0,0,.23-3.38,26.08,26.08,0,0,0-29.05-25.84A22.28,22.28,0,1,0,3491.05,519a34.35,34.35,0,0,0-42.7,33.37c0,1,.05,1.9.13,2.84a31,31,0,0,0-8.13-1.08,30.37,30.37,0,0,0-13.48,3.1c-2.56-10-9.75-17.7-18.69-19.69,0-.38,0-.75,0-1.14,0-8.77-4.64-16.25-11.15-19.12a5.27,5.27,0,0,0-3.28-1.28,4.43,4.43,0,0,0-1,.12,13.24,13.24,0,0,0-1.66-.12c-7.48,0-13.83,5.76-16.14,13.75a25.59,25.59,0,0,0-11.66.15c-1.54-11.6-10-20.45-20.1-20.45-7.41,0-13.89,4.74-17.44,11.82a30.18,30.18,0,0,0-26.47-15.77,60.57,60.57,0,0,0,1.29-12.48c0-27.95-18.8-50.63-42-50.63a36.23,36.23,0,0,0-19.68,5.92c-.27-12-7.5-21.68-16.39-21.68v0c-5.67,0-10.69,3.9-13.63,9.86a27.58,27.58,0,0,0-15.24-4.62c-16.3,0-29.52,14.42-29.52,32.2a34.3,34.3,0,0,0,4.39,16.94,28.87,28.87,0,0,0-3,11.34l-.7,0a21.5,21.5,0,0,0-18.07,10.05,38.1,38.1,0,0,0-45.34,61c-29.42,37.8,19.47,59.08,19.47,59.08s-1.32,1.32-19.69,13.15c-6.88,4.43-10.45,8.48-12.22,11.82l0,0c-.09.18-.16.35-.25.52a2.72,2.72,0,0,1-.11.25l-.22.45c-.13.3-.24.6-.35.89,0-1-.07-1.94-.14-2.88,0-.38-.07-.74-.11-1.12-1.21-12.66-6.25-23.26-13.15-28.6a43.3,43.3,0,0,0,10.83-28.71c0-16.57-9.52-26.62-23.3-33.65a41.43,41.43,0,0,0-30.33-46.32,33.41,33.41,0,1,0-51.58,35.23,42.2,42.2,0,0,0-.26,5.65,41.69,41.69,0,0,0,2.22,12.66,40.08,40.08,0,0,0-31.59,56.63,42.67,42.67,0,0,0-53.44-.41c-.48-.78-1-1.52-1.49-2.24a42,42,0,0,0-79.42-26.82,28.3,28.3,0,0,0-6.47,1.94c-2.75-9-8.07-15.54-14.32-17.18.11-.38.23-.77.33-1.16-3.88,2.74-10.41,6.84-14,9.09a13.15,13.15,0,0,1,15.44,2.07c9,8,8,11,8,11l-1.51,10,6-9.48,8-1.5.71,4.65c0-11.77,6.1-27.7,41.71-21.63,43.92,7.49,23.45,62.9,23.45,62.9s8.49-21.46,39.44-20.46,46.43,21.94,46.43,21.94-27.46-40.42-7-59.39,50.42-7.48,50.42-7.48l-24-11.47a36.36,36.36,0,0,1-1-14c1-7.49,2-5.51,2-5.51l14,6.52s-43.43-27-23.72-44.69c28.37-25.49,44.68,4.24,44.68,4.24l-16,10s28.47-10.47,41,9l7,25-17,1s28.46,3.88,36.45,24c8.77,22.05-5.47,32.46-5.47,32.46l-14.41,3c5.27.34,12.51,3.94,18.37,18.46,10.48,25.95,6,41.42,6,41.42s.83-2.5,1.89-5.75c-.12.78-.25,1.66-.25,1.66,10.59-20.47,54.36-40.25,54.36-40.25L3153,623a48.09,48.09,0,0,1-40.22-21.88c-15.53-23.29-2.85-31.06-2.85-31.06l19.79,3.55s-38.14-22.61-22.61-50.85,36-12,36-12l-3.53,19.77s9.18-22.59,21.18-26.12,15.52-1.41,15.52-1.41-5.64-7.76-.7-14.11,7-7.05,7-7.05l11,5.24c-8.75-4.91-22-15.35-13.07-30.66,12.71-21.88,28.24-11.3,28.24-11.3s3.53-7.07,14.83-9.18,9.17,17.66,9.17,17.66l-12.51,12.5c2-1.76,18.78-15.64,49.23-9.68,32.47,6.35,18.34,51.52,18.34,51.52l-28.24,16.94s26.13-12.7,46.6-7.05,16.94,19.75,16.94,19.75,5.64-17.63,21.17-19.75,12.7,14.13,12.7,14.13l-15.72,10.86c5-3.21,16.26-9.28,26.32-6.63,13.41,3.53,13.4,4.23,13.4,4.23s-2.12-10.6,11.29-13.42,4.24,16.93,4.24,16.93,5.65-2.11,14.83,4.94,7.78,12.71,7.78,12.71l-9.17,17.64s8.45-15.52,28.92-15.52,39.54,9.9,39.54,9.9l-18.35-13.42s-6.36-16.94,13.4-24.71,23.31-4.94,23.31-4.94-2.83-15.54,17.64-16.25,11.29,18.37,11.29,18.37l-17.64,9.87s21.17-11.28,36.7.72,9.17,20.46,9.17,20.46l-14.83,7.78s16.24-7.06,24.71-3.53,9.89,5.65,9.89,5.65a59.86,59.86,0,0,1,9.17-4.24,23.68,23.68,0,0,1,10.6-1.41s4.93-4.25,7.76-4.25,4.23,2.83,9.88,2.12,10.58,8.48,10.58,8.48,5-3.54,7.78-5.66,9.17-4.21,9.17-4.21-4.94-14.14-1.41-19.78a7.71,7.71,0,0,1,9.17-3.52s-19.77-14.83-4.24-28.24c11.88-10.27,20.46-4,23.83-.5-1.87-2.7-4.2-8,.16-14.33,6.36-9.18,12-9.9,12-9.9s-32.47-14.8-12.7-36.68c8.87-15,22.59-12.9,34.59,3.51,0,0,18.36-2.11,34.6,7.07s11.27,27.53,11.27,27.53l-20.44,12a31.61,31.61,0,0,1,26.1,1.41c14.12,7.06,19.77,23.3,19.77,23.3l-5.66-21.19s7.06-12,21.18-13.4,21.19-.7,21.19-.7l-14.13-7.1s-2.82-6.33,1.41-9.86-9.87-12-4.22-15.53,14.11-2.12,14.11-2.12,8.47-8.46,21.18-7.05a62.37,62.37,0,0,1,17.77,5c-5.62-3.21-13.55-9-13.55-16.29,0-11.29-2.1-19,4.25-27.51s10.58-20.5,10.58-20.5Zm-1.28,64.3a54,54,0,0,0,5.52,2.77A53.49,53.49,0,0,0,3844.17,454.29Zm-502.93,88.49c-1.66,1.07-2.62,1.81-2.62,1.81Zm-284.88,71a13.13,13.13,0,0,0-7.06,1.49Zm-237.94-15.32a38.92,38.92,0,0,0,1.77,11.31Zm-86-165.81-1.43,0a55.06,55.06,0,0,0-48.25,30.66A32.81,32.81,0,0,0,2639.05,495c0,.93,0,1.84.15,2.74l-.87.28a44,44,0,1,0-80.93,33.92,26.86,26.86,0,0,0-6.1,12.9,54.91,54.91,0,0,0-30.91,4.48c-.33-1.09-.69-2.18-1.08-3.24-24.9,18.13-29.87,39.47-29.87,39.47s17.63-26.13,42.34-30.36S2584,573.54,2584,573.54l-24.71-24.72,7.06-10.57,16.24,9.17s-41.64-39.54.71-64.24,61.4,43.07,61.4,43.07-2.1-42.36,21.19-50.12,15.52-4.94,15.52-4.94l4.23,31.06s-8.45-60.71,53.67-50.83c58.15,17.28,29.78,63.24,28.29,64.92l14.4-3.26s10.24,11,9.53,21.64l-.63,9.67a32.18,32.18,0,0,0-5.92-41.18,55.3,55.3,0,0,0-52.62-70.58Zm35.24,83.72h-.06C2767.52,516.42,2767.57,516.41,2767.62,516.35Zm-346.74-73.8c-7,0-13.27,3.92-17.29,10a25.39,25.39,0,0,0-13.65-4c-14.89,0-27,12.93-27,28.92a30.38,30.38,0,0,0,5.24,17.15c-9.72,1.14-17.19,8.24-17.19,16.82a14.68,14.68,0,0,0,.86,5c8.51-16.4,30.27-17,30.27-17s-16.23-19.07-4.23-35.31,28.24-2.12,28.24-2.12,1.39-9.88,19-7.76,12,27.54,12,27.54,8.48-9.18,19.77-5.65,7.05,12,7.05,12a48.75,48.75,0,0,0-14.83,8.47c-6.35,5.65-4.94,5-4.94,5,33.18-12,45.19-7.07,56.49,7.05s-10.6,45.18-10.6,45.18l18.36-19.06s6.58,5.81,10.28,10a56.69,56.69,0,0,0-8.92-15.08,29.88,29.88,0,0,0,2.34-12.34c-.26-12.83-8.39-23.45-19.17-26.31a28.12,28.12,0,0,0-20.4-4,18.6,18.6,0,0,0,.16-2.49,18,18,0,0,0-30.06-13.28c.07-.89.11-1.78.11-2.69,0-14.33-9.82-25.95-22-25.95Zm-371.87,8a15.65,15.65,0,0,0-3,.3v13c9.69-.33,12.48,6.63,12.48,6.63l3,8s1-9,16-6,7,28,7,28l-17-13s10,12,11,32.95a127.45,127.45,0,0,1-4,37.93l18-29s26-11,44.92,19-10,53.91-10,53.91l-32-10s27,10,37.95,31-8,54.89-8,54.89l21-21s16,12,21,29.93,1,22,1,22l-41.61,15.14c14.53-4.56,37.72-9.56,52.59-1.16,23,13,27.94,24,27.94,24s-17-54.91,15-80.86,53.91,1,53.91,1l-5,37.93s4-28.94,24-33.93a98.06,98.06,0,0,1,36.92-2l-18-10s-3-8,5-18,15-14,15-14l-15.95,3s-10-12,6-24,23,8,23,8l-8,9s15.95-14,40.91-7c20.28,5.68,30,27.82,32.95,35.92l-12-35.92s7-13,16-13,11,5,11,5l25.94,7s-26-19-31.94-35.94-1-37.94,4-42.93,8-14,2-12c-3.06,1-8.48,6.21-13.58,11.59.18.21.34.45.52.66a56,56,0,0,0,.33,57.9c-10.73,1.48-19.84,9.26-24.61,20.16-4.34-5.11-11.49-8.47-19.57-8.47a26.91,26.91,0,0,0-15.09,4.46,26,26,0,1,0-44.15,24.87,28.07,28.07,0,0,0-6.58,16.6h-.07a31.76,31.76,0,0,0-19.06,6.31c-10-15-24.15-24.28-39.83-24.28-30.32,0-54.93,34.87-54.93,77.88,0,.49,0,1,0,1.45a26.1,26.1,0,0,0-5.46,6.47c-2.3-1.13-4.69-2.2-7.15-3.21l-.06-.15a81,81,0,0,0,1.16-13.55c0-26.52-12.81-49.08-30.65-57.43a41.68,41.68,0,0,0,.68-7.47,39.18,39.18,0,0,0-12.64-29.2c11.34-9.86,18.63-25.3,18.63-42.67,0-29.77-21.45-53.92-47.92-53.92a43.4,43.4,0,0,0-21.17,5.58,24,24,0,0,0,1.21-7.57,22.64,22.64,0,0,0-.24-3.2,25.13,25.13,0,0,0,12.21-21.75c0-13.79-10.71-25-24-25a23.16,23.16,0,0,0-10.93,2.75c-2.3-7.41-8.6-12.72-16-12.72Zm77.71,273.68c-7.91,2.49-13.3,4.83-13.3,4.83ZM3193.56,487a53.72,53.72,0,0,0,6.7,3.21ZM3666,512.38a11.64,11.64,0,0,0,1.56,1.86A18.46,18.46,0,0,0,3666,512.38Zm-884.28,69.39a14.89,14.89,0,0,0-2.47,1.54Zm306.18,74.54a1.77,1.77,0,0,0,.18.37l-.25.48C3087.87,656.87,3087.88,656.6,3087.91,656.31Z"/></g><g id="g14785"><g id="g14787"><g id="g14789"><path id="path14791" class="cls-9" d="M3770.38,900.08a34.86,34.86,0,0,0-18.82,29.18,48.67,48.67,0,1,0,50.14,56.84,36,36,0,1,0,18-65.38,35.5,35.5,0,0,0-2.31-5.65A34.85,34.85,0,0,0,3770.38,900.08Z"/><path id="path14793" class="cls-4" d="M3770.38,900.08a34.86,34.86,0,0,0-18.82,29.18,48.67,48.67,0,1,0,24.5,91.86,47,47,0,0,0,4.43-2.58c-11.22,1-59.54,2.55-61.54-38.34-1.73-35.24,40.72-42.41,40.72-42.41s-9.77-31.66,25.57-32.3c23.31-.42,24.43,15.36,25.46,22.06,7.93-5.1,22.9-7.28,39.56,14.29a114.93,114.93,0,0,0,7.73,9.06,36.06,36.06,0,0,0-38.34-30.18,34.84,34.84,0,0,0-49.27-20.64Z"/></g><g id="g14795"><path id="path14797" class="cls-9" d="M2954.88,756.77a38.42,38.42,0,0,0-33.18,19.06,53.63,53.63,0,1,0,20.37,81,39.7,39.7,0,1,0,50.63-55,38.83,38.83,0,0,0,.59-6.7A38.4,38.4,0,0,0,2954.88,756.77Z"/><path id="path14799" class="cls-4" d="M2954.88,756.77a38.42,38.42,0,0,0-33.18,19.06,53.63,53.63,0,1,0-22.44,102.34,55.51,55.51,0,0,0,5.65-.29c-11.49-4.7-59.6-27.6-40.89-68.65,16.12-35.38,61.31-21,61.31-21s6.44-35.95,41.37-18.71c23,11.37,16.16,27.4,13.78,34.48,10.34-1,26.1,4.44,31.52,34a125.74,125.74,0,0,0,3,12.78,39.76,39.76,0,0,0-22.29-48.94,38.83,38.83,0,0,0,.59-6.7A38.4,38.4,0,0,0,2954.88,756.77Z"/></g><g id="g14801"><path id="path14803" class="cls-9" d="M2702.2,827.7A38.4,38.4,0,0,0,2669,846.76a53.63,53.63,0,1,0,20.37,81,39.7,39.7,0,1,0,50.62-55,38.83,38.83,0,0,0,.6-6.7A38.41,38.41,0,0,0,2702.2,827.7Z"/><path id="path14805" class="cls-4" d="M2702.2,827.7A38.4,38.4,0,0,0,2669,846.76a53.63,53.63,0,1,0-22.45,102.34,55.71,55.71,0,0,0,5.66-.29c-11.49-4.7-59.61-27.6-40.9-68.65,16.12-35.38,61.32-20.95,61.32-20.95s6.43-36,41.36-18.71c23,11.37,16.17,27.4,13.78,34.48,10.34-1,26.11,4.44,31.52,34a128.49,128.49,0,0,0,3,12.78A39.72,39.72,0,0,0,2740,872.81a37.86,37.86,0,0,0,.6-6.7A38.41,38.41,0,0,0,2702.2,827.7Z"/></g><g id="g14807"><path id="path14809" class="cls-9" d="M3544.3,892.7a34.83,34.83,0,0,0-18.83,29.18,48.66,48.66,0,1,0,50.14,56.84,36,36,0,1,0,17.95-65.39,34.82,34.82,0,0,0-49.26-20.63Z"/><path id="path14811" class="cls-4" d="M3544.3,892.7a34.83,34.83,0,0,0-18.83,29.18,48.63,48.63,0,1,0,28.94,89.27c-11.22,1-59.55,2.56-61.55-38.34-1.73-35.23,40.72-42.4,40.72-42.4s-9.77-31.67,25.57-32.31c23.32-.42,24.44,15.36,25.46,22.06,7.93-5.09,22.9-7.28,39.57,14.29a115.32,115.32,0,0,0,7.72,9.07,36,36,0,0,0-38.34-30.19,34.82,34.82,0,0,0-49.26-20.63Z"/></g><g id="g14813"><path id="path14815" class="cls-10" d="M2693.53,638.52a49,49,0,0,0-46.89,35.33,27.31,27.31,0,0,0-4.9-.43,28.14,28.14,0,0,0-4.91,55.78,55,55,0,0,0,10.47,48.52,33,33,0,0,0,14.59,62.44,32.3,32.3,0,0,0,10-1.6,24.78,24.78,0,0,0-.41,4.5A24.17,24.17,0,0,0,2689,866.37a28.2,28.2,0,0,0-5.55,22.27,31.82,31.82,0,0,0-31.12,32,32.24,32.24,0,0,0,1,8,54.21,54.21,0,0,0-28.3-10.76A31,31,0,0,0,2596.67,875a30.71,30.71,0,0,0-28.32,19,53.32,53.32,0,0,0-44.81-1c.13-1.79.21-3.59.21-5.41a71.45,71.45,0,0,0-2.25-17.85,56.41,56.41,0,0,0-20.95-102.52,47.74,47.74,0,0,0,4-19.23c0-26.23-21-47.5-47-47.5s-47,21.27-47,47.5a48,48,0,0,0,2.31,14.9,76.79,76.79,0,0,0-18.63-2.3c-39.38,0-71.94,29.61-77,68-1.18-.08-2.38-.13-3.58-.13-27,0-48.89,22.12-48.89,49.43a49.25,49.25,0,0,0,43.55,49.16q-1.32,2.08-2.48,4.3a56.65,56.65,0,0,0-48.14,34.78,48.4,48.4,0,0,0-16,3.14A68,68,0,0,0,2204.1,924a31.07,31.07,0,0,0-21.87-52.78,30.35,30.35,0,0,0-11.73,2.34,44.73,44.73,0,0,0-2.35-10.72,40.81,40.81,0,0,0,.13-80.18,31.71,31.71,0,0,0,4.36-16.12c0-17.13-13.3-31-29.73-31s-29.75,13.9-29.75,31a32.2,32.2,0,0,0,.87,7.34A25.16,25.16,0,0,0,2108,777a72.61,72.61,0,0,0-10.27-2.11,14.89,14.89,0,0,0,.1-1.64c0-10.18-9.88-18.42-22.06-18.42-11.42,0-20.8,7.23-21.94,16.51a46.35,46.35,0,0,0-7.8-5.7v337.48c132.86,5.81,316,9.43,519,9.43,245.38,0,462.61-5.25,595.86-13.31,37.47,7,94.41,11.37,158.17,11.37,51,0,97.56-2.85,133.35-7.54,37.68,1.11,78,1.73,119.93,1.73,81.28,0,156.48-2.27,218-6.09,32,1,68.46,1.66,107.59,2a635.29,635.29,0,0,0,89.56,6,650.72,650.72,0,0,0,80.21-4.76c8.3.4,17.51.78,26.26,1.16V765.66a51.12,51.12,0,0,0-25.9-6.94c-26,0-47,18.67-47,41.69a37.5,37.5,0,0,0,2.2,12.67,16.26,16.26,0,0,0,1.3,3.9,48.61,48.61,0,0,0-5.58.71,27.39,27.39,0,0,0-18.08-6.62c-11.69,0-21.57,7-24.79,16.52a23.09,23.09,0,0,0-14.34-4.9,23.68,23.68,0,0,0-8.32,1.51c-.22-.39-.45-.78-.69-1.16,8.46-6.75,13.79-16.55,13.79-27.48,0-.44,0-.87,0-1.31,12.26-3.43,21.13-13.26,21.13-24.87,0-14.45-13.76-26.17-30.71-26.17-12.57,0-23.35,6.45-28.1,15.66-1.17-.09-2.35-.15-3.55-.15a45.92,45.92,0,0,0-8.77.85,23.95,23.95,0,0,0-45.91,9.81,24.24,24.24,0,0,0,13.69,21.9,31.62,31.62,0,0,0-.25,3.39,37.22,37.22,0,0,0-20.21,13c-6-7.46-14.48-12.12-23.94-12.12-18,0-32.61,16.93-32.61,37.81,0,.41,0,.82,0,1.23a29.17,29.17,0,0,0-3.88-.27c-18,0-32.61,16.07-32.61,35.88,0,16.14,9.71,29.78,23,34.28a28,28,0,0,0-.1,28.2,49.69,49.69,0,0,0-1,10.22,48.31,48.31,0,0,0,4,19.34,33.74,33.74,0,0,0-1.45,3.94c-.46,0-.93,0-1.4,0-15.42,0-28.62,10-33.94,24A43.62,43.62,0,0,0,3728.29,974a42.12,42.12,0,0,0-2.54-9.89c1,.08,1.95.13,2.94.13,19.07,0,34.52-15.2,34.52-33.94s-15.45-33.91-34.52-33.91a34.78,34.78,0,0,0-21.08,7c-5.1-7.68-14.79-12.87-25.93-12.87-16.43,0-29.74,11.29-29.74,25.21a22.23,22.23,0,0,0,4.09,12.76c-16.22,3.65-28.84,15.74-32.07,30.92a52,52,0,0,0-10.4-1,48.1,48.1,0,0,0-28.35,8.82,25.77,25.77,0,0,0-43.39-7.86,62.23,62.23,0,0,0,1.07-11.62c0-1.67-.07-3.33-.2-5,7-4.92,11.39-11.73,11.39-19.28,0-9.15-6.42-17.25-16.24-22.16.21-.71.43-1.4.61-2.11a48.48,48.48,0,0,0,9.86,1c19.07,0,34.55-10.84,34.55-24.22a17.35,17.35,0,0,0-.72-4.93c15.41-1.16,27.57-14.56,27.57-30.93,0-17.13-13.31-31-29.74-31-15.6,0-28.38,12.52-29.62,28.45-3.81-4.3-10.18-7.13-17.39-7.13a25.27,25.27,0,0,0-12,2.95,68.5,68.5,0,0,0-13.85-10.87,23.88,23.88,0,0,0,.93-6.61c0-15.53-15-28.11-33.58-28.11a38.15,38.15,0,0,0-18.68,4.76,45,45,0,0,0-8.38-.88c-3.92-13.51-15.07-23.27-28.23-23.27a26.25,26.25,0,0,0-8.64,1.46,19.41,19.41,0,0,0-4.41-5.85c-1.59-11.54-11.18-20.7-23.38-22.44a22.51,22.51,0,0,0,.6-5.17c0-11.24-8.18-20.35-18.24-20.35-7.24,0-13.47,4.72-16.42,11.54a24.1,24.1,0,0,0-6.11-1.63c-2.12-7.88-11-13.8-21.59-13.8-12.18,0-22.06,7.83-22.06,17.47a15.7,15.7,0,0,0,6.17,12.09c-3.79,4.62-6.17,11.39-6.17,18.92,0,9.56,3.84,17.88,9.51,22.15-5.8,5.68-9.51,14.5-9.51,24.39,0,12.91,6.34,24,15.36,28.64a29.84,29.84,0,0,0,3.25,13.1,27.4,27.4,0,0,0-7.42,29.55,38.85,38.85,0,0,0-16-3.45,39.41,39.41,0,0,0-37.5,27.76c-1-.31-2-.59-3-.85a59.48,59.48,0,0,0,3.14-19.16c0-21.85-11.71-40.78-28.81-50.09-.79-23.87-19-43-41.24-43a38.52,38.52,0,0,0-17.91,4.41,69.43,69.43,0,0,0-2.41-8.53,35.27,35.27,0,0,0-1.58-56.85,27.34,27.34,0,0,0,3.68-13.66c0-16.6-15-30.05-33.58-30.05-13.53,0-25.17,7.16-30.48,17.48l-1.17,0A32.45,32.45,0,0,0,3076.92,716a14,14,0,0,0-11.16-5.69c-7.37,0-13.43,6-14.27,13.68a39.83,39.83,0,0,0-29.71,62,59.67,59.67,0,0,0-4.73,19.7,69.8,69.8,0,0,0-38.29,46,33.33,33.33,0,0,0-49.53-7.58,70.55,70.55,0,0,0-7.68-6.33c13.09-5.38,22.4-19.19,22.4-35.4a39.18,39.18,0,0,0-12.95-29.5,40.26,40.26,0,0,0,11-27.69c0-22.49-18.46-40.71-41.24-40.71a41.63,41.63,0,0,0-6.84.55,25.83,25.83,0,0,0-47.58-11.81,25.84,25.84,0,0,0-46.32,16.09,26.15,26.15,0,0,0,18.47,25.07,49.33,49.33,0,0,0-1.22,10.81,48.8,48.8,0,0,0,.66,8,40.61,40.61,0,0,0-10.29,2.39,46.23,46.23,0,0,0-30.21-26.23,43.29,43.29,0,0,0,1.48-11.28,42.5,42.5,0,0,0-38-42.45,49.05,49.05,0,0,0-47.38-37Zm1288.79,212,.09.08c-.12.41-.23.83-.33,1.24l-.38,0c.23-.44.43-.89.62-1.35Z"/><path id="path14817" class="cls-11" d="M2693.53,638.52a49,49,0,0,0-46.87,35.35,27.53,27.53,0,0,0-4.92-.44,28.14,28.14,0,0,0-4.91,55.79,55.21,55.21,0,0,0,10.49,48.51,33,33,0,0,0,14.59,62.44,32.19,32.19,0,0,0,10-1.61,24.81,24.81,0,0,0-.41,4.51A24.18,24.18,0,0,0,2689,866.38a28.25,28.25,0,0,0-6,17.42,28.59,28.59,0,0,0,.44,4.85,31.83,31.83,0,0,0-31.12,32,32.18,32.18,0,0,0,1,8,54.12,54.12,0,0,0-28.29-10.74,31.29,31.29,0,0,0,2.33-11.85,30.64,30.64,0,0,0-59-12,53.21,53.21,0,0,0-44.83-1c.13-1.79.22-3.6.22-5.42a72,72,0,0,0-2.24-17.87,56.4,56.4,0,0,0-21-102.5,47.7,47.7,0,0,0,4-19.22c0-26.23-21-47.51-47-47.51s-47,21.28-47,47.51a47.72,47.72,0,0,0,2.33,14.87,77,77,0,0,0-18.65-2.27c-39.38,0-71.93,29.6-77,68-1.18-.08-2.39-.12-3.59-.12-27,0-48.89,22.12-48.89,49.42a49.25,49.25,0,0,0,43.56,49.15c-.88,1.39-1.72,2.84-2.49,4.31a56.66,56.66,0,0,0-48.13,34.78,48.51,48.51,0,0,0-16,3.12c-.08-.33-.16-.64-.25-1l-.12-.44c-.13-.46-.24-.95-.38-1.41,0,0,0,0,0,0A68,68,0,0,0,2204.11,924a31.05,31.05,0,0,0-21.86-52.77,30.45,30.45,0,0,0-11.75,2.33,44.88,44.88,0,0,0-2.33-10.74,40.81,40.81,0,0,0,.13-80.17,31.75,31.75,0,0,0,4.34-16.1c0-17.13-13.28-31-29.7-31s-29.77,13.9-29.77,31a32.27,32.27,0,0,0,.88,7.34A25.48,25.48,0,0,0,2108,777a74,74,0,0,0-10.27-2.11,14.75,14.75,0,0,0,.09-1.64c0-10.17-9.86-18.43-22.05-18.43-11.41,0-20.81,7.23-21.95,16.51a46.6,46.6,0,0,0-7.78-5.7v16.41c7.41,5.2,13.95,10.77,13.95,10.77s-3.18-16.11,8.51-24.69,20.19,3.23,20.19,8.6-2.14,5.38-2.14,5.38L2070.64,795s13.8-6.46,29.74-6.46h22.3l20.19,6.46s-19.13-25.78-17-34.37,19.12-15,29.74-8.57-5.32,55.79-5.32,55.79l14.87-9.64s13.82,2.14,21.26,20.38-13.8,36.49-18,35.41-21.27-21.45-21.27-21.45,12.77,26.85,13.83,51.54,1.06,40.75,3.19,31.09,8.5-33.27,8.5-33.27,21.22-1.06,27.6,10.75-6.37,25.73-6.37,25.73l-28.69,11.85s32.94-6.45,46.75,17.17,18,62.25,18,62.25l7.49-27c19.35-4.38,37.14,12,37.14,12s-11.7-11.81-2.14-27.91,39.3-24.68,59.48-18.24,20.19,5.35,20.19,5.35l-32.92-18.24,4.26-10.74,23.37-11.81S2282,924.87,2281,885.16s38.24-41.84,38.24-41.84l12.73,34.34s-11.66-63.33,29.77-88,83.89,1.07,83.89,1.07l-22.3-23.59s-8.48-52.61,36.13-52.61,28.66,35.4,24.41,53.65-8.5,34.37-8.5,34.37L2499.76,781s22.33,4.29,28.7,33.27-12.76,40.79-12.76,40.79l-31.88-22.52s21.26,20.39,24.45,47.22c2.53,21.32-13,41.24-19.5,48.55,6.44-6.58,23.22-21.94,40.73-22.78,22.31-1.07,28.69-3.24,39.32,9.64,6.13,7.43,9.78,16.29,11.78,22.46-2.75-11.91-6-34.61,6.27-43.91,17-12.88,24.43-1.07,26.55,11.81s-3.18,15-3.18,15l-22.33,11.27c6.28-2.61,21.82-6.44,45.71,4.82,31.87,15,42.46,38.66,42.46,38.66s-12.71-29-10.58-45.08,19.09-30.09,19.09-30.09l14.87,29s-9.54-35.42-4.22-48.3,21.23-9.64,21.23-9.64-20.19-6.46-27.63-19.34-2.11-19.31-2.11-19.31l13.8-14s-40.36,21.48-56.3-3.21,10.62-27.91,10.62-27.91l30.81,18.24s-34-35.43-37.17-55.82-1.07-19.31-1.07-19.31l17-4.29s-41.43-2.15-34-25.77,18-17.17,18-17.17l1.07,15s6.36-34.35,43.53-41.87,36.11,19.33,37.18,39.73,0,29,0,29L2745.14,692s9.56-1.06,15.94,11.82,1.05,34.34-1.07,45.08,12.75-8.57,12.75-8.57,20.19,1.07,23.38,14c1.1,4.44,1.68,6.62,2,7.69l-26.43,29.86s26.56-29,48.86-23.62,39.32,7.53,39.32,7.53-27.61-11.8-28.67-20.39a91.86,91.86,0,0,1,0-18.24h17s-31.87-2.15-34-24.69,23.37-15,23.37-15l1,16.1s18.06-18.24,34-19.31,11.69,33.26,11.69,33.26,2.14-11.82,27.63-6.45,22.31,20.42,19.12,31.15-4.25,12.85-4.25,12.85l-28.67-7.49s21.23,25.73,31.85,41.83-14.87,33.3-14.87,33.3l-25,.66c9.11.71,20.68,4.29,28.19,17.58,12.75,22.54,20.2,34.34,20.2,34.34L2932.1,854s8.49-9.65,25.49-3.21,21.23,15,21.23,15l4.25,35.44s3.19-37.59,29.74-63.36c20.84-20.21,38.36-24.54,45-25.48l-31.13,3,7.44-23.63,12.75,5.39s-26.56-27.91-12.75-45.08,18.05-15,18.05-15v19.32s7.42-31.13,13.79-30.06a63.51,63.51,0,0,0,9.58,1.07l-4.25,24.7s8.49-25.79,22.3-30.08a34.85,34.85,0,0,1,24.42,1.07l-11.66-9.64s21.23-17.17,39.28-17.17,9.58,29,9.58,29h-15.94s15.93,5.4,26.56,26.87-5.33,25.74-5.33,25.74L3145,765.7c4.1,4.07,10.56,13.16,13.35,31.47,4.25,27.91,3.18,46.15,3.18,46.15l9.58-39.72s14.85-3.24,35,6.42,4.25,52.61,4.25,52.61l19.13-17.17s8.48,9.67,13.79,29-13.79,63.32-13.79,63.32l24.41-20.39,6.4,1,12.72,16.13s-11.66-21.47,3.22-39.72c4.46-5.48,10.54-7.28,16.76-7.18,49.65,9,49.19,52.41,36.1,68.51-3.41,4.19-6,7.32-8,9.74a24,24,0,0,0-2.43-2.14c-12.59-9.79-23.63,1.79-23.63,1.79,10-1.44,16.91,1.28,21.77,5.55-1.85,2.19-2.14,2.45-2.14,2.45a28.41,28.41,0,0,0,3.31-1.38c8.94,8.91,10,23.18,10,23.18s3.4-15.27-4.44-26.46c7.45-5.14,17.35-15.28,20.32-34.18,35.61-2.62,48.46,25.51,44,43.82,0,0,10.86-27.93-10-45.8,6-10.62,14.69-16.71,35.79-18.81,0,0-26.29-11.07-47.16,11.69a81.75,81.75,0,0,0-22.12-6.05c-1.88-18.66-15.91-32.85-28.88-38.81.51-12.48,5.36-23.63,7-25.65,2.12-2.68,19.12,6.46,19.12,6.46s-13.24-11.82-18.55-20.95,10.58-17.7,10.58-17.7-14.31,7-18.55,5.39-12.78-17.18-7.47-30.06,7.47-11.28,7.47-11.28l17.51,7.5s-21.24-11.25-25.48-25.2,11.15-29,11.15-29l-10.08-2.68s-3.21-10.76,8.47-16.66,19.66,5.92,19.66,5.92l-8,9.64s6.38-6.41,16.47-1a85.7,85.7,0,0,1,16.45,11.24l-7.44-15s3.19-11.26,15.41-7,8,15.56,8,15.56l-10.08,5.35s14.86-.52,24.95,8.07,7.43,30,7.43,30l4.79-12.88,4.76,8s9.56-5.87,22.84,1.1,10.64,12.85,10.64,12.85l-19.65,11.28s13.82-6.44,27.62-.53a93.34,93.34,0,0,1,23.35,14.49l-9-16.63s17.51-5.37,24.41,0,9,15,9,15l-15.94,7.5s15.95-2.14,27.63,9.13a43.53,43.53,0,0,1,11.12,17.65c-.51-5,.36-11,6.93-12.83,11.69-3.22,22.84,6.46,22.84,6.46l10.08,7.5s-6.34-30,15.44-32.2,26,12.89,20.69,27.38-13.79,16.1-13.79,16.1h-13.83s6.91,8,.53,18.24-30.81,11.28-30.81,11.28l-8.47-16.1a39,39,0,0,1,2.65,24.7c-3.19,13.41-11.17,23.59-8.51,22s15.4-13.42,15.4-13.42,8,2.15,9,13.42c.61,6.42-1.36,12.67-3.18,16.86,5-4.59,8-10.35,8-16.6,0-9.16-6.45-17.23-16.26-22.15.21-.7.45-1.4.63-2.11a48.49,48.49,0,0,0,9.86,1c19.07,0,34.56-10.84,34.56-24.23a17.22,17.22,0,0,0-.73-4.91c15.42-1.16,27.57-14.57,27.57-30.94,0-17.13-13.32-31-29.74-31-15.6,0-28.4,12.51-29.64,28.45-3.81-4.31-10.15-7.12-17.36-7.12a25.24,25.24,0,0,0-12,3,68.42,68.42,0,0,0-13.86-10.9,23.68,23.68,0,0,0,1-6.58c0-15.53-15-28.14-33.58-28.14a38.17,38.17,0,0,0-18.68,4.79,44.17,44.17,0,0,0-8.38-.88c-3.92-13.51-15.07-23.28-28.23-23.28a26.63,26.63,0,0,0-8.66,1.45,19.4,19.4,0,0,0-4.38-5.83c-1.6-11.54-11.22-20.72-23.41-22.46a22.45,22.45,0,0,0,.6-5.17c0-11.24-8.17-20.35-18.24-20.35-7.23,0-13.47,4.71-16.41,11.53a24.18,24.18,0,0,0-6.11-1.6c-2.13-7.89-11-13.8-21.58-13.8-12.19,0-22.09,7.81-22.09,17.45a15.73,15.73,0,0,0,6.18,12.1c-3.79,4.62-6.18,11.4-6.18,18.93,0,9.56,3.84,17.88,9.52,22.15-5.8,5.68-9.52,14.49-9.52,24.38,0,12.91,6.36,24,15.38,28.64a29.87,29.87,0,0,0,3.24,13.1,27.37,27.37,0,0,0-7.4,29.55,38.67,38.67,0,0,0-6.18-2.17l-.15-.07-1.11-.25-.34-.06c-.32-.07-.63-.16-1-.22a2.13,2.13,0,0,0-.25,0l-.31-.06c-.39-.07-.78-.14-1.17-.19a.5.5,0,0,0-.13,0l-.37,0a38.09,38.09,0,0,0-5-.34,39.4,39.4,0,0,0-37.49,27.78c-1-.3-2-.59-3.06-.85a59.69,59.69,0,0,0,3.12-19.18c0-21.86-11.7-40.79-28.79-50.09-.8-23.87-19-43-41.24-43a38.46,38.46,0,0,0-17.89,4.44,69.65,69.65,0,0,0-2.43-8.54,35.3,35.3,0,0,0-1.57-56.86,27.35,27.35,0,0,0,3.68-13.67c0-16.6-15-30-33.58-30-13.53,0-25.18,7.13-30.49,17.45l-1.17,0A32.43,32.43,0,0,0,3076.92,716a14,14,0,0,0-11.15-5.67c-7.38,0-13.43,6-14.27,13.67a39.81,39.81,0,0,0-29.71,62,59.86,59.86,0,0,0-4.76,19.69,69.73,69.73,0,0,0-38.27,46,33.37,33.37,0,0,0-49.52-7.59,72.56,72.56,0,0,0-7.69-6.3c13.08-5.38,22.4-19.2,22.4-35.41A39.24,39.24,0,0,0,2931,772.85a40.23,40.23,0,0,0,11-27.69c0-22.48-18.46-40.7-41.24-40.7a41.72,41.72,0,0,0-6.84.54,25.84,25.84,0,0,0-47.6-11.78,25.74,25.74,0,0,0-20.41-10.08,26.19,26.19,0,0,0-7.44,51.22,49.24,49.24,0,0,0-1.19,10.8,48.61,48.61,0,0,0,.66,8,41,41,0,0,0-10.3,2.4,46.25,46.25,0,0,0-30.21-26.21,43.23,43.23,0,0,0,1.48-11.28,42.49,42.49,0,0,0-38-42.46,49.09,49.09,0,0,0-47.42-37.05Zm196.55,194.72a66.81,66.81,0,0,0-11.88.32C2880.34,833.48,2885,833.38,2890.08,833.24Zm-11.88.32c-1.26,0-2,.09-1.35.09C2877.17,833.65,2877.66,833.6,2878.2,833.56Zm-290.29,98.31a21.18,21.18,0,0,0-3.15,1.58Zm-7.31,5.8c1.05,4.58,2,7.62,2,7.62A63.75,63.75,0,0,0,2580.6,937.67Zm-91.83-9.32c-1.76,1.8-2.8,3-2.8,3S2487.09,930.23,2488.77,928.35ZM3957,743.24c-12.56,0-23.35,6.44-28.1,15.65-1.17-.08-2.36-.15-3.56-.15a45.81,45.81,0,0,0-8.76.85,24,24,0,1,0-32.22,31.69c-.15,1.11-.22,2.27-.26,3.4a37.3,37.3,0,0,0-20.22,13c-6-7.46-14.48-12.13-23.94-12.13-18,0-32.61,16.93-32.61,37.81,0,.41,0,.82,0,1.23a29.14,29.14,0,0,0-3.87-.26c-18,0-32.61,16.08-32.61,35.88,0,16.15,9.73,29.78,23.06,34.28a28,28,0,0,0-.12,28.19,49.2,49.2,0,0,0-1,10.24,48.31,48.31,0,0,0,4,19.34,34.42,34.42,0,0,0-1.45,3.94c-.46,0-.92,0-1.39,0-15.43,0-28.64,10-34,24a43.47,43.47,0,0,0-30.68-16.1l-.5.16c-3.72,1.07-24.95,9.67-24.95,9.67s19.62-7,38.21,4.82,27.63,26.84,27.63,26.84,2.11-33.26,18.05-36,18.08-3.78,18.08-3.78l6.9-10.71a18.17,18.17,0,0,1-10.11-15c-1.07-11.27,3.71-16.66,3.71-16.66s-8.47-16.08-4.75-23.06S3813.76,898,3813.76,898s-47.29-10.72-32.42-35.41,37.18-14,37.18-14-6.37-31.14,15.4-38.12,27.63.53,27.63.53l-4.79,24.7s12.2-25.22,28.13-30.59a249.89,249.89,0,0,1,30.31-8l-20.2-3.78,4.26-5.89s-28.68-13.43-14.87-24.7,22.84-1.6,22.84-1.6l-9.58,14.49s10.1-11.79,28.16-8.57,25,8,25,8l-9-11.28s.52-19.3,28.67-6.42-6.9,30-6.9,30l-10.61-9.14s6.91,7.53,1.07,25.24-27.1,35.41-27.1,35.41,16.45-12.88,35.57-3.22,29.23,19.31,29.23,19.31l2.12-32.73,22.3-1.6-9,12.88,35.06-11.28-10.62-14s-1.05-33.8,27.1-38.09c19.31-3,30.36,1.68,35.4,4.88v-9.54a51,51,0,0,0-25.89-6.93c-26,0-47,18.65-47,41.68a37.49,37.49,0,0,0,2.2,12.66,16.31,16.31,0,0,0,1.29,3.91,48.44,48.44,0,0,0-5.57.72,27.41,27.41,0,0,0-18.08-6.62c-11.69,0-21.57,6.95-24.8,16.51a23,23,0,0,0-14.33-4.88,23.77,23.77,0,0,0-8.32,1.51c-.22-.39-.45-.78-.69-1.16,8.46-6.75,13.8-16.58,13.8-27.51,0-.44,0-.85,0-1.29,12.26-3.43,21.1-13.28,21.1-24.88C3987.68,754.93,3974,743.24,3957,743.24ZM3141.37,762.8l3.5,2.77A17,17,0,0,0,3141.37,762.8Zm379.73,88a31,31,0,0,0,1.61,7A33.52,33.52,0,0,0,3521.1,850.82Zm-410.38,38.81c-.94,0-1.92.06-2.9.13-28.37,2-36,28.44-36,28.44,34.62-30.43,62.27-13.66,73-4.6-13.42,13.54-6.3,30.69-6.3,30.69,7.39-41.58,43.19-34.47,43.19-34.47s-18.76-12.05-35.07,2.08C3141.92,903.45,3131.09,889.49,3110.72,889.63Zm571,.94c-16.42,0-29.74,11.29-29.74,25.21a22.26,22.26,0,0,0,4.1,12.76c-16.22,3.64-28.84,15.75-32.07,30.93a52,52,0,0,0-10.4-1,48.17,48.17,0,0,0-28.35,8.82,25.75,25.75,0,0,0-43.38-7.84,62.42,62.42,0,0,0,1.07-11.63c0-1.06,0-2.11-.09-3.15l-8.22-8.75c1,1.25,4.71,7.17,1.92,21.73-3.19,16.64-5.33,22.56-5.33,22.56s15.42-25.25,32.42-20.95,19.66,22.55,19.66,22.55,13.27-12.34,29.73-12.88,25,3.75,25,3.75-5.29-19.3,10.12-27.35,23.34-7,23.34-7-17-18.24-.54-33.27,30.81,7.5,30.81,7.5,43-18.24,52.61,11.28c4.53,14,1.88,24.33-2.14,31.38a33.6,33.6,0,0,0,11.06-24.89c0-18.74-15.46-33.9-34.53-33.9a34.78,34.78,0,0,0-21.07,7.06c-5.1-7.68-14.79-12.89-25.93-12.89Z"/></g></g><path id="path14819" class="cls-4" d="M2793.35,949s-9.29,27,14.83,46.28a81.76,81.76,0,0,0-4.53,22.46c-24,4.08-34.75,23.64-34.75,38.18,0,17.31,9.17,36.64,9.17,36.64l-3.06-18.31c-4.07-54,48.87-56,66.19-43.78s18.33,13.23,18.33,13.23-9-23.69-40.73-26.5c-5-35.35,22.16-50.07,40.73-46.84,0,0-28.6-8.94-45,13.07-11-5.23-17.64-13.52-21.16-34.43Z"/><path id="path14821" class="cls-4" d="M2632.6,1008.2c31.68-78.48,100.09-26.64,100.09-26.64s-33.84-17.28-62.65-1.44-37.44,44.65-37.44,44.65Z"/><path id="path14823" class="cls-4" d="M3994.39,849.28a39.33,39.33,0,0,0-17.32,4.47c-15.48,7.83-20.26,21-21.68,30.18a36.72,36.72,0,0,0-17.13-3.81c-10.33.39-21.23,4.08-28.35,7,5.77-5,13.31-14.05,6.33-23.09-9.44-12.23-33.08-8-33.08-8,35.92,7.12,27.63,25.79,23.25,32.57,0,0,0,0,0,0-2.69,1.2-4.41,2-4.41,2l3.5-.73c-.54.74-.89,1.17-.89,1.17s.8-.5,2-1.39l13.51-2.8c53.78-6.13,57.86,46.72,46.31,64.49s-12.54,18.8-12.54,18.8,23.33-9.85,24.92-41.71c28.22-5.12,43.91,11,47.7,27.28-12.15,11.39-10.56,33.9-10.56,33.9,3.32-11.42,7.28-18.79,11.34-23.41,0,.39-.07.79-.12,1.17,0,0,.16-.53.35-1.42,12.29-13.66,25.54-2.42,25.54-2.42s-10.55-19.86-24.57-9.45c-.3-9.66-3.46-22.5-16.1-31.19,4.81-11.18,12.86-18.17,33.62-22.49,0,0-27.33-8.24-45.68,16.6a82.1,82.1,0,0,0-22.62-3.69c-2.75-13.12-10.06-22-18.49-27.31,26.35-43.2,67.38-22.3,67.38-22.3s-13.11-14.81-32.23-14.5Z"/></g></g></g></svg>