<svg width="32" height="53" viewBox="0 0 32 53" fill="none" xmlns="http://www.w3.org/2000/svg">
<g clip-path="url(#clip0_100_2406)">
<path d="M16 13.3314C16.5965 13.333 17.1874 13.2168 17.7385 12.9896C18.2896 12.7623 18.7899 12.4284 19.2106 12.0073C19.6336 11.5886 19.969 11.0904 20.1973 10.5416C20.4255 9.99281 20.5421 9.40438 20.5403 8.8104C20.5403 5.72887 17.245 1.54668 16.8699 1.07994L16 -1.98461e-07L15.1309 1.07994C14.755 1.54668 11.4598 5.72887 11.4598 8.8104C11.4581 9.40436 11.5748 9.99274 11.803 10.5415C12.0313 11.0902 12.3666 11.5885 12.7895 12.0073C13.2102 12.4283 13.7106 12.7621 14.2617 12.9893C14.8127 13.2166 15.4036 13.3329 16 13.3314Z" fill="#FDBF00"/>
<path d="M15.1309 1.07993C14.755 1.54668 11.4598 5.72886 11.4598 8.8104C11.4581 9.40435 11.5748 9.99273 11.803 10.5415C12.0313 11.0902 12.3666 11.5885 12.7895 12.0073C13.21 12.4283 13.7102 12.7622 14.2612 12.9894C14.8122 13.2167 15.4029 13.3329 15.9993 13.3314L15.9993 0.000732422L15.1309 1.07993Z" fill="#FF9100"/>
<path d="M24.2253 19.8539L24.2253 17.5609L22.5911 11.113L9.41685 11.113L7.77443 17.5601L7.77443 19.8532L24.2253 19.8539Z" fill="#C6DCF8"/>
<path d="M9.41326 11.1123L7.77456 17.5601L7.77456 19.8532L15.9993 19.8532L15.9993 11.1123L9.41326 11.1123Z" fill="#82BCEA"/>
<path d="M14.9787 52.2545L15.9994 53.0001L17.02 52.2545C17.7442 51.7255 18.4268 51.1424 19.0621 50.5103C20.6949 48.8872 21.9903 46.9596 22.8743 44.8376C23.7687 42.7017 24.228 40.4102 24.2256 38.0961L24.2256 35.9407L7.77541 35.9407L7.77541 38.0976C7.77906 40.8545 8.43138 43.5723 9.68005 46.033C10.9344 48.4906 12.7496 50.6214 14.9802 52.2545L14.9787 52.2545Z" fill="#FD4B49"/>
<path d="M15.9993 53.0001L15.9993 35.9407L7.7753 35.9407L7.7753 38.0976C7.77895 40.8546 8.43127 43.5723 9.67994 46.033C10.9345 48.4905 12.7497 50.6212 14.9801 52.2545L15.9993 53.0001Z" fill="#E70B69"/>
<path d="M32 16.7539L29.7715 16.7539L29.7715 19.4212L21.9969 19.4212L21.9969 36.5006L32 27.9942L32 16.7539Z" fill="#445EA0"/>
<path d="M0.000112042 27.9971L10.0032 36.5035L10.0032 19.4212L2.22863 19.4212L2.22863 16.7539L0.000112534 16.7539L0.000112042 27.9971Z" fill="#445EA0"/>
<path d="M0.000112042 27.9971L10.0032 36.5035L10.0032 19.4212L2.22863 19.4212L2.22863 16.7539L0.000112534 16.7539L0.000112042 27.9971Z" fill="#224070"/>
<path d="M24.2266 17.5586L24.2266 38.1529L7.77863 38.1529L7.77863 17.5586L24.2266 17.5586Z" fill="#EAF2F9"/>
<path d="M16.002 17.5579L16.002 38.1529L7.77873 38.1529L7.77873 17.5579L16.002 17.5579Z" fill="#C6DCF8"/>
<path d="M13.8582 31.3909C15.041 32.5686 16.9585 32.5686 18.1413 31.3909C19.324 30.2132 19.324 28.3038 18.1413 27.1261C16.9585 25.9484 15.041 25.9484 13.8582 27.1261C12.6755 28.3038 12.6755 30.2132 13.8582 31.3909Z" fill="#71D5FF"/>
<path d="M12.9715 29.2584C12.9715 30.0581 13.2904 30.8251 13.8582 31.3908C14.426 31.9564 15.1961 32.2744 15.9993 32.2748L15.9993 26.2441C15.1965 26.2445 14.4267 26.5622 13.859 27.1274C13.2913 27.6925 12.9721 28.459 12.9715 29.2584Z" fill="#52BBEF"/>
<path d="M13.0707 26.3417C13.4545 25.9575 13.911 25.653 14.4137 25.4458C14.9165 25.2386 15.4556 25.1328 15.9997 25.1345C16.5441 25.133 17.0833 25.2391 17.5862 25.4466C18.0891 25.654 18.5457 25.9588 18.9295 26.3432C19.3153 26.7254 19.6211 27.1799 19.8293 27.6805C20.0376 28.1811 20.144 28.7179 20.1426 29.2598C20.1441 29.8018 20.0377 30.3387 19.8295 30.8394C19.6213 31.3402 19.3154 31.7948 18.9295 32.1771C18.5456 32.5614 18.089 32.866 17.5862 33.0735C17.0833 33.2809 16.5441 33.3871 15.9997 33.3857C15.4554 33.3871 14.9162 33.2809 14.4134 33.0735C13.9105 32.866 13.4539 32.5614 13.07 32.1771C12.6841 31.7948 12.3782 31.3402 12.17 30.8394C11.9618 30.3387 11.8554 29.8018 11.8569 29.2598C11.8553 28.7176 11.9617 28.1805 12.17 27.6796C12.3784 27.1787 12.6846 26.7239 13.0707 26.3417ZM17.354 30.6082C17.5324 30.4316 17.6738 30.2214 17.7701 29.99C17.8664 29.7585 17.9155 29.5103 17.9148 29.2598C17.9154 29.0094 17.8662 28.7613 17.7699 28.53C17.6737 28.2986 17.5323 28.0886 17.354 27.9121C17.1766 27.7344 16.9655 27.5936 16.7331 27.4977C16.5006 27.4018 16.2513 27.3529 15.9997 27.3536C15.7483 27.3529 15.4991 27.4019 15.2668 27.4977C15.0345 27.5936 14.8236 27.7344 14.6463 27.9121C14.468 28.0886 14.3266 28.2986 14.2303 28.53C14.134 28.7613 14.0848 29.0094 14.0855 29.2598C14.0847 29.5103 14.1339 29.7585 14.2302 29.99C14.3264 30.2214 14.4679 30.4316 14.6463 30.6082C14.8236 30.7859 15.0345 30.9267 15.2668 31.0226C15.4991 31.1184 15.7483 31.1674 15.9997 31.1667C16.2513 31.1674 16.5006 31.1185 16.7331 31.0226C16.9655 30.9267 17.1766 30.7859 17.354 30.6082Z" fill="#2A4977"/>
<path d="M15.9993 31.1652C15.7479 31.1657 15.499 31.1167 15.2668 31.0208C15.0346 30.925 14.8238 30.7842 14.6466 30.6067C14.4681 30.4301 14.3267 30.2199 14.2304 29.9885C14.1342 29.757 14.085 29.5088 14.0857 29.2583C14.0851 29.0079 14.1343 28.7598 14.2306 28.5285C14.3268 28.2972 14.4682 28.0871 14.6466 27.9106C14.8237 27.733 15.0345 27.5921 15.2667 27.4963C15.4989 27.4004 15.7479 27.3514 15.9993 27.3521L15.9993 25.1345C15.4552 25.1334 14.9163 25.2396 14.4137 25.4471C13.9111 25.6545 13.4547 25.9591 13.071 26.3432C12.685 26.7252 12.3789 27.1797 12.1706 27.6804C11.9622 28.181 11.8557 28.7178 11.8572 29.2598C11.8557 29.8017 11.9621 30.3387 12.1703 30.8394C12.3785 31.3402 12.6844 31.7948 13.0703 32.1771C13.4541 32.5612 13.9106 32.8657 14.4133 33.073C14.9161 33.2803 15.4551 33.3864 15.9993 33.385L15.9993 31.1652Z" fill="#15325B"/>
</g>
<defs>
<clipPath id="clip0_100_2406">
<rect width="53" height="32" fill="white" transform="translate(32) rotate(90)"/>
</clipPath>
</defs>
</svg>
