<svg width="238" height="339" viewBox="0 0 238 339" fill="none" xmlns="http://www.w3.org/2000/svg">
<path d="M40.2939 306.339C29.5966 306.339 15.1937 319.321 0 338.005H79.0062C63.8824 319.074 50.0768 306.339 40.2939 306.339Z" fill="#28335C" fill-opacity="0.2"/>
<path d="M200.984 294.926C190.801 294.926 177.092 312.721 162.629 338.333H237.834C223.438 312.382 210.296 294.926 200.984 294.926Z" fill="#28335C" fill-opacity="0.2"/>
<path d="M132.846 265.42C108.741 265.42 62.6328 313.26 40.1226 338.332H224.251C196.45 307.929 153.829 265.42 132.846 265.42Z" fill="#28335C"/>
<path d="M114.203 305.41C140.662 321.196 171.616 318.495 192.738 308.025C194.302 307.249 194.627 304.837 193.347 303.535C170.221 279.998 147.653 261.742 133.282 261.742C120.346 261.742 102.292 274.357 83.717 291.516C82.0385 293.067 82.9254 296.2 85.0679 296.294C94.1746 296.693 103.994 299.319 114.203 305.41Z" fill="white"/>
<path d="M116.768 281.268L101.938 287.893L109.866 279.359L114.589 276.871L116.768 281.268Z" fill="#D12229"/>
<path d="M96.2357 79.7739C96.3132 81.1784 96.433 82.7437 96.5678 84.2398C96.7011 85.7522 96.8583 87.2676 97.0288 88.7808C97.3743 91.8072 97.7884 94.8269 98.2709 97.8287C99.2569 103.824 100.489 109.769 102.16 115.498C102.983 118.368 103.915 121.184 104.994 123.894C106.068 126.603 107.244 129.25 108.636 131.668C111.367 136.51 114.887 140.681 118.867 142.506L113.66 153.234C109.997 151.413 106.988 148.816 104.559 146.035C102.12 143.24 100.197 140.238 98.5539 137.193C96.9007 134.144 95.6042 131.026 94.4462 127.897C93.2845 124.768 92.3246 121.615 91.4943 118.453C89.8084 112.13 88.6482 105.771 87.7493 99.4052C87.3115 96.2202 86.9481 93.033 86.6576 89.8375C86.5139 88.2394 86.3851 86.6406 86.2808 85.0351C86.1736 83.4139 86.0865 81.8583 86.0321 80.1381L96.2357 79.7739Z" fill="#F6D3D4"/>
<path d="M87.771 100.729C85.9801 89.2939 85.6524 80.5186 85.6398 80.1508L96.6275 79.7583C96.6305 79.8424 96.9515 88.2819 98.6345 99.0277L87.771 100.729Z" fill="#EEAFB2"/>
<path d="M107.568 128.145C109.205 131.247 111.214 134.18 113.464 136.657C114.588 137.893 115.774 139.011 116.976 139.935C118.175 140.859 119.394 141.583 120.494 142.025L113.979 155.451C111.474 154.119 109.388 152.51 107.556 150.807C105.726 149.1 104.149 147.286 102.735 145.414C99.9175 141.663 97.7207 137.684 95.9729 133.509L107.568 128.145Z" fill="#0060FA"/>
<path d="M152.982 195.358C157.58 192.339 162.253 188.972 166.367 185.454C168.403 183.7 170.381 181.823 171.732 180.076C172.06 179.65 172.341 179.236 172.525 178.906C172.699 178.599 172.787 178.313 172.724 178.465C172.721 178.491 172.694 178.571 172.69 178.667C172.679 178.745 172.674 178.824 172.679 178.903C172.68 178.943 172.673 178.893 172.673 178.893C172.662 178.789 172.636 178.547 172.597 178.331C172.519 177.875 172.405 177.366 172.255 176.851C171.653 174.771 170.593 172.638 169.245 170.667C167.899 168.685 166.24 166.84 164.388 165.146C160.668 161.759 156.165 158.989 151.325 156.755L156.464 145.995C162.071 148.755 167.51 152.218 172.265 156.76C176.978 161.311 181.072 166.948 182.958 173.957C183.188 174.841 183.377 175.751 183.514 176.729C183.582 177.229 183.635 177.708 183.666 178.327C183.672 178.507 183.681 178.639 183.68 178.86C183.675 179.119 183.662 179.379 183.641 179.638C183.592 180.094 183.523 180.535 183.428 180.912C183.049 182.482 182.48 183.511 181.935 184.457C181.38 185.375 180.81 186.137 180.237 186.845C177.943 189.616 175.591 191.643 173.202 193.621C170.813 195.572 168.383 197.359 165.923 199.075C163.445 200.797 161.009 202.406 158.379 204.025L152.982 195.358Z" fill="#F6D3D4"/>
<path d="M166.321 167.29C163.817 164.662 161.099 162.341 158.232 160.544C155.371 158.744 152.36 157.49 149.461 156.954L153.011 142.46C158.022 143.89 162.415 146.336 166.199 149.214C169.991 152.104 173.208 155.44 176.018 158.969L166.321 167.29Z" fill="#0060FA"/>
<path d="M152.29 202.978H116.878L109.233 153.627C108.277 147.458 113.048 141.89 119.291 141.89H150.243C156.515 141.89 161.295 147.508 160.29 153.699L152.29 202.978Z" fill="#0060FA"/>
<path d="M133.838 147.87C131.255 147.87 129.161 145.776 129.161 143.194V133.112H138.514V143.194C138.513 145.776 136.42 147.87 133.838 147.87Z" fill="#EEAFB2"/>
<path d="M129.161 140.074C130.181 140.267 131.229 140.378 132.302 140.378H132.432C134.575 140.378 136.62 139.961 138.513 139.232V133.111H129.16V140.074H129.161Z" fill="#E37A7F"/>
<path d="M112.134 107.097C111.966 105.369 112.231 103.602 112.896 101.999C113.593 100.32 114.792 98.7759 116.458 98.0498C117.58 97.5613 119.071 97.5553 119.841 98.5063C120.297 99.0708 120.396 99.8385 120.428 100.563C120.573 103.832 119.711 107.047 118.427 110.029C117.776 111.543 117.025 113.025 116.195 114.449C115.694 115.309 115.419 115.244 114.902 114.414C114.455 113.698 114.069 112.926 113.701 112.166C112.926 110.569 112.306 108.874 112.134 107.097Z" fill="#C05746"/>
<path d="M118.227 115.4V122.815C114.644 122.815 111.739 119.599 111.739 115.631C111.739 115.234 111.768 114.845 111.824 114.466C112.53 109.671 118.227 110.523 118.227 115.4Z" fill="#E37A7F"/>
<path d="M132.433 137.653H132.302C122.916 137.653 115.235 129.972 115.235 120.585V109.978C115.235 100.591 122.916 92.9109 132.302 92.9109H132.433C141.819 92.9109 149.5 100.592 149.5 109.978V120.585C149.501 129.973 141.82 137.653 132.433 137.653Z" fill="#F6D3D4"/>
<path d="M129.967 132.224C129.754 132.224 129.58 132.054 129.575 131.841C129.57 131.624 129.741 131.444 129.959 131.439C130.237 131.432 136.774 131.21 137.088 125.12C137.1 124.905 137.258 124.729 137.499 124.748C137.716 124.759 137.883 124.944 137.871 125.161C137.52 131.984 130.051 132.223 129.976 132.225C129.972 132.224 129.97 132.224 129.967 132.224Z" fill="#E37A7F"/>
<path d="M129.487 120.876C129.187 121.164 128.839 121.485 128.83 121.915C128.826 122.081 128.876 122.243 128.949 122.39C129.274 123.05 130.036 123.348 130.706 123.233C131.497 123.098 132.016 122.479 132.381 121.759C132.893 120.747 133.192 119.616 133.266 118.47C133.332 117.468 133.36 116.021 132.664 115.249C132.301 114.846 132.104 115.17 132.029 115.628C131.693 117.65 130.944 119.475 129.487 120.876Z" fill="#E37A7F"/>
<path d="M142.588 115.119C142.154 115.119 141.802 114.767 141.802 114.333C141.802 113.079 140.807 112.06 139.582 112.06C138.358 112.06 137.362 113.079 137.362 114.333C137.362 114.767 137.011 115.119 136.577 115.119C136.143 115.119 135.791 114.767 135.791 114.333C135.791 112.214 137.491 110.489 139.582 110.489C141.672 110.489 143.372 112.214 143.372 114.333C143.373 114.767 143.021 115.119 142.588 115.119Z" fill="#28335C"/>
<path d="M124.683 115.119C124.249 115.119 123.898 114.767 123.898 114.333C123.898 113.079 122.902 112.06 121.678 112.06C120.454 112.06 119.458 113.079 119.458 114.333C119.458 114.767 119.107 115.119 118.672 115.119C118.238 115.119 117.887 114.767 117.887 114.333C117.887 112.214 119.587 110.489 121.677 110.489C123.767 110.489 125.468 112.214 125.468 114.333C125.469 114.767 125.118 115.119 124.683 115.119Z" fill="#28335C"/>
<path d="M115.133 87.4144C114.1 89.3654 113.966 91.697 114.359 93.8693C114.629 95.3623 115.149 96.8331 116.052 98.0529C117.849 100.48 120.966 101.631 123.98 101.795C126.996 101.959 129.982 101.269 132.942 100.673C135.902 100.076 138.952 99.5676 141.926 100.09C143.54 100.374 145.257 101.104 145.914 102.604C146.508 103.963 146.061 105.529 146.153 107.01C146.242 108.44 146.838 109.782 147.424 111.089C148.459 113.395 149.494 115.702 150.528 118.008C151.997 116.408 153.652 114.971 154.949 113.228C156.247 111.485 154.905 102.775 153.034 101.223C152.709 100.953 152.365 100.678 152.183 100.297C152.029 99.9756 152.004 99.61 151.98 99.2548C151.82 96.9842 151.479 94.5678 149.976 92.8587C148.135 90.7647 145.062 90.3089 142.275 90.3551C139.487 90.4013 136.612 90.7982 133.972 89.9001C132.208 89.2999 130.688 88.1628 129.122 87.1537C127.068 85.8304 124.888 84.7045 122.621 83.7952C121.34 83.2814 119.673 83.854 118.419 84.3716C117.013 84.951 115.842 86.0762 115.133 87.4144Z" fill="#C05746"/>
<path d="M149.194 115.4V122.815C152.777 122.815 155.682 119.599 155.682 115.631C155.682 115.234 155.652 114.845 155.597 114.466C154.891 109.671 149.194 110.523 149.194 115.4Z" fill="#E37A7F"/>
<path d="M141.817 104.479C140.618 103.553 138.312 103.633 137.126 104.709C136.542 105.039 136.432 105.862 136.903 106.373C137.457 106.974 138.139 106.625 138.8 106.5C139.549 106.358 140.223 106.634 140.95 106.572C141.868 106.494 142.745 105.196 141.817 104.479Z" fill="#C05746"/>
<path d="M123.14 105.174C122.094 103.846 119.097 104.316 118.314 105.734C118.064 106.187 118.373 106.825 118.927 106.802C119.521 106.778 120.087 106.62 120.685 106.636C121.382 106.655 122.047 106.947 122.73 106.723C123.444 106.489 123.574 105.725 123.14 105.174Z" fill="#C05746"/>
<path d="M117.879 87.6349C117.879 87.6349 114.238 97.7045 124.286 99.0538C120.77 96.5584 118.875 92.5222 117.879 87.6349Z" fill="#CD796B"/>
<path d="M139.386 126.655C139.293 126.655 139.201 126.622 139.127 126.557C137.079 124.748 135.422 125.871 135.405 125.883C135.229 126.007 134.984 125.965 134.859 125.787C134.734 125.609 134.777 125.364 134.955 125.24C134.976 125.224 137.141 123.753 139.647 125.969C139.809 126.113 139.825 126.361 139.681 126.523C139.602 126.609 139.494 126.655 139.386 126.655Z" fill="#E37A7F"/>
<path d="M91.3999 93.3451C89.0236 93.3451 87.0785 92.1082 87.0785 90.5957V58.9684C87.0785 57.456 89.0228 56.2191 91.3999 56.2191C93.7761 56.2191 95.7212 57.456 95.7212 58.9684V90.5957C95.7212 92.1082 93.7769 93.3451 91.3999 93.3451Z" fill="#FFC72C"/>
<path d="M91.3999 56.2198C89.0236 56.2198 87.0785 57.4567 87.0785 58.9691V70.6487C88.4934 71.0635 89.9343 71.3011 91.3999 71.3011C92.8654 71.3011 94.3064 71.0635 95.7212 70.6487V58.9691C95.7212 57.4567 93.7769 56.2198 91.3999 56.2198Z" fill="#F49E2B"/>
<path d="M75.6746 92.0827C75.6746 90.4079 77.0448 89.0377 78.7196 89.0377H103.549C105.224 89.0377 106.594 90.4079 106.594 92.0827C106.594 93.7574 105.224 95.1277 103.549 95.1277H78.7196C77.044 95.1269 75.6746 93.7574 75.6746 92.0827Z" fill="#FFC72C"/>
<path d="M91.4 68.9858C84.5825 68.9858 78.249 64.1007 72.9952 57.9936C63.4112 46.8531 58.4822 33.1101 58.4822 19.1019V6.58006C58.4822 4.15985 60.6961 2.19836 63.4269 2.19836H119.373C122.104 2.19836 124.318 4.15985 124.318 6.58006V19.1026C124.318 33.1108 119.389 46.8539 109.805 57.9943C104.551 64.1007 98.2176 68.9858 91.4 68.9858Z" fill="#FFC72C"/>
<path d="M122.097 2.92456H60.7036C59.3654 3.70871 58.4822 5.05211 58.4822 6.58019V8.77403H124.124C124.191 8.77403 124.252 8.75839 124.318 8.75466V6.58019C124.318 5.05211 123.434 3.70871 122.097 2.92456Z" fill="#F49E2B"/>
<path d="M55.5576 2.92436C55.5576 1.31585 56.8735 0 58.482 0H124.124C125.733 0 127.048 1.31585 127.048 2.92436C127.048 4.53287 125.733 5.84872 124.124 5.84872H58.482C56.8735 5.84872 55.5576 4.53287 55.5576 2.92436Z" fill="#FFC72C"/>
<path d="M70.6687 54.7116C65.7635 54.7116 59.8298 53.3124 54.6856 50.8564C46.9171 47.1486 42.1191 41.7661 41.1749 35.7029L41.0416 34.851C40.1427 29.1058 39.3675 24.144 40.0258 19.9879C40.874 14.6344 44.2027 11.3563 49.653 10.5074C59.9416 8.90258 76.7162 24.5841 79.9757 27.7437L80.6243 28.3723L80.8403 29.2495C81.2059 30.7396 84.2904 43.9979 79.8633 50.6434C78.4499 52.7658 76.3938 54.0913 73.9185 54.477C72.9079 54.6349 71.8162 54.7116 70.6687 54.7116ZM51.3159 16.6651C51.0724 16.6651 50.8401 16.6815 50.6204 16.7158C47.8092 17.1536 46.6609 18.2677 46.232 20.9709C45.7286 24.1507 46.4673 28.8771 47.25 33.8807L47.3833 34.7363C47.9902 38.631 51.6376 42.44 57.3925 45.1871C62.5941 47.6699 68.8427 48.9068 72.9526 48.2701C73.6906 48.1547 74.1925 47.8241 74.6341 47.1635C76.6969 44.0716 75.9678 36.3575 74.9402 31.6206C67.9871 25.0406 56.7767 16.6651 51.3159 16.6651Z" fill="#FFC72C"/>
<path d="M111.599 54.7119C110.451 54.7119 109.36 54.6359 108.349 54.4773C105.873 54.0915 103.818 52.766 102.404 50.6437C97.977 43.9981 101.061 30.7398 101.427 29.2497L101.643 28.3725L102.292 27.744C105.55 24.5843 122.333 8.90655 132.614 10.5076C138.065 11.3565 141.393 14.6339 142.242 19.9874C142.9 24.1427 142.124 29.1045 141.226 34.849L141.093 35.7031C140.148 41.7663 135.35 47.1489 127.582 50.8566C122.438 53.3133 116.504 54.7119 111.599 54.7119ZM107.328 31.6208C106.3 36.357 105.571 44.0719 107.634 47.1638C108.075 47.8243 108.578 48.1549 109.316 48.2704C113.419 48.9086 119.674 47.6709 124.876 45.1874C130.631 42.4403 134.278 38.6312 134.885 34.7365L135.018 33.8794C135.8 28.8766 136.539 24.1502 136.036 20.9719C135.607 18.2679 134.459 17.1546 131.648 16.7168C126.479 15.9103 114.59 24.7466 107.328 31.6208Z" fill="#FFC72C"/>
<path d="M90.8817 89.0376H87.0428C85.2459 89.0376 83.7886 87.581 83.7886 85.7833V76.2402C83.7886 74.3823 85.2943 72.8765 87.1523 72.8765H94.9401C97.7066 72.8765 99.9496 75.1195 99.9496 77.886V79.9704C99.9489 84.9776 95.8889 89.0376 90.8817 89.0376Z" fill="#F6D3D4"/>
<path d="M118.04 202.977L109.866 279.359C109.866 279.359 112.175 281.629 115.761 279.359L127.615 220.834C128.464 216.639 131.921 213.647 135.918 213.647V202.977H118.04V202.977Z" fill="#28335C"/>
<path d="M151.795 281.788L166.763 287.893L159.149 279.359L154.163 277.488L151.795 281.788Z" fill="#D12229"/>
<path d="M150.974 202.977L159.149 279.359C159.149 279.359 156.839 281.629 153.254 279.359L141.4 220.834C140.55 216.639 137.093 213.647 133.096 213.647V202.977H150.974V202.977Z" fill="#28335C"/>
<path d="M152.907 208.706H149.068C147.271 208.706 145.814 207.25 145.814 205.452V195.909C145.814 194.051 147.319 192.545 149.177 192.545H156.965C159.732 192.545 161.975 194.788 161.975 197.555V199.639C161.975 204.646 157.915 208.706 152.907 208.706Z" fill="#F6D3D4"/>
<path d="M134.767 176.606L133.209 174.575C132.75 173.978 121.991 159.742 121.991 141.891H125.917C125.917 154.414 131.862 165.313 134.767 169.889C137.671 165.313 143.617 154.413 143.617 141.891H147.544C147.544 159.742 136.784 173.977 136.325 174.575L134.767 176.606Z" fill="#00BCAA"/>
<path d="M134.767 193.323C139.857 193.323 143.983 189.197 143.983 184.107C143.983 179.018 139.857 174.892 134.767 174.892C129.678 174.892 125.552 179.018 125.552 184.107C125.552 189.197 129.678 193.323 134.767 193.323Z" fill="#FFC72C"/>
<path d="M142.452 183.468C142.235 183.468 142.06 183.292 142.06 183.075C142.06 179.623 139.251 176.814 135.798 176.814C135.581 176.814 135.406 176.638 135.406 176.421C135.406 176.205 135.582 176.029 135.798 176.029C139.684 176.029 142.845 179.19 142.845 183.075C142.845 183.292 142.67 183.468 142.452 183.468Z" fill="#FFE9AB"/>
<path d="M141.006 186.694C142.425 183.246 140.78 179.3 137.332 177.881C133.884 176.462 129.938 178.107 128.519 181.555C127.099 185.003 128.744 188.949 132.192 190.368C135.641 191.788 139.587 190.143 141.006 186.694Z" fill="#F49E2B"/>
<path d="M136.66 179.575V188.466H133.92V182.66H131.36L133.016 179.575H136.66Z" fill="#FFC72C"/>
<path d="M99.5756 15.3903V57.3181H86.6524V29.9354H74.5812L82.3869 15.3903H99.5756Z" fill="#F49E2B"/>
<path d="M106.248 55.0379C115.832 43.8975 120.761 30.1544 120.761 16.1462C116.875 30.4069 112.129 43.4954 106.248 55.0379Z" fill="#FFE9AB"/>
<path d="M82.271 3.51114H59.562C58.9677 3.51114 58.4822 3.02486 58.4822 2.43135C58.4822 1.83709 58.9685 1.35156 59.562 1.35156H82.271C82.8653 1.35156 83.3508 1.83784 83.3508 2.43135C83.3508 3.02561 82.8653 3.51114 82.271 3.51114Z" fill="#FFE9AB"/>
<path d="M102.24 92.0827H93.5199C93.0023 92.0827 92.5793 91.659 92.5793 91.1415C92.5793 90.6239 93.0031 90.2002 93.5199 90.2002H102.24C102.758 90.2002 103.181 90.6239 103.181 91.1415C103.181 91.659 102.758 92.0827 102.24 92.0827Z" fill="#FFE9AB"/>
</svg>
