<svg width="184" height="126" viewBox="0 0 184 126" fill="none" xmlns="http://www.w3.org/2000/svg">
<path d="M91.9849 0C111.01 0 128.106 14.2666 130.404 33.8979C133.016 56.1963 115.967 76.6274 91.9849 76.6274C68.0032 76.6274 50.9539 56.1963 53.566 33.8979C55.8634 14.2666 72.9597 0 91.9849 0Z" fill="url(#paint0_radial_1915_2873)" style="mix-blend-mode:screen"/>
<path d="M184 69.2419V100.101H0V69.2419C0 64.2521 4.04885 60.2061 9.0287 60.2061H174.968C179.958 60.2061 183.997 64.2521 183.997 69.2386L184 69.2419Z" fill="#0171FF"/>
<path d="M174.747 92.9784H160.183V66.5938H175.206L174.747 73.5915H167.929V76.7875H173.857V82.9152H167.929V86.5228H175.209L174.747 92.9818V92.9784ZM160.839 92.3192H174.131L174.5 87.1788H167.269V82.2526H173.197V77.4435H167.269V72.9322H174.131L174.503 67.253H160.839V92.3192Z" fill="#0171FF"/>
<path d="M59 89.6731L66.1551 79.7486L66.1318 83.0412L59.2572 73.3269H64.4716L68.8675 79.6552L66.6462 79.6786L70.972 73.3269H75.9759L69.1014 82.8544V79.5852L76.35 89.6731H71.0188L66.5526 83.0179H68.6805L64.2845 89.6731H59Z" fill="white"/>
<path d="M77.4215 89.6731V73.3269H84.904C86.4005 73.3269 87.6865 73.5682 88.7621 74.0508C89.8533 74.5334 90.6951 75.234 91.2875 76.1525C91.8798 77.0554 92.176 78.1296 92.176 79.375C92.176 80.6049 91.8798 81.6712 91.2875 82.5742C90.6951 83.4771 89.8533 84.1777 88.7621 84.6758C87.6865 85.1584 86.4005 85.3997 84.904 85.3997H79.9936L82.0513 83.3915V89.6731H77.4215ZM82.0513 83.8819L79.9936 81.7569H84.6234C85.5899 81.7569 86.3069 81.5467 86.7746 81.1264C87.2578 80.706 87.4994 80.1223 87.4994 79.375C87.4994 78.6122 87.2578 78.0206 86.7746 77.6003C86.3069 77.1799 85.5899 76.9698 84.6234 76.9698H79.9936L82.0513 74.8448V83.8819Z" fill="white"/>
<path d="M100.414 90C99.0733 90 97.7794 89.8365 96.5323 89.5096C95.3008 89.1671 94.2954 88.7312 93.516 88.2019L95.0358 84.7926C95.7685 85.2596 96.6103 85.6488 97.5612 85.9602C98.5277 86.256 99.4864 86.4038 100.437 86.4038C101.076 86.4038 101.591 86.3494 101.981 86.2404C102.37 86.1158 102.651 85.9602 102.822 85.7734C103.009 85.571 103.103 85.3375 103.103 85.0728C103.103 84.6992 102.931 84.4034 102.588 84.1854C102.246 83.9675 101.801 83.7885 101.256 83.6484C100.71 83.5082 100.102 83.3681 99.4318 83.228C98.7771 83.0879 98.1146 82.9089 97.4443 82.6909C96.7895 82.473 96.1894 82.1928 95.6438 81.8503C95.0982 81.4922 94.6539 81.033 94.311 80.4725C93.968 79.8965 93.7965 79.1726 93.7965 78.3008C93.7965 77.3201 94.0616 76.4327 94.5916 75.6387C95.1372 74.8448 95.9478 74.2065 97.0234 73.7239C98.099 73.2413 99.4396 73 101.045 73C102.121 73 103.173 73.1245 104.202 73.3736C105.246 73.6071 106.174 73.9574 106.984 74.4245L105.558 77.8571C104.779 77.4368 104.007 77.1255 103.243 76.9231C102.479 76.7051 101.739 76.5962 101.022 76.5962C100.383 76.5962 99.8683 76.6662 99.4786 76.8063C99.0889 76.9309 98.8083 77.1021 98.6368 77.3201C98.4653 77.538 98.3796 77.7871 98.3796 78.0673C98.3796 78.4254 98.5433 78.7134 98.8706 78.9313C99.2136 79.1337 99.6578 79.3049 100.203 79.4451C100.765 79.5696 101.373 79.7019 102.027 79.842C102.698 79.9821 103.36 80.1612 104.015 80.3791C104.685 80.5815 105.293 80.8617 105.839 81.2198C106.384 81.5623 106.821 82.0215 107.148 82.5975C107.491 83.158 107.663 83.8663 107.663 84.7225C107.663 85.6722 107.39 86.5517 106.844 87.3613C106.314 88.1552 105.511 88.7935 104.436 89.2761C103.376 89.7587 102.035 90 100.414 90Z" fill="white"/>
<path d="M117.962 90C116.668 90 115.468 89.7976 114.361 89.3929C113.27 88.9725 112.319 88.381 111.508 87.6181C110.713 86.8553 110.09 85.9602 109.637 84.9327C109.185 83.8897 108.959 82.7454 108.959 81.5C108.959 80.2546 109.185 79.1181 109.637 78.0907C110.09 77.0476 110.713 76.1447 111.508 75.3819C112.319 74.619 113.27 74.0353 114.361 73.6305C115.468 73.2102 116.668 73 117.962 73C119.474 73 120.822 73.2647 122.007 73.794C123.207 74.3233 124.205 75.0861 125 76.0824L122.054 78.7445C121.524 78.1218 120.939 77.647 120.3 77.3201C119.677 76.9931 118.975 76.8297 118.196 76.8297C117.525 76.8297 116.91 76.9386 116.348 77.1566C115.787 77.3745 115.304 77.6937 114.899 78.114C114.509 78.5188 114.197 79.0092 113.963 79.5852C113.745 80.1612 113.636 80.7995 113.636 81.5C113.636 82.2005 113.745 82.8388 113.963 83.4148C114.197 83.9908 114.509 84.489 114.899 84.9093C115.304 85.3141 115.787 85.6255 116.348 85.8434C116.91 86.0614 117.525 86.1703 118.196 86.1703C118.975 86.1703 119.677 86.0069 120.3 85.6799C120.939 85.353 121.524 84.8782 122.054 84.2555L125 86.9176C124.205 87.8984 123.207 88.6612 122.007 89.206C120.822 89.7353 119.474 90 117.962 90Z" fill="white"/>
<path d="M178.143 120.934C120.913 127.69 63.0871 127.69 5.86062 120.934C2.62221 120.529 0 117.564 0 114.341C0 109.103 0 103.866 0 98.6318H184V114.341C184 117.564 181.378 120.529 178.143 120.93V120.934Z" fill="#002D63"/>
<path d="M84.935 64.5865C82.9859 64.0175 81.8172 62.1401 82.3262 60.3965L82.9156 58.3852C83.4246 56.6383 85.4206 55.6845 87.3697 56.2534C89.3188 56.8223 90.4875 58.6998 89.9785 60.4434L89.3891 62.4547C88.8801 64.2016 86.8841 65.1554 84.935 64.5865Z" fill="#00408F"/>
<path d="M88.1474 62.7327C87.3403 63.8839 85.8634 64.4562 84.4334 64.0513C83.0034 63.6463 82.0456 62.388 81.9619 60.9824C82.5882 61.6015 83.3718 62.0768 84.276 62.3345L85.4682 62.6725C86.3724 62.9268 87.29 62.9335 88.1474 62.7327Z" fill="#0060D4"/>
<path d="M105.645 26.2538C103.746 23.1782 100.736 20.7754 96.9815 19.7145C89.0311 17.4656 80.7626 22.0839 78.5155 30.0288C77.6481 33.0876 77.8022 36.1932 78.77 38.9843C79.3795 40.7379 80.3105 42.3711 81.5161 43.7867V43.7967C82.2194 44.6334 82.5107 45.7913 82.1893 46.9225L81.6702 48.7598C81.4458 49.5529 81.5362 50.3628 81.8678 51.0589C82.2529 51.8688 82.9662 52.5213 83.8838 52.7958C83.9006 52.8025 83.9206 52.8058 83.9374 52.8125L85.6219 53.2877L86.1343 53.4316L88.9842 54.2382L89.4966 54.3821L90.7424 54.7335C90.9099 54.7803 91.0773 54.8138 91.2481 54.8339C92.025 54.9276 92.7953 54.7335 93.4249 54.3218C94.0712 53.9035 94.5736 53.261 94.798 52.4678L95.317 50.6305C95.6385 49.4994 96.4959 48.6527 97.5374 48.3113C102.119 46.8187 105.896 43.1441 107.306 38.1644C108.492 33.9711 107.765 29.6908 105.645 26.2504V26.2538Z" fill="#FFD524"/>
<path d="M93.4284 54.3253L92.1156 58.957C91.5664 60.9014 89.9957 62.2969 88.1471 62.732C87.2898 62.9328 86.3722 62.9261 85.468 62.6718L84.2758 62.3338C83.3716 62.0794 82.5879 61.6042 81.9617 60.9817C80.6154 59.6464 80.0092 57.6351 80.5585 55.6874L81.8712 51.0557C82.2631 51.8823 82.9965 52.5416 83.9409 52.8093L90.7492 54.7336C91.6936 55.0013 92.6648 54.8206 93.4317 54.3253H93.4284Z" fill="#C2DCFF"/>
<path d="M91.5294 61.6744L91.4591 61.8384C91.2716 62.2802 90.7558 62.4843 90.3138 62.2969L85.9166 60.4194L79.8316 57.8225C79.3929 57.6351 79.1853 57.1197 79.3728 56.6779L79.4432 56.5173C79.6307 56.0755 80.1464 55.8714 80.5885 56.0588L86.6735 58.6558L91.0673 60.5332C91.5093 60.7206 91.7136 61.236 91.5261 61.6778L91.5294 61.6744Z" fill="#69A9FF"/>
<path d="M92.9796 58.2945L92.9092 58.4585C92.7217 58.9002 92.2059 59.1044 91.7639 58.917L87.3801 57.0462L81.2818 54.4425L80.5383 54.1246C80.0962 53.9372 79.8919 53.4218 80.0795 52.9801L80.1498 52.8161C80.3374 52.3777 80.8464 52.1702 81.2851 52.3543C81.2851 52.3543 81.2918 52.3543 81.2951 52.3543L91.7773 56.8287L92.5207 57.1466C92.9628 57.334 93.1671 57.8494 92.9796 58.2911V58.2945Z" fill="#69A9FF"/>
<path d="M88.5828 56.417L88.5125 56.581C88.325 57.0161 87.8226 57.2236 87.3839 57.0462L81.2855 54.4425L80.5421 54.1246C80.1 53.9372 79.8957 53.4218 80.0833 52.9801L80.1536 52.8161C80.3411 52.3777 80.8502 52.1702 81.2889 52.3543L87.3806 54.9546L88.124 55.2725C88.5661 55.4599 88.7704 55.9753 88.5828 56.417Z" fill="#99C5FF"/>
<path d="M87.1352 59.797L87.0649 59.961C86.8774 60.4027 86.3616 60.6069 85.9196 60.4194L79.8346 57.8225C79.3959 57.6351 79.1882 57.1197 79.3758 56.6779L79.4461 56.5173C79.6336 56.0755 80.1494 55.8714 80.5914 56.0588L86.6764 58.6558C87.1151 58.8432 87.3228 59.3586 87.1352 59.8003V59.797Z" fill="#99C5FF"/>
<path d="M105.712 34.6672C103.934 40.9521 98.4081 45.1655 92.2394 45.5771C92.0418 45.5905 91.8442 45.6006 91.6433 45.6039C90.4879 45.634 89.3124 45.5303 88.1369 45.2826C87.9628 45.2458 87.7887 45.2057 87.6145 45.1621C87.4571 45.122 87.2997 45.0818 87.1423 45.0383C83.5858 44.031 80.6889 41.8256 78.77 38.9843C77.8022 36.1932 77.6481 33.0876 78.5155 30.0288C80.766 22.0839 89.0311 17.4656 96.9815 19.7145C100.736 20.7754 103.746 23.1782 105.645 26.2538C106.446 28.9043 106.519 31.8058 105.712 34.6672Z" fill="#FCF232"/>
<path d="M90.6022 21.7493C90.3511 21.679 90.0966 21.6723 89.8588 21.7258C89.7784 21.7426 89.698 21.7693 89.621 21.7995C87.2131 22.5625 85.0229 23.9279 83.2748 25.7652C83.1978 25.8321 83.1241 25.9125 83.0605 25.9961C82.9533 26.14 82.8696 26.304 82.8193 26.4881C82.595 27.2846 83.0571 28.1145 83.8542 28.3387C84.2895 28.4626 84.7349 28.3789 85.0866 28.148C85.2373 28.0509 85.3712 27.9238 85.4784 27.7765C86.9385 26.4379 88.6498 25.4004 90.5085 24.7244C90.6324 24.6976 90.7529 24.6575 90.8635 24.6006C91.2385 24.4165 91.5366 24.0785 91.6605 23.6434C91.8916 22.8302 91.4194 21.9835 90.6022 21.7526V21.7493Z" fill="white"/>
<path d="M83.5293 30.9291C83.4791 31.1031 83.4021 31.2604 83.3016 31.401C83.1945 31.5482 83.0605 31.6754 82.9098 31.7725C82.5582 32.0034 82.1128 32.087 81.6774 31.9632C80.8803 31.739 80.4182 30.909 80.6426 30.1125C80.6928 29.9318 80.7765 29.7645 80.8837 29.6206C80.9473 29.5369 81.021 29.4566 81.098 29.3897C81.4664 29.0684 81.9855 28.9345 82.4945 29.0751C83.2916 29.2993 83.7537 30.1293 83.5293 30.9258V30.9291Z" fill="white"/>
<path d="M98.8239 39.8318C98.6095 39.4536 98.2613 39.2026 97.8158 39.0989C97.4408 39.0118 97.0054 39.042 96.5935 39.1792C95.994 39.3833 95.4013 39.7782 94.832 40.3538C94.3799 40.8123 93.9345 41.3913 93.4689 42.1208C93.3919 42.2413 93.3182 42.3618 93.2446 42.4823C93.0068 42.4321 92.5547 42.3283 91.9485 42.171C91.5969 42.0807 91.2453 41.987 90.8936 41.8866C90.5152 41.7795 90.1401 41.6691 89.7684 41.5553C89.3397 41.4248 88.9144 41.2842 88.4991 41.1436C88.4991 41.0031 88.4991 40.8592 88.4958 40.7186C88.479 39.8552 88.402 39.129 88.2547 38.4998C88.0705 37.71 87.7691 37.0641 87.3639 36.5789C87.2232 36.4115 87.0658 36.2676 86.895 36.1471C86.7242 36.0267 86.5434 35.933 86.3625 35.8727C85.9305 35.7288 85.5019 35.7623 85.1201 35.9731C84.5709 36.2777 84.1589 36.9503 84.0384 37.7334C83.8676 38.8445 84.1087 39.6644 84.7718 40.2401C85.3344 40.7287 86.1047 40.9562 86.8515 41.1771C87.0692 41.2407 87.2734 41.3009 87.471 41.3679C87.6351 41.4214 87.7992 41.475 87.9633 41.5252C87.9399 42.663 87.8294 43.8644 87.6251 45.1529C87.7992 45.1964 87.9734 45.2365 88.1475 45.2734C88.3518 44.0117 88.4657 42.827 88.4958 41.6992C88.8642 41.823 89.2393 41.9435 89.6177 42.0606C90.3444 42.2848 91.0879 42.4923 91.8246 42.6831C92.0691 42.7467 92.2901 42.8002 92.4844 42.8471C92.6753 42.8939 92.8393 42.9307 92.97 42.9608C92.5045 43.7707 92.0691 44.6442 91.6572 45.598C91.8548 45.5913 92.0557 45.5846 92.2533 45.5712C92.6485 44.6777 93.0704 43.8544 93.5158 43.088C93.6833 43.1315 93.8507 43.1717 94.0182 43.2085C94.2225 43.2554 94.4267 43.3089 94.6478 43.3658C95.3979 43.5632 96.1749 43.7707 96.9116 43.6469C97.779 43.4997 98.412 42.9274 98.844 41.8899C99.1487 41.1604 99.1454 40.3706 98.8373 39.8251L98.8239 39.8318ZM87.6351 40.8726C87.4275 40.8023 87.2098 40.7387 86.9988 40.6751C86.3089 40.471 85.5956 40.2568 85.1167 39.8451C84.5943 39.3934 84.4202 38.7508 84.5608 37.8205C84.6546 37.208 84.9727 36.6692 85.3746 36.4483C85.6057 36.3212 85.8602 36.2944 86.1281 36.368C86.1482 36.3747 86.1683 36.3781 86.1884 36.3881C86.463 36.4785 86.7343 36.6726 86.9486 36.9302C87.3002 37.3519 87.5648 37.9242 87.7289 38.6303C87.8662 39.2193 87.9432 39.9087 87.9566 40.7354C87.9566 40.8157 87.9566 40.8993 87.9566 40.9797C87.8461 40.9462 87.7389 40.9094 87.6318 40.8726H87.6351ZM98.3383 41.6891C97.9766 42.5559 97.4877 43.0144 96.8078 43.1282C96.1849 43.2319 95.4649 43.0412 94.7683 42.8571C94.554 42.8002 94.3363 42.7433 94.122 42.6931C94.0115 42.6663 93.901 42.6429 93.7871 42.6128C93.8306 42.5425 93.8742 42.4722 93.9177 42.4053C94.3631 41.7059 94.7851 41.157 95.2104 40.7253C95.7194 40.2066 96.2419 39.8585 96.7643 39.6812C97.0858 39.5741 97.414 39.5506 97.6953 39.6142C97.7154 39.6176 97.7355 39.6243 97.7556 39.631C98.0235 39.7079 98.2278 39.8619 98.3584 40.0895C98.5459 40.4208 98.5727 40.9161 98.4354 41.4013C98.4086 41.4984 98.3751 41.5921 98.3349 41.6858L98.3383 41.6891Z" fill="#F4C708"/>
<path d="M89.433 54.3654L88.9207 54.2215C89.3594 52.4779 89.855 50.5937 90.4511 48.7765C90.8262 47.632 91.2247 46.5778 91.6467 45.6039C91.8443 45.5972 92.0452 45.5905 92.2428 45.5771C91.7873 46.6012 91.362 47.719 90.9601 48.9438C90.3674 50.751 89.8751 52.6318 89.4364 54.3687L89.433 54.3654Z" fill="#D8AE00"/>
<path d="M86.0741 53.4149L85.5618 53.271C86.0942 51.5608 86.6502 49.7035 87.0855 47.8528C87.3066 46.9124 87.4841 46.0188 87.6214 45.1621C87.7955 45.2056 87.9696 45.2458 88.1438 45.2826C88.0065 46.1427 87.8256 47.0362 87.608 47.9733C87.1693 49.8373 86.61 51.7014 86.0775 53.4149H86.0741Z" fill="#D8AE00"/>
<path d="M91.2884 54.4457L91.1846 54.8172C91.0172 54.7971 90.8464 54.7637 90.6789 54.7168L89.4331 54.3654L88.9207 54.2215L86.0708 53.415L85.5584 53.2711L83.8739 52.7958C83.8572 52.7892 83.8371 52.7858 83.8203 52.7791L83.9308 52.3842C84.0882 51.8186 84.681 51.4873 85.247 51.648L90.5517 53.1372C91.1176 53.2945 91.4492 53.8868 91.2884 54.4524V54.4457Z" fill="#D8AE00"/>
<g opacity="0.23">
<path d="M78.8576 14.0055L78.1476 15.99L77.6854 15.8227C76.8348 15.5181 76.2186 15.5215 75.8335 15.8327C75.5555 16.0569 75.2976 16.4987 75.0599 17.1613L73.074 22.7C72.441 24.4636 71.6674 25.6048 70.7465 26.1202C70.2374 26.398 69.6078 26.5519 68.861 26.5854C70.0733 27.7902 70.435 29.3698 69.9461 31.3208C69.8623 31.6254 69.7585 31.95 69.6346 32.2914L67.6621 37.7965C67.3272 38.7336 67.3004 39.3962 67.5851 39.7844L67.5951 39.8079L67.6119 39.8146C67.8128 40.0856 68.218 40.3299 68.8242 40.5475L69.2863 40.7148L68.5864 42.6659L67.1966 42.1672C65.6728 41.6217 64.9059 40.5876 64.8925 39.0649C64.8791 38.4391 65.0097 37.7497 65.2777 37.0001L67.1095 31.8898C67.709 30.2131 67.853 28.9849 67.5348 28.1985C67.3172 27.6965 66.8784 27.248 66.2254 26.8531L66.9789 24.7548C68.0104 24.8987 68.8141 24.6912 69.3901 24.1256C69.9059 23.627 70.4015 22.71 70.8804 21.3747L72.6989 16.2979C73.3653 14.4338 74.3968 13.4299 75.7966 13.2826C76.3291 13.2224 76.885 13.2993 77.4711 13.5068L78.8609 14.0055H78.8576Z" fill="#00408F"/>
</g>
<g style="mix-blend-mode:multiply" opacity="0.25">
<path d="M117.109 35.2131C117.702 35.4039 118.188 35.685 118.573 36.0564C119.591 37.0236 119.792 38.4493 119.182 40.3334L117.521 45.4638C117.086 46.8125 116.919 47.8399 117.022 48.5494C117.133 49.3492 117.642 50.0051 118.546 50.5172L117.86 52.6389C117.099 52.5519 116.48 52.6389 116.001 52.9066C115.271 53.335 114.631 54.3959 114.085 56.0893L112.414 61.2531C112.17 62.0094 111.852 62.6352 111.46 63.1238C110.519 64.3219 109.28 64.67 107.739 64.1747L106.336 63.7195L106.976 61.7484L107.444 61.899C108.057 62.0964 108.526 62.15 108.851 62.0596L108.868 62.0663L108.891 62.0563C109.353 61.9224 109.738 61.3836 110.043 60.4365L111.845 54.8711C111.955 54.5264 112.073 54.2051 112.193 53.914C113 52.07 114.249 51.0426 115.944 50.825C115.371 50.3465 114.969 49.8411 114.735 49.309C114.323 48.3385 114.404 46.9631 114.983 45.1793L116.795 39.5804C117.012 38.9111 117.076 38.4058 116.992 38.0577C116.878 37.5758 116.389 37.1976 115.532 36.9199L115.063 36.7693L115.713 34.7646L117.116 35.2198L117.109 35.2131Z" fill="#00408F"/>
</g>
<path d="M78.5324 13.0318L77.8224 15.0164L77.3602 14.849C76.5096 14.5445 75.8934 14.5479 75.5083 14.8591C75.2303 15.0833 74.9725 15.5251 74.7347 16.1877L72.7488 21.7263C72.1158 23.49 71.3422 24.6312 70.4213 25.1466C69.9122 25.4243 69.2826 25.5783 68.5358 25.6118C69.7481 26.8165 70.1098 28.3961 69.6209 30.3472C69.5371 30.6518 69.4333 30.9764 69.3094 31.3177L67.3369 36.8229C67.002 37.76 66.9752 38.4226 67.2599 38.8108L67.2699 38.8342L67.2867 38.8409C67.4876 39.112 67.8928 39.3563 68.499 39.5738L68.9611 39.7412L68.2612 41.6922L66.8714 41.1936C65.3476 40.6481 64.5807 39.614 64.5673 38.0913C64.5539 37.4655 64.6846 36.7761 64.9525 36.0264L66.7843 30.9161C67.3838 29.2395 67.5278 28.0113 67.2096 27.2248C66.992 26.7228 66.5533 26.2744 65.9002 25.8795L66.6537 23.7812C67.6852 23.9251 68.4889 23.7176 69.0649 23.152C69.5807 22.6534 70.0763 21.7364 70.5552 20.4011L72.3737 15.3243C73.0401 13.4602 74.0716 12.4562 75.4714 12.309C76.0039 12.2487 76.5598 12.3257 77.1459 12.5332L78.5357 13.0318H78.5324Z" fill="white"/>
<path d="M116.479 33.6301C117.071 33.8208 117.557 34.102 117.942 34.4734C118.96 35.4406 119.161 36.8663 118.552 38.7504L116.89 43.8808C116.455 45.2294 116.288 46.2569 116.391 46.9663C116.502 47.7662 117.011 48.4221 117.915 48.9341L117.229 51.0559C116.469 50.9689 115.849 51.0559 115.37 51.3236C114.64 51.752 114 52.8129 113.454 54.5063L111.783 59.6701C111.539 60.4264 111.221 61.0522 110.829 61.5408C109.888 62.7389 108.649 63.087 107.108 62.5917L105.705 62.1365L106.345 60.1654L106.814 60.316C107.426 60.5134 107.895 60.567 108.22 60.4766L108.237 60.4833L108.26 60.4733C108.722 60.3394 109.108 59.8006 109.412 58.8535L111.214 53.2881C111.325 52.9434 111.442 52.6221 111.562 52.331C112.369 50.487 113.619 49.4596 115.313 49.242C114.74 48.7635 114.339 48.2581 114.104 47.726C113.692 46.7555 113.773 45.38 114.352 43.5963L116.164 37.9974C116.381 37.3281 116.445 36.8228 116.361 36.4747C116.247 35.9928 115.759 35.6146 114.901 35.3369L114.432 35.1863L115.082 33.1816L116.485 33.6368L116.479 33.6301Z" fill="white"/>
<g style="mix-blend-mode:multiply" opacity="0.12">
<path d="M85.708 13.1106L85.7047 13.1114C85.2966 13.2101 85.0459 13.6206 85.1446 14.0284L86.0769 17.8797C86.1757 18.2875 86.5865 18.5381 86.9946 18.4395L86.9978 18.4387C87.4059 18.34 87.6567 17.9295 87.558 17.5217L86.6256 13.6704C86.5269 13.2626 86.116 13.012 85.708 13.1106Z" fill="#00408F"/>
<path d="M114.142 24.379L114.141 24.3759C113.967 23.9941 113.516 23.8256 113.134 23.9995L109.525 25.642C109.143 25.816 108.975 26.2665 109.149 26.6483L109.15 26.6513C109.324 27.0331 109.775 27.2017 110.157 27.0278L113.765 25.3852C114.147 25.2113 114.316 24.7608 114.142 24.379Z" fill="#00408F"/>
<path d="M102.756 12.7149C102.921 12.3333 102.745 11.89 102.363 11.7248C101.981 11.5597 101.538 11.7352 101.373 12.1168L98.9227 17.7743C98.7575 18.156 98.9331 18.5992 99.315 18.7644C99.6969 18.9296 100.141 18.7541 100.306 18.3724L102.756 12.7149Z" fill="#00408F"/>
</g>
<path d="M85.4023 12.5032L85.399 12.504C84.991 12.6026 84.7402 13.0132 84.8389 13.421L85.7713 17.2723C85.87 17.6801 86.2808 17.9307 86.6889 17.832L86.6922 17.8312C87.1003 17.7326 87.351 17.322 87.2523 16.9142L86.3199 13.0629C86.2212 12.6551 85.8104 12.4045 85.4023 12.5032Z" fill="white"/>
<path d="M113.837 23.7706L113.836 23.7675C113.662 23.3857 113.211 23.2172 112.829 23.3911L109.22 25.0336C108.838 25.2076 108.67 25.6581 108.844 26.0399L108.845 26.0429C109.019 26.4247 109.47 26.5933 109.852 26.4193L113.46 24.7768C113.843 24.6029 114.011 24.1524 113.837 23.7706Z" fill="white"/>
<path d="M102.453 12.1056C102.618 11.7239 102.443 11.2806 102.061 11.1155C101.679 10.9503 101.235 11.1258 101.07 11.5075L98.6201 17.1649C98.4548 17.5466 98.6305 17.9899 99.0124 18.155C99.3943 18.3202 99.8379 18.1447 100.003 17.763L102.453 12.1056Z" fill="white"/>
<path d="M118.876 64.5192C112.631 77.0757 95.6014 83.4443 80.8393 78.7423C66.0772 74.0403 59.1751 60.0514 65.4208 47.4949C71.6666 34.9384 88.6959 28.5698 103.458 33.2718C118.22 37.9738 125.122 51.9627 118.876 64.5192Z" fill="url(#paint1_radial_1915_2873)" style="mix-blend-mode:screen"/>
<path d="M14.3941 112.348C14.1028 112.338 13.8148 112.325 13.5234 112.315C13.5234 113.483 13.5234 114.648 13.5234 115.815C12.4652 115.752 11.4069 115.688 10.3486 115.625C10.3486 112.117 10.3486 108.61 10.3486 105.1C11.6279 105.1 12.9106 105.103 14.1898 105.106C15.5395 105.106 16.5441 105.394 17.1972 105.973C17.8536 106.552 18.1818 107.502 18.1784 108.824C18.1784 110.143 17.867 111.077 17.2508 111.619C16.6312 112.161 15.6801 112.402 14.3941 112.352V112.348ZM14.7558 110.019C14.8697 109.825 14.9266 109.474 14.9266 108.965C14.9266 108.456 14.863 108.095 14.7391 107.884C14.6118 107.673 14.3606 107.566 13.9822 107.559C13.8315 107.559 13.6808 107.556 13.5268 107.553C13.5268 108.46 13.5268 109.37 13.5268 110.277C13.7043 110.284 13.8784 110.287 14.0559 110.294C14.4075 110.304 14.642 110.213 14.7558 110.019Z" fill="white" stroke="#002D63" stroke-width="0.49" stroke-miterlimit="10"/>
<path d="M27.1666 108.748C27.1666 109.434 27.0594 110.003 26.8418 110.452C26.6274 110.9 26.2925 111.302 25.8371 111.653C26.3595 113.28 26.8819 114.916 27.401 116.563C26.2356 116.506 25.0668 116.449 23.9014 116.389C23.5129 115.013 23.1211 113.644 22.7326 112.286C22.5886 112.282 22.4413 112.276 22.2973 112.272C22.2973 113.618 22.2973 114.963 22.2973 116.308C21.239 116.251 20.1807 116.194 19.1191 116.138C19.1191 112.463 19.1225 108.788 19.1258 105.117C20.5893 105.117 22.0528 105.121 23.5163 105.124C24.7788 105.124 25.7031 105.412 26.2892 105.991C26.8753 106.566 27.1666 107.493 27.1666 108.755V108.748ZM23.4962 110.134C23.6335 109.956 23.7038 109.628 23.7038 109.15C23.7038 108.671 23.6335 108.34 23.4962 108.149C23.3589 107.962 23.1312 107.865 22.8164 107.858C22.6456 107.858 22.4748 107.855 22.304 107.851C22.304 108.691 22.304 109.531 22.304 110.375C22.4681 110.378 22.6322 110.381 22.7963 110.388C23.1245 110.395 23.3589 110.311 23.4962 110.134Z" fill="white" stroke="#002D63" stroke-width="0.49" stroke-miterlimit="10"/>
<path d="M29.1864 106.331C29.9131 105.408 31.1019 104.942 32.7563 104.942C34.4107 104.942 35.5895 105.411 36.3028 106.355C37.0128 107.298 37.3678 108.838 37.3678 110.96C37.3678 113.081 36.996 114.644 36.266 115.635C35.5326 116.625 34.347 117.077 32.7061 117.004C31.0651 116.93 29.8896 116.378 29.1696 115.37C28.4529 114.363 28.0946 112.84 28.0946 110.789C28.0946 108.737 28.4596 107.258 29.1864 106.335V106.331ZM33.838 108.537C33.6572 108.125 33.2821 107.918 32.7228 107.911C32.1602 107.904 31.7985 108.105 31.6344 108.507C31.4703 108.911 31.3866 109.678 31.3866 110.816C31.3866 110.966 31.3866 111.117 31.3866 111.264C31.3866 112.476 31.477 113.272 31.6579 113.66C31.8387 114.049 32.2138 114.253 32.7731 114.273C33.3357 114.293 33.6974 114.122 33.8615 113.764C34.0256 113.406 34.1093 112.65 34.1093 111.502C34.1093 111.301 34.1093 111.097 34.1093 110.896C34.1093 109.738 34.0189 108.948 33.838 108.537Z" fill="white" stroke="#002D63" stroke-width="0.49" stroke-miterlimit="10"/>
<path d="M46.9155 113.848C46.9155 116.201 45.6999 117.336 43.2786 117.245C41.7347 117.188 40.1875 117.128 38.6437 117.064C38.647 113.089 38.6537 109.11 38.6571 105.134C40.1708 105.134 41.6845 105.134 43.1982 105.137C44.3971 105.137 45.2846 105.391 45.864 105.897C46.4433 106.402 46.7313 107.209 46.7313 108.31C46.7313 109.414 46.2926 110.247 45.4219 110.806C45.4219 110.846 45.4219 110.883 45.4219 110.923C46.4165 111.345 46.9155 112.322 46.9122 113.845L46.9155 113.848ZM43.1547 110.05C43.2685 109.869 43.3255 109.548 43.3255 109.086C43.3255 108.624 43.2652 108.3 43.148 108.109C43.0274 107.918 42.8231 107.824 42.5318 107.821C42.3308 107.821 42.1266 107.818 41.9256 107.814C41.9256 108.644 41.9256 109.471 41.9256 110.301C42.1333 110.304 42.3409 110.308 42.5485 110.311C42.8399 110.314 43.0408 110.227 43.1547 110.05ZM43.292 114.816C43.4259 114.645 43.4929 114.283 43.4929 113.728C43.4929 113.176 43.4259 112.784 43.2853 112.553C43.148 112.322 42.8935 112.202 42.5284 112.195C42.3275 112.192 42.1232 112.185 41.9223 112.182C41.9223 113.132 41.9223 114.086 41.9189 115.036C42.1199 115.043 42.3241 115.05 42.5251 115.056C42.9035 115.07 43.158 114.99 43.292 114.816Z" fill="white" stroke="#002D63" stroke-width="0.49" stroke-miterlimit="10"/>
<path d="M53.9918 117.596C51.9992 117.539 50.0032 117.475 48.0106 117.408C48.0173 113.319 48.0207 109.229 48.024 105.14C49.1024 105.14 50.1807 105.14 51.2591 105.14C51.2557 108.339 51.2524 111.542 51.249 114.741C52.2269 114.764 53.2048 114.788 54.1827 114.811C54.1191 115.738 54.0554 116.665 53.9918 117.592V117.596Z" fill="white" stroke="#002D63" stroke-width="0.49" stroke-miterlimit="10"/>
<path d="M61.2219 117.787C59.102 117.737 56.9822 117.68 54.8623 117.62C54.8657 113.46 54.8723 109.303 54.8757 105.144C57.0592 105.144 59.2393 105.144 61.4228 105.147C61.3592 106.184 61.2956 107.222 61.232 108.259C60.1904 108.253 59.1489 108.246 58.1108 108.239C58.1108 108.865 58.1108 109.494 58.1108 110.12C59.0116 110.13 59.9158 110.14 60.8167 110.147C60.8167 111.04 60.8167 111.937 60.8167 112.831C59.9158 112.817 59.0116 112.804 58.1108 112.787C58.1108 113.483 58.1108 114.176 58.1108 114.872C59.2159 114.896 60.3177 114.916 61.4228 114.936C61.3592 115.886 61.2956 116.833 61.232 117.78L61.2219 117.787Z" fill="white" stroke="#002D63" stroke-width="0.49" stroke-miterlimit="10"/>
<path d="M73.8841 118.031C72.8929 118.018 71.9016 118.001 70.9103 117.984C70.9103 115.752 70.9136 113.523 70.917 111.291C70.8601 111.291 70.8031 111.291 70.7462 111.291C70.3711 113.52 69.9994 115.742 69.6243 117.964C68.6096 117.947 67.5915 117.927 66.5768 117.907C66.2251 115.682 65.8735 113.463 65.5219 111.244C65.4582 111.244 65.3946 111.244 65.331 111.244C65.331 113.456 65.3276 115.672 65.3243 117.884C64.3464 117.864 63.3685 117.844 62.3906 117.82C62.5279 113.6 62.6652 109.38 62.7992 105.157C64.2191 105.157 65.6391 105.157 67.0557 105.157C67.4073 107.459 67.759 109.765 68.1106 112.071C68.1608 112.071 68.2111 112.071 68.2613 112.071C68.6029 109.768 68.9478 107.462 69.2894 105.153C70.6893 105.153 72.0891 105.153 73.489 105.153C73.6196 109.444 73.7468 113.734 73.8774 118.028L73.8841 118.031Z" fill="white" stroke="#002D63" stroke-width="0.49" stroke-miterlimit="10"/>
<path d="M79.8724 106.074C80.5288 105.324 81.4263 104.949 82.5683 104.949C83.7103 104.949 84.879 105.073 86.0779 105.327C85.9507 106.442 85.8234 107.56 85.6995 108.674C84.4504 108.353 83.593 108.189 83.1242 108.189C82.5314 108.189 82.2334 108.453 82.2334 108.982C82.2334 109.189 82.374 109.394 82.6587 109.588C82.9434 109.785 83.2849 109.989 83.6902 110.207C84.092 110.424 84.4973 110.682 84.9025 110.983C85.3077 111.284 85.6493 111.713 85.9339 112.272C86.2186 112.83 86.3593 113.473 86.3593 114.199C86.3593 115.525 86.0378 116.549 85.3914 117.268C84.7484 117.991 83.8342 118.346 82.6553 118.336C81.4765 118.326 80.3245 118.115 79.1993 117.7C79.2696 116.666 79.3399 115.632 79.4102 114.598C80.7599 115.039 81.7009 115.26 82.23 115.263C82.7592 115.267 83.0237 115.012 83.0237 114.494C83.0237 114.229 82.8831 113.985 82.5984 113.761C82.3138 113.537 81.9722 113.312 81.5669 113.088C81.1617 112.864 80.7565 112.603 80.3479 112.308C79.9394 112.014 79.5911 111.589 79.3064 111.03C79.0218 110.474 78.8811 109.812 78.8811 109.049C78.8811 107.814 79.2093 106.82 79.8657 106.07L79.8724 106.074Z" fill="white" stroke="#002D63" stroke-width="0.49" stroke-miterlimit="10"/>
<path d="M88.2078 106.519C88.9346 105.471 90.1234 104.949 91.7744 104.949C93.4255 104.949 94.6076 105.465 95.3243 106.499C96.0376 107.533 96.3926 109.213 96.3926 111.535C96.3926 113.861 96.0276 115.581 95.2942 116.699C94.5641 117.817 93.3752 118.376 91.7343 118.376C90.0933 118.376 88.9145 117.817 88.1944 116.713C87.4744 115.608 87.1161 113.895 87.1161 111.569C87.1161 109.246 87.4811 107.563 88.2045 106.515L88.2078 106.519ZM92.8662 108.942C92.682 108.487 92.3103 108.262 91.751 108.259C91.1884 108.259 90.8267 108.487 90.6626 108.938C90.4985 109.394 90.4181 110.254 90.4148 111.525C90.4148 111.693 90.4148 111.86 90.4148 112.027C90.4148 113.383 90.5052 114.273 90.6894 114.698C90.8736 115.123 91.2453 115.337 91.8046 115.337C92.3672 115.337 92.7289 115.136 92.893 114.731C93.0571 114.326 93.1374 113.49 93.1374 112.218C93.1374 111.994 93.1374 111.77 93.1374 111.549C93.1374 110.264 93.047 109.394 92.8628 108.942H92.8662Z" fill="white" stroke="#002D63" stroke-width="0.49" stroke-miterlimit="10"/>
<path d="M103.667 118.132C101.674 118.145 99.6782 118.158 97.6855 118.165C97.6855 113.831 97.6855 109.494 97.6855 105.16C98.7639 105.16 99.8423 105.16 100.921 105.16C100.921 108.52 100.921 111.883 100.921 115.243C101.898 115.24 102.876 115.233 103.854 115.227C103.791 116.194 103.727 117.164 103.667 118.132Z" fill="white" stroke="#002D63" stroke-width="0.49" stroke-miterlimit="10"/>
<path d="M113.026 105.157C112.366 109.448 111.707 113.748 111.047 118.058C109.383 118.078 107.715 118.099 106.05 118.115C105.34 113.805 104.634 109.484 103.924 105.161C105.116 105.161 106.308 105.161 107.5 105.161C107.842 107.988 108.184 110.813 108.529 113.634C108.636 113.634 108.743 113.634 108.85 113.634C109.108 110.81 109.366 107.985 109.62 105.161C110.756 105.161 111.891 105.161 113.026 105.161V105.157Z" fill="white" stroke="#002D63" stroke-width="0.49" stroke-miterlimit="10"/>
<path d="M117.504 117.958C116.432 117.978 115.357 117.995 114.285 118.012C114.285 113.728 114.279 109.441 114.275 105.157C115.347 105.157 116.419 105.157 117.494 105.157C117.497 109.424 117.5 113.691 117.504 117.961V117.958Z" fill="white" stroke="#002D63" stroke-width="0.49" stroke-miterlimit="10"/>
<path d="M127.936 117.733C126.901 117.76 125.866 117.783 124.831 117.81C124.014 115.866 123.2 113.911 122.383 111.95C122.333 111.95 122.283 111.95 122.233 111.95C122.233 113.921 122.236 115.896 122.239 117.867C121.282 117.887 120.32 117.907 119.363 117.924C119.359 113.667 119.356 109.41 119.353 105.153C120.417 105.153 121.486 105.153 122.551 105.153C123.328 107.185 124.108 109.209 124.885 111.224C124.935 111.224 124.985 111.224 125.036 111.224C125.036 109.199 125.032 107.178 125.029 105.153C125.993 105.153 126.958 105.153 127.926 105.153C127.929 109.347 127.936 113.543 127.939 117.737L127.936 117.733Z" fill="white" stroke="#002D63" stroke-width="0.49" stroke-miterlimit="10"/>
<path d="M136.667 108.818C135.455 108.447 134.567 108.259 134.008 108.263C133.445 108.266 133.064 108.53 132.856 109.052C132.648 109.574 132.545 110.404 132.548 111.532C132.548 112.663 132.648 113.483 132.843 113.995C133.04 114.507 133.439 114.755 134.045 114.738C134.222 114.735 134.561 114.675 135.066 114.554C135.066 114.049 135.066 113.543 135.066 113.038C134.782 113.045 134.497 113.048 134.216 113.055C134.216 112.268 134.216 111.482 134.216 110.695C135.421 110.679 136.627 110.662 137.829 110.642C137.829 112.908 137.836 115.173 137.836 117.436C137.092 117.459 136.346 117.482 135.602 117.506C135.502 117.295 135.401 117.088 135.297 116.877C135.271 116.877 135.247 116.877 135.22 116.877C135.006 117.071 134.835 117.215 134.711 117.312C134.36 117.603 133.861 117.757 133.218 117.777C130.579 117.861 129.259 115.762 129.256 111.502C129.256 109.374 129.597 107.744 130.291 106.616C130.984 105.492 132.149 104.933 133.79 104.933C135.103 104.933 136.232 105.147 137.179 105.565C137.012 106.643 136.841 107.724 136.674 108.805L136.667 108.818Z" fill="white" stroke="#002D63" stroke-width="0.49" stroke-miterlimit="10"/>
<path d="M146.305 111.255C146.305 112.396 146.419 113.206 146.64 113.681C146.861 114.156 147.223 114.387 147.728 114.37C148.234 114.353 148.944 114.21 149.865 113.938C150.029 114.832 150.196 115.722 150.361 116.612C149.366 117.021 148.361 117.248 147.353 117.292C145.839 117.352 144.738 116.884 144.048 115.873C143.358 114.866 143.013 113.329 143.01 111.278C143.01 109.226 143.365 107.654 144.081 106.566C144.798 105.478 145.97 104.939 147.598 104.939C148.555 104.939 149.473 105.144 150.344 105.549C150.176 106.536 150.006 107.523 149.838 108.51C148.854 108.192 148.167 108.032 147.775 108.035C147.219 108.042 146.834 108.293 146.623 108.791C146.409 109.29 146.305 110.11 146.305 111.251V111.255Z" fill="white" stroke="#002D63" stroke-width="0.49" stroke-miterlimit="10"/>
<path d="M157.132 116.676C155.139 116.769 153.147 116.86 151.154 116.943C151.151 113.004 151.144 109.069 151.141 105.13C152.219 105.13 153.298 105.13 154.376 105.13C154.379 108.149 154.383 111.171 154.386 114.189C155.364 114.156 156.342 114.119 157.32 114.082C157.256 114.945 157.196 115.809 157.132 116.676Z" fill="white" stroke="#002D63" stroke-width="0.49" stroke-miterlimit="10"/>
<path d="M161.556 113.574C161.72 113.751 161.988 113.832 162.36 113.815C162.731 113.802 162.989 113.701 163.137 113.52C163.281 113.34 163.354 113.052 163.354 112.65C163.354 110.137 163.351 107.627 163.348 105.114C164.433 105.114 165.518 105.114 166.603 105.11C166.603 107.644 166.606 110.18 166.61 112.714C166.61 113.986 166.241 114.929 165.504 115.555C164.768 116.178 163.683 116.532 162.253 116.606C160.823 116.68 159.754 116.439 159.054 115.873C158.354 115.307 158.003 114.367 158.003 113.055C158.003 110.411 157.996 107.768 157.996 105.124C159.101 105.124 160.203 105.124 161.308 105.12C161.308 107.66 161.312 110.204 161.315 112.744C161.315 113.122 161.399 113.4 161.563 113.574H161.556Z" fill="white" stroke="#002D63" stroke-width="0.49" stroke-miterlimit="10"/>
<path d="M176.536 112.589C176.536 114.607 175.327 115.695 172.906 115.842C171.362 115.933 169.818 116.02 168.274 116.107C168.274 112.442 168.271 108.778 168.268 105.113C169.781 105.113 171.295 105.11 172.809 105.106C174.008 105.106 174.895 105.324 175.478 105.759C176.057 106.194 176.349 106.883 176.349 107.834C176.349 108.784 175.913 109.517 175.042 110.043C175.042 110.076 175.042 110.11 175.042 110.146C176.037 110.471 176.536 111.284 176.536 112.593V112.589ZM172.772 109.464C172.886 109.3 172.943 109.012 172.943 108.604C172.943 108.195 172.882 107.908 172.762 107.744C172.641 107.58 172.437 107.496 172.146 107.503C171.945 107.503 171.74 107.509 171.539 107.513C171.539 108.256 171.539 108.999 171.539 109.742C171.747 109.735 171.955 109.731 172.162 109.725C172.454 109.718 172.655 109.631 172.769 109.467L172.772 109.464ZM172.916 113.687C173.05 113.527 173.113 113.202 173.113 112.71C173.113 112.221 173.043 111.877 172.906 111.683C172.765 111.485 172.514 111.395 172.149 111.405C171.948 111.411 171.744 111.418 171.543 111.425C171.543 112.278 171.543 113.132 171.543 113.985C171.744 113.975 171.945 113.965 172.149 113.955C172.527 113.938 172.782 113.848 172.916 113.684V113.687Z" fill="white" stroke="#002D63" stroke-width="0.49" stroke-miterlimit="10"/>
<defs>
<radialGradient id="paint0_radial_1915_2873" cx="0" cy="0" r="1" gradientUnits="userSpaceOnUse" gradientTransform="translate(97.879 24.0053) scale(44.7885 44.7576)">
<stop stop-color="white"/>
<stop offset="0.45" stop-color="#0171FF"/>
<stop offset="0.56" stop-color="#036EFB"/>
<stop offset="0.65" stop-color="#0B65F1"/>
<stop offset="0.73" stop-color="#1957E0"/>
<stop offset="0.78" stop-color="#244CD3"/>
<stop offset="0.84" stop-color="#1F43BD"/>
<stop offset="0.97" stop-color="#132F85"/>
<stop offset="0.99" stop-color="#112A78"/>
</radialGradient>
<radialGradient id="paint1_radial_1915_2873" cx="0" cy="0" r="1" gradientTransform="matrix(26.7496 8.52072 -7.6171 23.8798 113.197 62.6662)" gradientUnits="userSpaceOnUse">
<stop stop-color="#3369FF"/>
<stop offset="0.12" stop-color="#2751C6"/>
<stop offset="0.24" stop-color="#1D3C92"/>
<stop offset="0.37" stop-color="#142A66"/>
<stop offset="0.5" stop-color="#0C1B42"/>
<stop offset="0.62" stop-color="#070F25"/>
<stop offset="0.75" stop-color="#030711"/>
<stop offset="0.87" stop-color="#000205"/>
<stop offset="1" stop-color="#000102"/>
</radialGradient>
</defs>
</svg>
